<svg width="2500" height="2500" viewBox="0 0 2500 2500" fill="none" xmlns="http://www.w3.org/2000/svg">
<path d="M1250 2450C1912.74 2450 2450 1912.74 2450 1250C2450 587.258 1912.74 50 1250 50C587.258 50 50 587.258 50 1250C50 1912.74 587.258 2450 1250 2450Z" fill="#EDEEFF"/>
<path d="M1375 1950C1350.28 1950 1326.11 1942.67 1305.55 1928.93C1285 1915.2 1268.98 1895.68 1259.52 1872.84C1250.05 1849.99 1247.58 1824.86 1252.4 1800.61C1257.23 1776.37 1269.13 1754.09 1286.61 1736.61C1304.09 1719.13 1326.37 1707.23 1350.61 1702.4C1374.86 1697.58 1399.99 1700.05 1422.84 1709.52C1445.68 1718.98 1465.2 1735 1478.93 1755.55C1492.67 1776.11 1500 1800.28 1500 1825C1500 1858.15 1486.83 1889.95 1463.39 1913.39C1439.95 1936.83 1408.15 1950 1375 1950ZM1375 1750C1360.17 1750 1345.67 1754.4 1333.33 1762.64C1321 1770.88 1311.39 1782.59 1305.71 1796.3C1300.03 1810 1298.55 1825.08 1301.44 1839.63C1304.34 1854.18 1311.48 1867.54 1321.97 1878.03C1332.46 1888.52 1345.82 1895.67 1360.37 1898.56C1374.92 1901.45 1390 1899.97 1403.7 1894.29C1417.41 1888.61 1429.12 1879 1437.36 1866.67C1445.6 1854.33 1450 1839.83 1450 1825C1450 1805.11 1442.1 1786.03 1428.03 1771.97C1413.97 1757.9 1394.89 1750 1375 1750Z" fill="#7579FF"/>
<path d="M1750 1700C1730.22 1700 1710.89 1694.14 1694.44 1683.15C1678 1672.16 1665.18 1656.54 1657.61 1638.27C1650.04 1620 1648.06 1599.89 1651.92 1580.49C1655.78 1561.09 1665.3 1543.27 1679.29 1529.29C1693.27 1515.3 1711.09 1505.78 1730.49 1501.92C1749.89 1498.06 1770 1500.04 1788.27 1507.61C1806.54 1515.18 1822.16 1528 1833.15 1544.44C1844.14 1560.89 1850 1580.22 1850 1600C1850 1626.52 1839.46 1651.96 1820.71 1670.71C1801.96 1689.46 1776.52 1700 1750 1700ZM1750 1550C1740.11 1550 1730.44 1552.93 1722.22 1558.43C1714 1563.92 1707.59 1571.73 1703.81 1580.87C1700.02 1590 1699.03 1600.06 1700.96 1609.75C1702.89 1619.45 1707.65 1628.36 1714.64 1635.36C1721.64 1642.35 1730.55 1647.11 1740.25 1649.04C1749.94 1650.97 1760 1649.98 1769.13 1646.19C1778.27 1642.41 1786.08 1636 1791.57 1627.78C1797.07 1619.56 1800 1609.89 1800 1600C1800 1586.74 1794.73 1574.02 1785.36 1564.64C1775.98 1555.27 1763.26 1550 1750 1550Z" fill="#7579FF"/>
<path d="M994.5 1827.5C970.231 1827.44 946.505 1820.31 926.217 1807C905.93 1793.68 889.957 1774.74 880.25 1752.5L564 1046C557.279 1031.01 553.577 1014.85 553.106 998.433C552.635 982.016 555.404 965.666 561.255 950.32C567.106 934.973 575.924 920.93 587.204 908.993C598.485 897.055 612.008 887.459 627 880.75L1165.5 640.25C1168.52 638.659 1171.83 637.703 1175.24 637.441C1178.64 637.179 1182.06 637.616 1185.29 638.726C1188.51 639.836 1191.48 641.595 1194 643.895C1196.52 646.194 1198.55 648.986 1199.95 652.098C1201.35 655.209 1202.1 658.575 1202.15 661.987C1202.2 665.4 1201.56 668.787 1200.25 671.94C1198.94 675.092 1197 677.944 1194.55 680.319C1192.1 682.695 1189.19 684.543 1186 685.75L647.5 926.25C638.382 930.253 630.152 936.031 623.29 943.248C616.429 950.465 611.073 958.976 607.536 968.284C603.999 977.593 602.351 987.512 602.688 997.465C603.025 1007.42 605.341 1017.2 609.5 1026.25L925 1733C929.002 1742.12 934.781 1750.35 941.997 1757.21C949.214 1764.07 957.725 1769.43 967.034 1772.96C976.342 1776.5 986.262 1778.15 996.214 1777.81C1006.17 1777.48 1015.95 1775.16 1025 1771L1183 1700C1186.02 1698.41 1189.33 1697.45 1192.73 1697.19C1196.14 1696.93 1199.56 1697.37 1202.79 1698.48C1206.01 1699.59 1208.98 1701.35 1211.5 1703.64C1214.02 1705.94 1216.05 1708.74 1217.45 1711.85C1218.85 1714.96 1219.6 1718.33 1219.65 1721.74C1219.7 1725.15 1219.06 1728.54 1217.75 1731.69C1216.44 1734.84 1214.5 1737.69 1212.05 1740.07C1209.6 1742.44 1206.69 1744.29 1203.5 1745.5L1045.25 1816.25C1029.34 1823.6 1012.03 1827.43 994.5 1827.5Z" fill="#1B1C37"/>
<path d="M1005.25 1069C999.22 1069.07 993.37 1066.96 988.776 1063.05C984.181 1059.15 981.153 1053.71 980.249 1047.75C976.047 1027.01 975.455 1005.69 978.499 984.75C982.601 956.616 993.006 929.772 1008.94 906.222C1024.87 882.673 1045.91 863.026 1070.5 848.75C1074.33 846.652 1078.63 845.536 1083 845.5C1088.74 845.41 1094.34 847.3 1098.85 850.853C1103.37 854.405 1106.52 859.403 1107.78 865.006C1109.04 870.609 1108.34 876.476 1105.78 881.62C1103.23 886.763 1098.98 890.87 1093.75 893.25C1076.3 903.642 1061.37 917.779 1050.04 934.639C1038.72 951.5 1031.27 970.664 1028.25 990.75C1028.13 991.243 1028.13 991.757 1028.25 992.25C1026 1008.05 1026.51 1024.12 1029.75 1039.75C1029.87 1041.5 1029.87 1043.25 1029.75 1045C1029.5 1051.37 1026.82 1057.4 1022.26 1061.86C1017.71 1066.32 1011.62 1068.88 1005.25 1069Z" fill="#5F6073"/>
<path d="M864.001 1375C859.192 1374.99 854.488 1373.59 850.453 1370.98C846.418 1368.36 843.223 1364.64 841.251 1360.25L729.001 1110.25C727.729 1107.2 727.074 1103.93 727.074 1100.63C727.074 1097.32 727.729 1094.05 729.001 1091C731.366 1084.89 736.034 1079.95 742.001 1077.25L993.251 965C998.649 962.595 1004.72 962.179 1010.4 963.826C1016.07 965.474 1020.98 969.078 1024.25 974C1027.2 978.276 1028.85 983.311 1029 988.5C1029.05 994.604 1026.87 1000.52 1022.86 1005.12C1018.86 1009.73 1013.3 1012.71 1007.25 1013.5L785.251 1113.5L880.251 1326C886.267 1328.42 891.107 1333.08 893.751 1339C896.347 1345.07 896.437 1351.92 894.002 1358.05C891.566 1364.19 886.803 1369.11 880.751 1371.75L874.501 1374.75C871.05 1375.51 867.485 1375.59 864.001 1375Z" fill="#5F6073"/>
<path d="M1175 1613.25C1171.46 1613.23 1167.97 1612.47 1164.75 1611L911.999 1498C882.869 1484.91 859.852 1461.17 847.672 1431.65C835.492 1402.13 835.072 1369.07 846.499 1339.25C846.883 1337.41 847.558 1335.63 848.499 1334L981.749 1035.75C981.684 1035.09 981.684 1034.42 981.749 1033.75L1059.75 858.75L1061.25 855.75L1165.25 625C1178.8 594.786 1203.78 571.183 1234.72 559.371C1265.65 547.56 1300.01 548.505 1330.25 562L1878 806.75C1892.99 813.459 1906.51 823.056 1917.79 834.993C1929.08 846.93 1937.89 860.973 1943.74 876.32C1949.59 891.667 1952.36 908.016 1951.89 924.433C1951.42 940.851 1947.72 957.014 1941 972L1823.25 1235.75C1822.04 1238.94 1820.19 1241.85 1817.82 1244.3C1815.44 1246.76 1812.59 1248.69 1809.44 1250C1806.29 1251.31 1802.9 1251.95 1799.49 1251.9C1796.07 1251.85 1792.71 1251.1 1789.6 1249.7C1786.48 1248.3 1783.69 1246.27 1781.39 1243.75C1779.09 1241.23 1777.33 1238.26 1776.22 1235.04C1775.11 1231.81 1774.68 1228.39 1774.94 1224.99C1775.2 1221.58 1776.16 1218.27 1777.75 1215.25L1895.5 951.75C1899.66 942.703 1901.97 932.917 1902.31 922.965C1902.65 913.013 1901 903.093 1897.46 893.784C1893.93 884.476 1888.57 875.965 1881.71 868.748C1874.85 861.531 1866.62 855.753 1857.5 851.75L1309.75 607.75C1291.62 599.697 1271.03 599.158 1252.5 606.25C1243.28 609.766 1234.85 615.065 1227.69 621.843C1220.53 628.621 1214.77 636.745 1210.75 645.75L1106.25 879.75L1104.75 882.75L1029.75 1052.5C1029.81 1053.17 1029.81 1053.84 1029.75 1054.5L896.249 1354.5C896.215 1354 896.215 1353.5 896.249 1353C895.949 1354.53 895.531 1356.03 894.999 1357.5C888.094 1375.14 888.123 1394.75 895.08 1412.37C902.036 1429.99 915.405 1444.33 932.499 1452.5L1185.5 1565.5C1190.7 1567.87 1194.94 1571.96 1197.5 1577.08C1200.05 1582.19 1200.78 1588.03 1199.55 1593.62C1198.32 1599.21 1195.21 1604.2 1190.75 1607.78C1186.28 1611.35 1180.72 1613.28 1175 1613.25Z" fill="#1B1C37"/>
<path d="M1350 1281C1346.46 1280.98 1342.97 1280.22 1339.75 1278.75L1201 1216.75C1197.34 1214.78 1194.22 1211.92 1191.94 1208.44C1189.66 1204.96 1188.28 1200.97 1187.94 1196.82C1187.59 1192.68 1188.28 1188.51 1189.95 1184.7C1191.62 1180.89 1194.22 1177.55 1197.5 1175L1328.5 1080L1330.75 1078.5L1440.25 999C1443.87 996.494 1448.09 994.989 1452.48 994.638C1456.87 994.287 1461.28 995.102 1465.25 997C1469.37 999.077 1472.84 1002.26 1475.27 1006.18C1477.69 1010.11 1478.99 1014.63 1479 1019.25L1497 1194.25C1497.33 1197.53 1497.01 1200.85 1496.05 1204.01C1495.1 1207.17 1493.54 1210.11 1491.45 1212.66C1489.36 1215.21 1486.79 1217.33 1483.88 1218.89C1480.97 1220.45 1477.78 1221.42 1474.5 1221.75C1471.22 1222.08 1467.9 1221.76 1464.74 1220.8C1461.58 1219.85 1458.64 1218.28 1456.09 1216.2C1453.54 1214.11 1451.42 1211.53 1449.86 1208.63C1448.3 1205.72 1447.33 1202.53 1447 1199.25L1433.25 1066L1356.75 1121.5L1354.25 1123L1260.5 1191L1360.5 1235.5C1364.7 1238.33 1367.94 1242.36 1369.8 1247.06C1371.65 1251.77 1372.04 1256.93 1370.9 1261.86C1369.76 1266.79 1367.16 1271.26 1363.43 1274.68C1359.69 1278.1 1355.01 1280.3 1350 1281Z" fill="#5F6073"/>
<path d="M1340 1125C1314.14 1124.86 1288.6 1119.32 1265 1108.75C1235.2 1095.47 1209.39 1074.64 1190.1 1048.32C1170.82 1022 1158.74 991.11 1155.05 958.694C1151.36 926.278 1156.2 893.46 1169.07 863.484C1181.95 833.508 1202.43 807.412 1228.48 787.773C1254.53 768.134 1285.26 755.633 1317.62 751.505C1349.99 747.377 1382.87 751.765 1413.02 764.235C1443.16 776.706 1469.54 796.827 1489.53 822.61C1509.52 848.393 1522.43 878.947 1527 911.251C1532.28 946.24 1527.33 982.01 1512.75 1014.25C1504.09 1033.91 1491.99 1051.86 1477 1067.25C1474.81 1069.9 1472.1 1072.08 1469.03 1073.63C1465.97 1075.19 1462.61 1076.1 1459.18 1076.3C1455.74 1076.5 1452.31 1075.99 1449.08 1074.8C1445.85 1073.61 1442.9 1071.77 1440.42 1069.39C1437.94 1067.01 1435.97 1064.14 1434.65 1060.97C1433.32 1057.8 1432.67 1054.38 1432.72 1050.94C1432.78 1047.5 1433.54 1044.11 1434.96 1040.98C1436.39 1037.85 1438.44 1035.05 1441 1032.75C1451.48 1021.26 1459.94 1008.07 1466 993.751C1476.53 970.248 1480.09 944.217 1476.25 918.751C1472.93 895.044 1463.47 872.616 1448.82 853.685C1434.17 834.754 1414.82 819.977 1392.71 810.815C1370.59 801.653 1346.47 798.424 1322.72 801.448C1298.97 804.471 1276.42 813.642 1257.31 828.053C1238.19 842.464 1223.17 861.616 1213.73 883.614C1204.29 905.612 1200.75 929.695 1203.48 953.478C1206.2 977.262 1215.08 999.923 1229.25 1019.22C1243.42 1038.52 1262.37 1053.78 1284.25 1063.5C1302.51 1071.84 1322.44 1075.86 1342.5 1075.25C1349.13 1075.25 1355.49 1077.88 1360.18 1082.57C1364.87 1087.26 1367.5 1093.62 1367.5 1100.25C1367.5 1106.88 1364.87 1113.24 1360.18 1117.93C1355.49 1122.62 1349.13 1125.25 1342.5 1125.25L1340 1125Z" fill="#5F6073"/>
<path d="M1455 1043.25C1448.37 1043.25 1442.01 1040.62 1437.32 1035.93C1432.63 1031.24 1430 1024.88 1430 1018.25C1430 1013.31 1431.47 1008.47 1434.21 1004.36C1436.96 1000.25 1440.86 997.045 1445.43 995.153C1450 993.261 1455.03 992.766 1459.88 993.73C1464.73 994.695 1469.18 997.076 1472.68 1000.57C1476.17 1004.07 1478.56 1008.52 1479.52 1013.37C1480.48 1018.22 1479.99 1023.25 1478.1 1027.82C1476.2 1032.39 1473 1036.29 1468.89 1039.04C1464.78 1041.78 1459.94 1043.25 1455 1043.25Z" fill="#5F6073"/>
<path d="M1682.5 1208.25C1678.96 1208.23 1675.47 1207.47 1672.25 1206C1666.22 1203.27 1661.53 1198.27 1659.18 1192.08C1656.84 1185.9 1657.04 1179.04 1659.75 1173L1720.25 1037.5L1495.25 937.5L1489.25 935.25C1483.45 932.298 1479.02 927.198 1476.92 921.035C1474.82 914.872 1475.21 908.133 1478 902.25C1480.91 896.528 1485.9 892.143 1491.95 890.002C1498 887.862 1504.64 888.129 1510.5 890.75L1760.5 1003C1766.47 1005.7 1771.14 1010.64 1773.5 1016.75C1774.77 1019.8 1775.43 1023.07 1775.43 1026.38C1775.43 1029.68 1774.77 1032.95 1773.5 1036L1702.75 1194.25C1700.87 1198.13 1698.02 1201.46 1694.47 1203.92C1690.92 1206.37 1686.8 1207.86 1682.5 1208.25Z" fill="#5F6073"/>
<path d="M1575 1925C1575 1918.37 1577.63 1912.01 1582.32 1907.32C1587.01 1902.63 1593.37 1900 1600 1900C1606.63 1900 1612.99 1902.63 1617.68 1907.32C1622.37 1912.01 1625 1918.37 1625 1925C1625 1931.63 1622.37 1937.99 1617.68 1942.68C1612.99 1947.37 1606.63 1950 1600 1950C1593.37 1950 1587.01 1947.37 1582.32 1942.68C1577.63 1937.99 1575 1931.63 1575 1925ZM1676.75 1916.75C1674.7 1910.45 1675.23 1903.6 1678.23 1897.69C1681.23 1891.78 1686.45 1887.31 1692.75 1885.25C1699.05 1883.2 1705.9 1883.73 1711.81 1886.73C1717.72 1889.73 1722.19 1894.95 1724.25 1901.25C1726.3 1907.55 1725.77 1914.4 1722.77 1920.31C1719.77 1926.22 1714.55 1930.69 1708.25 1932.75C1705.69 1933.21 1703.06 1933.21 1700.5 1932.75C1695.42 1932.79 1690.45 1931.27 1686.25 1928.42C1682.06 1925.56 1678.83 1921.49 1677 1916.75H1676.75ZM1770.75 1877.5C1766.9 1872.15 1765.32 1865.5 1766.35 1858.99C1767.38 1852.49 1770.94 1846.65 1776.25 1842.75C1778.91 1840.81 1781.92 1839.41 1785.12 1838.63C1788.32 1837.85 1791.64 1837.72 1794.89 1838.23C1798.14 1838.74 1801.26 1839.89 1804.07 1841.61C1806.88 1843.33 1809.32 1845.59 1811.25 1848.25C1815.1 1853.6 1816.68 1860.25 1815.65 1866.76C1814.62 1873.26 1811.06 1879.1 1805.75 1883C1801.46 1886.11 1796.3 1887.77 1791 1887.75C1787.1 1887.72 1783.26 1886.78 1779.78 1885C1776.31 1883.22 1773.3 1880.65 1771 1877.5H1770.75ZM1848 1811.25C1845.34 1809.32 1843.08 1806.88 1841.36 1804.07C1839.64 1801.26 1838.49 1798.14 1837.98 1794.89C1837.47 1791.64 1837.6 1788.32 1838.38 1785.12C1839.16 1781.92 1840.56 1778.91 1842.5 1776.25C1844.43 1773.59 1846.87 1771.33 1849.68 1769.61C1852.49 1767.89 1855.61 1766.74 1858.86 1766.23C1862.11 1765.72 1865.43 1765.85 1868.63 1766.63C1871.83 1767.41 1874.84 1768.81 1877.5 1770.75C1880.16 1772.68 1882.42 1775.12 1884.14 1777.93C1885.86 1780.74 1887.01 1783.86 1887.52 1787.11C1888.03 1790.36 1887.9 1793.68 1887.12 1796.88C1886.34 1800.08 1884.94 1803.09 1883 1805.75C1880.67 1808.93 1877.62 1811.52 1874.11 1813.31C1870.59 1815.09 1866.69 1816.01 1862.75 1816C1857.54 1815.97 1852.47 1814.31 1848.25 1811.25H1848ZM1901.5 1725C1895.2 1722.94 1889.98 1718.47 1886.98 1712.56C1883.98 1706.65 1883.45 1699.8 1885.5 1693.5C1887.56 1687.2 1892.03 1681.98 1897.94 1678.98C1903.85 1675.98 1910.7 1675.45 1917 1677.5C1923.3 1679.56 1928.52 1684.03 1931.52 1689.94C1934.52 1695.85 1935.05 1702.7 1933 1709C1931.3 1714.22 1927.94 1718.74 1923.42 1721.86C1918.9 1724.97 1913.48 1726.52 1908 1726.25C1905.79 1726.09 1903.61 1725.67 1901.5 1725ZM1250 1600C1250 1593.37 1252.63 1587.01 1257.32 1582.32C1262.01 1577.63 1268.37 1575 1275 1575C1281.63 1575 1287.99 1577.63 1292.68 1582.32C1297.37 1587.01 1300 1593.37 1300 1600C1300 1606.63 1297.37 1612.99 1292.68 1617.68C1287.99 1622.37 1281.63 1625 1275 1625C1268.37 1625 1262.01 1622.37 1257.32 1617.68C1252.63 1612.99 1250 1606.63 1250 1600ZM1900 1600C1900 1593.37 1902.63 1587.01 1907.32 1582.32C1912.01 1577.63 1918.37 1575 1925 1575C1931.63 1575 1937.99 1577.63 1942.68 1582.32C1947.37 1587.01 1950 1593.37 1950 1600C1950 1606.63 1947.37 1612.99 1942.68 1617.68C1937.99 1622.37 1931.63 1625 1925 1625C1918.37 1625 1912.01 1622.37 1907.32 1617.68C1902.63 1612.99 1900 1606.63 1900 1600ZM1283 1525C1279.86 1524.01 1276.95 1522.4 1274.43 1520.28C1271.91 1518.15 1269.84 1515.55 1268.33 1512.63C1266.82 1509.7 1265.9 1506.5 1265.63 1503.22C1265.36 1499.94 1265.74 1496.64 1266.75 1493.5C1268.81 1487.2 1273.28 1481.98 1279.19 1478.98C1285.1 1475.98 1291.95 1475.45 1298.25 1477.5C1301.39 1478.49 1304.3 1480.1 1306.82 1482.22C1309.34 1484.35 1311.41 1486.95 1312.92 1489.87C1314.43 1492.8 1315.35 1496 1315.62 1499.28C1315.89 1502.56 1315.51 1505.87 1314.5 1509C1312.8 1514.22 1309.44 1518.74 1304.92 1521.86C1300.4 1524.97 1294.98 1526.52 1289.5 1526.25C1287.29 1526.12 1285.1 1525.7 1283 1525ZM1885 1507.25C1883.85 1504.15 1883.32 1500.85 1883.45 1497.54C1883.58 1494.24 1884.37 1490.99 1885.76 1487.99C1887.16 1484.99 1889.14 1482.3 1891.58 1480.07C1894.02 1477.84 1896.89 1476.12 1900 1475C1906.27 1472.94 1913.09 1473.44 1918.99 1476.39C1924.89 1479.34 1929.39 1484.5 1931.5 1490.75C1932.56 1493.87 1932.99 1497.17 1932.77 1500.45C1932.55 1503.74 1931.69 1506.95 1930.22 1509.9C1928.76 1512.85 1926.73 1515.48 1924.24 1517.64C1921.76 1519.81 1918.87 1521.46 1915.75 1522.5C1913.1 1522.86 1910.4 1522.86 1907.75 1522.5C1902.77 1522.37 1897.94 1520.75 1893.89 1517.85C1889.84 1514.96 1886.74 1510.92 1885 1506.25V1507.25ZM1322 1429.75C1316.65 1425.89 1313.04 1420.07 1311.97 1413.56C1310.89 1407.05 1312.43 1400.38 1316.25 1395C1318.16 1392.32 1320.59 1390.04 1323.39 1388.29C1326.19 1386.55 1329.3 1385.38 1332.55 1384.84C1335.81 1384.31 1339.13 1384.42 1342.34 1385.18C1345.55 1385.94 1348.58 1387.32 1351.25 1389.25C1353.91 1391.18 1356.17 1393.62 1357.89 1396.43C1359.61 1399.24 1360.76 1402.36 1361.27 1405.61C1361.78 1408.86 1361.65 1412.18 1360.87 1415.38C1360.09 1418.58 1358.69 1421.59 1356.75 1424.25C1354.42 1427.43 1351.37 1430.02 1347.86 1431.81C1344.34 1433.59 1340.44 1434.51 1336.5 1434.5C1331.29 1434.47 1326.22 1432.81 1322 1429.75ZM1842 1422.75C1840.06 1420.09 1838.66 1417.08 1837.88 1413.88C1837.1 1410.68 1836.97 1407.36 1837.48 1404.11C1837.99 1400.86 1839.14 1397.74 1840.86 1394.93C1842.58 1392.12 1844.84 1389.68 1847.5 1387.75C1850.16 1385.81 1853.17 1384.41 1856.37 1383.63C1859.57 1382.85 1862.89 1382.72 1866.14 1383.23C1869.39 1383.74 1872.51 1384.89 1875.32 1386.61C1878.13 1388.33 1880.57 1390.59 1882.5 1393.25C1884.44 1395.91 1885.84 1398.92 1886.62 1402.12C1887.4 1405.32 1887.53 1408.64 1887.02 1411.89C1886.51 1415.14 1885.36 1418.26 1883.64 1421.07C1881.92 1423.88 1879.66 1426.32 1877 1428.25C1872.71 1431.36 1867.55 1433.02 1862.25 1433C1858.31 1433.01 1854.41 1432.09 1850.89 1430.31C1847.38 1428.52 1844.33 1425.93 1842 1422.75ZM1388 1352.25C1386.06 1349.59 1384.66 1346.58 1383.88 1343.38C1383.1 1340.18 1382.97 1336.86 1383.48 1333.61C1383.99 1330.36 1385.14 1327.24 1386.86 1324.43C1388.58 1321.62 1390.84 1319.18 1393.5 1317.25C1396.16 1315.31 1399.17 1313.91 1402.37 1313.13C1405.57 1312.35 1408.89 1312.22 1412.14 1312.73C1415.39 1313.24 1418.51 1314.39 1421.32 1316.11C1424.13 1317.83 1426.57 1320.09 1428.5 1322.75C1430.44 1325.41 1431.84 1328.42 1432.62 1331.62C1433.4 1334.82 1433.53 1338.14 1433.02 1341.39C1432.51 1344.64 1431.36 1347.76 1429.64 1350.57C1427.92 1353.38 1425.66 1355.82 1423 1357.75C1418.71 1360.86 1413.55 1362.52 1408.25 1362.5C1404.31 1362.51 1400.41 1361.59 1396.89 1359.81C1393.38 1358.02 1390.33 1355.43 1388 1352.25ZM1775.5 1356.75C1772.82 1354.84 1770.54 1352.41 1768.79 1349.61C1767.05 1346.81 1765.88 1343.7 1765.34 1340.45C1764.81 1337.19 1764.92 1333.87 1765.68 1330.66C1766.44 1327.45 1767.82 1324.42 1769.75 1321.75C1771.68 1319.09 1774.12 1316.83 1776.93 1315.11C1779.74 1313.39 1782.86 1312.24 1786.11 1311.73C1789.36 1311.22 1792.68 1311.35 1795.88 1312.13C1799.08 1312.91 1802.09 1314.31 1804.75 1316.25C1809.82 1320.09 1813.24 1325.72 1814.31 1331.99C1815.38 1338.26 1814.01 1344.7 1810.5 1350C1808.18 1353.27 1805.1 1355.92 1801.53 1357.75C1797.96 1359.58 1794.01 1360.52 1790 1360.5C1784.73 1360.87 1779.48 1359.55 1775 1356.75H1775.5ZM1475 1300C1472.95 1293.7 1473.48 1286.85 1476.48 1280.94C1479.48 1275.03 1484.7 1270.56 1491 1268.5C1497.3 1266.45 1504.15 1266.98 1510.06 1269.98C1515.97 1272.98 1520.44 1278.2 1522.5 1284.5C1524.55 1290.8 1524.02 1297.65 1521.02 1303.56C1518.02 1309.47 1512.8 1313.94 1506.5 1316C1503.94 1316.48 1501.31 1316.48 1498.75 1316C1493.63 1316.09 1488.6 1314.6 1484.36 1311.74C1480.11 1308.88 1476.84 1304.78 1475 1300ZM1691.75 1315.5C1688.42 1314.57 1685.32 1312.97 1682.64 1310.78C1679.96 1308.59 1677.77 1305.88 1676.19 1302.8C1674.62 1299.72 1673.7 1296.35 1673.49 1292.9C1673.29 1289.45 1673.8 1285.99 1675 1282.75C1677.06 1276.45 1681.53 1271.23 1687.44 1268.23C1693.35 1265.23 1700.2 1264.7 1706.5 1266.75C1712.8 1268.81 1718.02 1273.28 1721.02 1279.19C1724.02 1285.1 1724.55 1291.95 1722.5 1298.25C1720.8 1303.47 1717.44 1307.99 1712.92 1311.11C1708.4 1314.22 1702.98 1315.77 1697.5 1315.5C1695.54 1315.29 1693.62 1314.87 1691.75 1314.25V1315.5ZM1575 1275C1575 1268.37 1577.63 1262.01 1582.32 1257.32C1587.01 1252.63 1593.37 1250 1600 1250C1606.63 1250 1612.99 1252.63 1617.68 1257.32C1622.37 1262.01 1625 1268.37 1625 1275C1625 1281.63 1622.37 1287.99 1617.68 1292.68C1612.99 1297.37 1606.63 1300 1600 1300C1593.37 1300 1587.01 1297.37 1582.32 1292.68C1577.63 1287.99 1575 1281.63 1575 1275Z" fill="#7579FF"/>
<path d="M1601.75 1752C1601.17 1748.77 1601.24 1745.45 1601.95 1742.24C1602.65 1739.03 1603.98 1736 1605.86 1733.3C1607.74 1730.61 1610.14 1728.31 1612.91 1726.55C1615.67 1724.78 1618.76 1723.57 1622 1723C1625.23 1722.42 1628.55 1722.49 1631.76 1723.2C1634.96 1723.9 1638 1725.24 1640.69 1727.12C1643.39 1729 1645.68 1731.39 1647.45 1734.16C1649.22 1736.93 1650.43 1740.02 1651 1743.25C1651.57 1746.48 1651.51 1749.8 1650.8 1753.01C1650.1 1756.22 1648.76 1759.25 1646.88 1761.95C1645 1764.64 1642.61 1766.94 1639.84 1768.7C1637.07 1770.47 1633.98 1771.68 1630.75 1772.25H1626.5C1620.66 1772.3 1614.98 1770.3 1610.46 1766.6C1605.94 1762.9 1602.86 1757.74 1601.75 1752ZM1513 1752C1510.13 1750.37 1507.62 1748.18 1505.6 1745.57C1503.59 1742.97 1502.1 1739.98 1501.25 1736.8C1500.39 1733.62 1500.16 1730.3 1500.59 1727.03C1501.02 1723.76 1502.1 1720.6 1503.75 1717.75C1505.38 1714.89 1507.57 1712.37 1510.17 1710.36C1512.78 1708.34 1515.76 1706.86 1518.95 1706C1522.13 1705.14 1525.45 1704.92 1528.72 1705.35C1531.99 1705.78 1535.14 1706.85 1538 1708.5C1540.86 1710.13 1543.38 1712.32 1545.39 1714.93C1547.41 1717.54 1548.89 1720.52 1549.75 1723.7C1550.61 1726.88 1550.83 1730.21 1550.4 1733.48C1549.97 1736.75 1548.9 1739.9 1547.25 1742.75C1545.05 1746.57 1541.87 1749.73 1538.05 1751.93C1534.24 1754.12 1529.9 1755.27 1525.5 1755.25C1521.12 1755.28 1516.81 1754.16 1513 1752ZM1435.75 1660.75C1433.38 1654.58 1433.55 1647.73 1436.22 1641.69C1438.89 1635.64 1443.84 1630.9 1450 1628.5C1453.08 1627.34 1456.37 1626.8 1459.66 1626.92C1462.96 1627.03 1466.19 1627.8 1469.19 1629.17C1472.19 1630.54 1474.89 1632.49 1477.13 1634.91C1479.37 1637.32 1481.11 1640.16 1482.25 1643.25C1484.46 1649.36 1484.21 1656.09 1481.55 1662.01C1478.89 1667.94 1474.03 1672.6 1468 1675C1465.18 1675.96 1462.23 1676.47 1459.25 1676.5C1454.2 1676.56 1449.25 1675.08 1445.06 1672.27C1440.86 1669.46 1437.62 1665.44 1435.75 1660.75ZM1450 1573C1443.83 1570.74 1438.79 1566.14 1435.99 1560.2C1433.18 1554.26 1432.82 1547.45 1435 1541.25C1435.99 1538.05 1437.61 1535.09 1439.77 1532.53C1441.93 1529.97 1444.58 1527.87 1447.56 1526.36C1450.54 1524.84 1453.8 1523.94 1457.14 1523.71C1460.48 1523.47 1463.83 1523.91 1467 1525C1470.11 1526.09 1472.97 1527.79 1475.42 1529.99C1477.87 1532.19 1479.86 1534.86 1481.28 1537.83C1482.69 1540.8 1483.51 1544.03 1483.67 1547.32C1483.84 1550.61 1483.36 1553.9 1482.25 1557C1480.5 1561.83 1477.31 1566.01 1473.1 1568.96C1468.9 1571.91 1463.89 1573.5 1458.75 1573.5C1455.82 1573.85 1452.86 1573.68 1450 1573ZM1502.25 1483.25C1499.2 1477.61 1498.43 1471.02 1500.11 1464.83C1501.78 1458.64 1505.77 1453.33 1511.25 1450C1514.09 1448.34 1517.23 1447.25 1520.48 1446.8C1523.74 1446.35 1527.06 1446.55 1530.24 1447.39C1533.42 1448.23 1536.41 1449.68 1539.03 1451.68C1541.65 1453.67 1543.84 1456.16 1545.5 1459C1548.88 1464.7 1549.86 1471.51 1548.22 1477.94C1546.57 1484.36 1542.45 1489.87 1536.75 1493.25C1532.86 1495.48 1528.48 1496.68 1524 1496.75C1519.54 1496.63 1515.19 1495.31 1511.41 1492.93C1507.63 1490.56 1504.55 1487.22 1502.5 1483.25H1502.25ZM1620.25 1476.75C1613.77 1475.59 1608.01 1471.92 1604.21 1466.54C1600.42 1461.15 1598.91 1454.49 1600 1448C1600.51 1444.75 1601.67 1441.63 1603.4 1438.82C1605.12 1436.01 1607.39 1433.58 1610.06 1431.65C1612.73 1429.72 1615.76 1428.34 1618.96 1427.58C1622.17 1426.83 1625.5 1426.72 1628.75 1427.25C1632.07 1427.71 1635.27 1428.82 1638.15 1430.54C1641.03 1432.26 1643.54 1434.54 1645.52 1437.24C1647.51 1439.95 1648.93 1443.03 1649.69 1446.29C1650.46 1449.56 1650.57 1452.94 1650 1456.25C1648.99 1462.12 1645.91 1467.44 1641.33 1471.24C1636.75 1475.04 1630.95 1477.09 1625 1477H1620.75L1620.25 1476.75Z" fill="#7579FF"/>
</svg>
