<svg width="230" height="198" viewBox="0 0 230 198" fill="none" xmlns="http://www.w3.org/2000/svg">
<g clip-path="url(#clip0_247_2)">
<mask id="mask0_247_2" style="mask-type:luminance" maskUnits="userSpaceOnUse" x="0" y="0" width="230" height="230">
<path d="M-0.00312698 180.628L180.625 229.027L229.024 48.3992L48.396 5.56111e-05L-0.00312698 180.628Z" fill="white"/>
</mask>
<g mask="url(#mask0_247_2)">
<path fill-rule="evenodd" clip-rule="evenodd" d="M130.89 76.4834C113.465 59.9758 92.3254 45.6157 68.7849 41.0117C60.2197 39.3357 51.7847 39.6746 43.146 39.944C42.5402 39.9619 42.0614 40.4706 42.0786 41.0792C42.0986 41.6885 42.6073 42.1674 43.2167 42.1473C51.6884 41.8843 59.9617 41.5321 68.3613 43.1758C91.5678 47.7143 112.375 61.9372 129.527 78.2276L129.298 78.5116C126.799 81.5892 126.399 86.9506 127.516 92.9889C129.115 101.644 133.712 111.716 138.616 117.913C140.821 120.697 143.111 122.705 145.213 123.56C146.852 124.227 148.409 124.236 149.806 123.522C152.78 121.999 153.685 118.285 152.934 113.495C151.366 103.478 142.875 88.5647 137.569 83.0897C135.912 81.3806 134.215 79.6821 132.48 78.0062C132.905 77.4529 133.323 76.9129 133.753 76.4062C134.983 74.9661 136.337 73.7815 138.467 73.2914C141.786 72.5312 145.342 73.1986 148.802 74.5522C154.199 76.6685 159.354 80.4746 163.075 83.554C183.798 100.705 190.467 122.609 191.693 143.132C192.927 163.859 188.633 183.201 187.487 194.982C187.427 195.588 187.872 196.125 188.478 196.185C189.083 196.245 189.623 195.801 189.681 195.194C190.835 183.337 195.137 163.865 193.891 143C192.638 121.931 185.753 99.4621 164.483 81.8549C160.607 78.6469 155.228 74.7026 149.607 72.4995C145.716 70.9759 141.709 70.2869 137.973 71.1428C134.621 71.9122 132.804 74.0276 130.89 76.4834ZM131.123 79.761L131.008 79.9013C128.823 82.5913 128.708 87.3077 129.685 92.5874C131.221 100.904 135.631 110.586 140.347 116.544C141.963 118.587 143.606 120.184 145.183 121.094C146.485 121.842 147.716 122.115 148.799 121.558C149.826 121.036 150.428 120.101 150.733 118.906C151.094 117.503 151.059 115.772 150.757 113.837C149.25 104.212 141.085 89.885 135.986 84.6246C134.401 82.992 132.781 81.3681 131.123 79.761Z" fill="#EDEEFF"/>
<path fill-rule="evenodd" clip-rule="evenodd" d="M39.5614 42.5167C39.7764 42.0846 40.2416 41.5932 40.7481 41.0709C41.9532 39.8253 43.5287 38.5768 44.2474 37.9581C44.7089 37.5589 44.7572 36.8628 44.3608 36.402C43.9617 35.9405 43.2663 35.8894 42.8047 36.2885C41.9253 37.0474 39.8288 38.7152 38.5398 40.2178C37.849 41.0242 37.39 41.8177 37.276 42.4452C37.0799 43.5134 37.7319 44.3882 39.3824 44.7884C41.3352 45.2606 45.1983 45.2531 47.9016 47.2304C48.3912 47.5899 49.0843 47.4812 49.4411 46.9909C49.8014 46.4985 49.6947 45.8088 49.2023 45.4485C46.6242 43.5648 43.1278 43.2019 40.8109 42.8214C40.3707 42.7486 39.8619 42.6063 39.5614 42.5167Z" fill="#EDEEFF"/>
</g>
</g>
<defs>
<clipPath id="clip0_247_2">
<rect width="230" height="198" fill="white"/>
</clipPath>
</defs>
</svg>
