<svg width="150" height="150" viewBox="0 0 150 150" fill="none" xmlns="http://www.w3.org/2000/svg">
<path d="M17.0003 60C16.1319 24.4856 29.5 13 69.0003 17L132.5 80.5C135 99 133 118 121 126.5C109 135 92.207 133.437 49.5 134C29.8518 132.5 19.5829 126.5 17.0006 108C17 105 16.9995 101 17.0003 99V60Z" fill="#EDEEFF"/>
<path d="M69.25 12H56.75C25.5 12 13 24.5 13 55.75V93.25C13 124.5 25.5 137 56.75 137H94.25C125.5 137 138 124.5 138 93.25V80.75" stroke="#1B1C37" stroke-width="9.375" stroke-linecap="round" stroke-linejoin="round"/>
<path d="M136.75 21.7514C129.062 40.9389 109.75 67.064 93.625 80.0015L83.75 87.8765C82.5 88.814 81.25 89.564 79.8125 90.1265C79.8125 89.189 79.75 88.2515 79.625 87.2515C79.0625 83.064 77.1875 79.1265 73.8125 75.814C70.375 72.3765 66.25 70.439 62 69.8765C61 69.814 60 69.7515 59 69.814C59.5625 68.2515 60.375 66.814 61.4375 65.6265L69.3125 55.7514C82.25 39.6264 108.438 20.1889 127.562 12.5014C130.5 11.3764 133.375 12.2514 135.188 14.0639C137.063 15.9389 137.938 18.8139 136.75 21.7514Z" fill="#5F6073" stroke="#1B1C37" stroke-width="9.375" stroke-linecap="round" stroke-linejoin="round"/>
<path d="M79.8746 90.5625C79.8746 96.0625 77.7496 101.313 73.8121 105.313C70.7496 108.375 66.6246 110.5 61.6871 111.125L49.3746 112.438C42.6871 113.188 36.9371 107.5 37.6871 100.688L38.9996 88.375C40.1871 77.4375 49.3121 70.4375 59.0621 70.25C60.0621 70.1875 61.0621 70.25 62.0621 70.3125C66.3121 70.875 70.4371 72.8125 73.8746 76.25C77.2496 79.625 79.1246 83.5 79.6871 87.6875C79.8121 88.6875 79.8746 89.6875 79.8746 90.5625Z" fill="#7579FF" stroke="#1B1C37" stroke-width="9.375" stroke-linecap="round" stroke-linejoin="round"/>
<path d="M98.875 74.8744C98.875 61.8121 88.3125 51.1871 75.1875 51.1871" stroke="#1B1C37" stroke-width="9.375" stroke-linecap="round" stroke-linejoin="round"/>
</svg>
