<svg width="500" height="500" viewBox="0 0 500 500" fill="none" xmlns="http://www.w3.org/2000/svg">
<g id="ContactUs 1" clip-path="url(#clip0_236_2)">
<g id="OBJECTS">
<g id="Group">
<g id="Person">
<g id="Group_2">
<g id="Group_3">
<path id="Vector" d="M40.1765 320.291C46.8845 300.621 65.1395 287.206 85.8575 280.908C91.2465 279.27 97.0325 278.525 101.877 275.73C113.467 269.044 116.997 254.198 117.326 241.193C119.164 168.442 191.745 158.604 205.68 159.892C260.951 165.001 253.512 207.933 285.806 231.896C306.673 247.38 339.393 222.81 362.478 234.866C382.069 245.097 382.003 274.062 399.914 286.818C412.768 295.973 422.699 283.342 444.582 302.846C472.742 327.944 480.329 397.15 441.319 436.765L78.1765 438.32C64.8055 436.059 13.8065 397.618 40.1765 320.291Z" fill="#EDEEFF"/>
</g>
<g id="Group_4">
<g id="Group_5">
<path id="Vector_2" d="M353.915 404.564C365.086 385.763 377.994 367.994 392.42 351.557C394.585 358.526 398.271 365.018 403.146 370.448C405.252 363.872 396.475 354.049 399.491 347.838C400.754 345.236 445.44 320.291 479.716 314.393C477.676 339.479 472.697 363.613 461.413 388.784C456.983 386.201 449.341 386.904 444.911 384.322C447.977 391.275 453.784 394.283 455.943 398.394C438.569 417.89 413.417 438.652 405.238 441.633C388.137 447.866 369.596 443.647 352.939 438.074C344.051 435.1 341.856 434.528 344.543 425.242C346.632 418.024 350.092 410.998 353.915 404.564Z" fill="#D2BFFF"/>
</g>
<g id="Group_6">
<g id="Group_7">
<path id="Vector_3" d="M365.865 440.309C391.066 399.277 423.671 363.118 461.92 333.86C462.929 333.089 461.933 331.351 460.91 332.133C422.377 361.608 389.529 397.958 364.138 439.299C363.463 440.4 365.192 441.406 365.865 440.309Z" fill="#F4F0FF"/>
</g>
</g>
<g id="Group_8">
<g id="Group_9">
<path id="Vector_4" d="M366.929 399.998C371.76 405.759 374.46 412.518 374.946 420.023C374.977 420.509 375.382 421.095 375.946 421.023C388.787 419.376 401.677 418.963 414.598 419.784C415.883 419.866 415.878 417.865 414.598 417.784C402.859 417.038 391.485 417.917 379.791 418.55C377.157 418.693 377.251 418.929 376.62 416.519C375.995 414.133 375.68 411.778 374.812 409.443C373.317 405.423 371.092 401.861 368.344 398.584C367.515 397.596 366.106 399.017 366.929 399.998Z" fill="#F4F0FF"/>
</g>
</g>
<g id="Group_10">
<g id="Group_11">
<path id="Vector_5" d="M387.425 374.841C391.385 381.636 393.862 388.908 394.81 396.716C394.874 397.244 395.216 397.728 395.81 397.716C406.341 397.501 416.831 397.967 427.302 399.114C428.58 399.254 428.57 397.253 427.302 397.114C422.073 396.541 416.836 396.104 411.58 395.871C408.954 395.754 406.325 395.683 403.696 395.657C402.083 395.641 398.507 396.335 397.193 395.352C395.353 393.976 395.061 387.291 394.24 384.848C392.944 380.991 391.198 377.344 389.151 373.831C388.504 372.72 386.775 373.725 387.425 374.841Z" fill="#F4F0FF"/>
</g>
</g>
<g id="Group_12">
<g id="Group_13">
<path id="Vector_6" d="M413.775 350.717C416.388 356.624 418.014 362.722 418.692 369.144C418.758 369.771 419.279 370.305 419.958 370.108C431.702 366.697 443.612 364.025 455.687 362.091C456.954 361.888 456.416 359.96 455.155 360.162C443.079 362.096 431.17 364.768 419.426 368.179C419.848 368.5 420.27 368.822 420.692 369.143C419.975 362.355 418.261 355.946 415.502 349.707C414.982 348.533 413.258 349.549 413.775 350.717Z" fill="#F4F0FF"/>
</g>
</g>
</g>
<g id="Group_14">
<g id="Group_15">
<path id="Vector_7" d="M318.633 274.003C319.896 260.158 321.837 246.026 328.305 233.72C334.773 221.414 346.641 211.124 360.505 210.098C374.126 209.091 389.537 217.426 396.748 229.026C403.959 240.626 403.596 254.934 402.107 268.511C400.528 282.91 395.522 296.68 390.555 310.287C375.914 350.395 362.394 379.479 337.748 414.344C312.382 450.227 283.255 445.298 297.433 427.027C325.629 378.997 313.754 327.479 318.633 274.003Z" fill="#B7A5EF"/>
</g>
<g id="Group_16">
<g id="Group_17">
<path id="Vector_8" d="M306.618 443.737C321.279 421.951 331.208 396.685 340.063 372.103C351.262 341.014 360.346 308.949 366.022 276.375C368.745 260.748 370.689 244.913 370.74 229.032C370.744 227.745 368.744 227.743 368.74 229.032C368.642 259.275 362.301 289.514 354.62 318.639C346.65 348.863 336.62 378.752 323.822 407.288C318.348 419.494 312.372 431.61 304.89 442.727C304.17 443.798 305.902 444.801 306.618 443.737Z" fill="#F4F0FF"/>
</g>
</g>
<g id="Group_18">
<g id="Group_19">
<path id="Vector_9" d="M340.752 234.933C348.122 248.16 354.989 261.827 365.379 273.011C365.682 273.338 366.215 273.381 366.591 273.167C377.023 267.257 388.509 263.568 398.366 256.547C399.406 255.807 398.408 254.071 397.357 254.82C392.306 258.417 386.762 261.264 381.201 263.979C376.874 266.091 372.021 269.232 367.374 270.502C365.654 270.972 366.94 271.138 365.638 270.351C364.556 269.697 363.113 267.439 362.329 266.459C359.513 262.937 356.994 259.181 354.619 255.351C350.292 248.373 346.475 241.093 342.48 233.924C341.853 232.8 340.125 233.807 340.752 234.933Z" fill="#F4F0FF"/>
</g>
</g>
<g id="Group_20">
<g id="Group_21">
<path id="Vector_10" d="M326.537 276.29C337.306 284.636 345.957 295.675 355.459 305.365C356.122 306.041 357.165 307.56 358.161 307.819C360.535 308.437 365.581 304.45 367.593 303.325C376.795 298.184 385.272 292.071 392.773 284.654C393.69 283.748 392.275 282.334 391.359 283.24C384.383 290.138 376.549 295.903 368.042 300.774C365.988 301.95 360.088 306.175 358.369 305.451C356.955 304.856 355.257 302.267 354.222 301.172C345.798 292.256 337.681 282.416 327.951 274.876C326.946 274.097 325.52 275.502 326.537 276.29Z" fill="#F4F0FF"/>
</g>
</g>
</g>
<g id="Group_22">
<g id="Group_23">
<path id="Vector_11" d="M99.9705 427.15C86.3905 421.909 57.7175 409.657 65.9445 400.918C69.7005 398.478 74.3745 397.491 78.7955 398.204C81.1965 395.242 76.5925 391.733 72.9985 390.462C63.4085 387.071 26.6305 375.466 36.4955 365.022C39.7295 361.147 52.9195 362.384 52.2925 361.816C41.4885 352.018 35.4385 345.998 26.9835 332.999C21.6245 324.76 17.0305 308.385 26.3695 305.493C32.3585 305.361 37.1545 310.327 40.5425 315.268C43.9305 320.209 49.5335 329.118 55.5725 334.811C55.2975 330.381 53.0405 306.916 65.7455 312.271C73.6865 315.618 77.2615 339.028 83.9915 347.638C84.8905 348.789 86.3465 350.038 87.6235 349.328C88.4135 348.889 88.6675 347.904 89.0515 347.085C91.3575 342.176 99.3195 343.261 102.558 347.612C105.796 351.963 105.901 357.784 106.582 363.165C107.263 368.545 109.215 374.541 114.189 376.702C114.901 373.591 115.689 370.33 117.843 367.976C119.997 365.622 123.99 364.626 126.391 366.728C127.548 367.741 128.124 369.247 128.639 370.696C137.045 394.342 154.171 424.208 163.93 446.403C162.017 444.926 110.59 431.249 99.9705 427.15Z" fill="#B7A5EF"/>
</g>
<g id="Group_24">
<g id="Group_25">
<path id="Vector_12" d="M31.6687 324.349C68.9157 371.759 116.258 409.839 163.226 447.111C164.224 447.903 165.648 446.497 164.64 445.697C117.672 408.425 70.3307 370.346 33.0827 322.935C32.2887 321.923 30.8827 323.347 31.6687 324.349Z" fill="#F4F0FF"/>
</g>
</g>
<g id="Group_26">
<g id="Group_27">
<path id="Vector_13" d="M46.8018 371.638C57.2718 374.076 68.1678 375.306 78.9238 375.336C79.5198 375.338 80.1278 374.687 79.8878 374.07C74.9638 361.403 69.4678 348.043 67.4718 334.544C67.2838 333.275 65.3568 333.815 65.5428 335.076C67.5388 348.575 73.0348 361.934 77.9588 374.602C78.2798 374.18 78.6018 373.758 78.9228 373.336C68.3388 373.306 57.6338 372.108 47.3328 369.709C46.0808 369.418 45.5468 371.345 46.8018 371.638Z" fill="#F4F0FF"/>
</g>
</g>
<g id="Group_28">
<g id="Group_29">
<path id="Vector_14" d="M77.0102 407.797C83.8032 408.525 90.5632 409.506 97.3942 409.837C103.355 410.126 110.192 410.428 115.675 407.66C116.164 407.413 116.284 406.741 116.034 406.292C107.822 391.525 103.818 374.635 97.0902 359.175C96.5782 357.998 94.8542 359.015 95.3632 360.184C102.094 375.653 106.086 392.518 114.307 407.301C114.427 406.845 114.546 406.389 114.666 405.933C108.84 408.874 101.103 408.115 94.8072 407.683C88.8502 407.274 82.9442 406.433 77.0102 405.797C75.7312 405.66 75.7412 407.661 77.0102 407.797Z" fill="#F4F0FF"/>
</g>
</g>
</g>
<g id="Group_30">
<g id="Group_31">
<path id="Vector_15" d="M187.181 400.957C176.165 393.981 165.31 388.909 154.295 381.933C139.626 372.644 48.1738 320.292 55.1178 243.131C56.3478 229.467 64.0558 213.162 77.3488 209.771C116.679 199.737 116.601 249.462 118.672 260.198C123.414 284.778 136.258 307.208 152.12 326.575C167.982 345.942 186.87 362.569 205.561 379.222C209.64 382.856 214.076 387.368 213.539 392.804C213.343 394.788 212.478 396.635 211.626 398.437C206.727 408.798 194.79 405.776 187.181 400.957Z" fill="#D2BFFF"/>
</g>
<g id="Group_32">
<g id="Group_33">
<path id="Vector_16" d="M78.8299 222.485C77.6539 237.57 79.4479 251.287 84.6989 265.426C88.9719 276.932 94.2129 288.08 100.315 298.729C114.489 323.462 133.231 345.444 154.947 363.871C168.941 375.745 184.128 386.107 200.091 395.146C201.213 395.781 202.222 394.054 201.1 393.419C151.665 365.427 109.98 323.317 88.6349 270.095C86.1369 263.866 83.5889 257.434 82.1369 250.867C80.0879 241.603 80.0959 231.901 80.8299 222.485C80.9299 221.202 78.9299 221.208 78.8299 222.485Z" fill="#F4F0FF"/>
</g>
</g>
<g id="Group_34">
<g id="Group_35">
<path id="Vector_17" d="M60.8503 241.674C67.7683 248.551 74.8613 254.88 83.2233 259.964C83.7913 260.309 84.5053 259.971 84.6923 259.366C87.6653 249.774 92.3603 240.277 98.8563 232.575C99.6813 231.597 98.2733 230.175 97.4423 231.161C90.7103 239.143 85.8483 248.884 82.7643 258.835C83.2543 258.636 83.7433 258.437 84.2333 258.237C76.0233 253.245 69.0513 247.006 62.2653 240.26C61.3503 239.352 59.9363 240.765 60.8503 241.674Z" fill="#F4F0FF"/>
</g>
</g>
<g id="Group_36">
<g id="Group_37">
<path id="Vector_18" d="M65.7459 276.831C71.9499 279.846 78.0699 283.033 84.2559 286.083C87.1629 287.516 90.0709 288.963 93.0409 290.262C94.1599 290.752 95.7369 291.765 97.0089 291.614C97.4409 291.563 97.8629 291.34 97.9729 290.88C100.462 280.534 103.11 270.094 106.86 260.126C107.314 258.92 105.381 258.399 104.932 259.594C102.419 266.274 100.503 273.179 98.6659 280.069C97.9559 282.732 97.2679 285.401 96.6029 288.076C96.4459 288.709 96.2959 289.344 96.1349 289.976C96.0959 290.13 97.1989 290.104 96.2739 289.438C94.7349 288.331 92.2669 287.733 90.5299 286.91C87.7249 285.581 84.9439 284.201 82.1669 282.816C77.0259 280.253 71.9229 277.612 66.7559 275.102C65.6029 274.544 64.5869 276.268 65.7459 276.831Z" fill="#F4F0FF"/>
</g>
</g>
<g id="Group_38">
<g id="Group_39">
<path id="Vector_19" d="M79.7739 309.248C90.8709 314.043 102.318 318.427 114.089 321.257C114.611 321.382 115.176 321.095 115.319 320.558C117.971 310.649 119.101 300.477 119.765 290.263C119.849 288.978 117.848 288.983 117.765 290.263C117.112 300.3 115.996 310.29 113.39 320.026C113.8 319.793 114.21 319.56 114.62 319.327C103.022 316.539 91.7159 312.245 80.7819 307.52C79.6139 307.016 78.5949 308.738 79.7739 309.248Z" fill="#F4F0FF"/>
</g>
</g>
</g>
</g>
<g id="Group_40">
<g id="Group_41">
<g id="Group_42">
<path id="Vector_20" d="M74.6195 354.834C72.7445 344.316 72.2815 332.626 78.3715 323.847C83.4325 316.551 92.2385 312.618 101.011 311.235C107.704 310.18 188.374 303.629 191.327 306.566C194.062 309.285 202.529 314.29 205.92 328.383C209.99 345.297 222.316 417.439 218.842 432.546C209.215 434.942 117.193 435.409 102.876 435.536C102.29 430.179 77.6755 371.974 74.6195 354.834Z" fill="#363C89"/>
</g>
<g id="Group_43">
<g id="Group_44">
<g id="Group_45">
<g id="Group_46">
<path id="Vector_21" d="M231.278 283.664C253.613 288.748 262.394 335.513 265.793 346.875C269.508 359.294 274.825 371.234 281.57 382.304C284.964 387.874 288.804 394.822 285.496 400.443C283.408 403.992 279.028 405.576 274.915 405.767C266.725 406.147 258.822 402.028 252.977 396.28C247.132 390.531 243.052 383.259 239.278 375.981C228.104 354.432 221.548 338.125 216.446 314.394C216.165 313.094 214.05 279.743 231.278 283.664Z" fill="white"/>
</g>
<g id="Group_47">
<path id="Vector_22" d="M279.86 410.644C282.715 413.554 294.888 415.039 295.89 414.343C294.833 408.002 288.6 411.603 287.83 406.714C289.725 405.389 291.974 405.79 293.832 405.79C295.452 405.789 296.966 407.228 297.652 408.97C298.689 411.604 298.304 412.423 298.709 415.224C299.108 417.987 301.913 420.007 301.915 418.245C301.918 415.01 301.923 410.014 301.926 406.779C302.724 409.656 303.289 418.747 307.165 417.889C308.11 413.538 306.098 409.706 306.079 405.254C307.179 409.032 307.165 417.889 311.04 416.633C311.198 412.573 309.694 408.47 309.852 404.41C310.722 407.992 312.097 415.752 314.24 414.501C314.887 410.594 313.821 406.46 312.978 402.59C312.465 400.237 312.592 397.958 310.882 396.262C309.831 395.22 294.993 392.343 288.838 392.705C284.955 392.933 280.018 392.338 277.573 394.281C268.058 401.837 276.662 407.384 279.86 410.644Z" fill="#FFBB8E"/>
</g>
</g>
<g id="Group_48">
<path id="Vector_23" d="M129.957 329.087C135.038 353.796 151.811 356.956 154.935 381.988C157.02 398.692 150.035 419.386 145.283 435.535C183.884 436.892 222.966 436.188 251.493 434.955C250.449 411.564 241.106 380.497 243.271 357.183C244.512 343.815 247.465 331.409 245.571 318.119C243.677 304.828 237.939 285.579 231.281 283.665C218.339 279.945 207.464 276.595 192.554 274.974C186.042 274.266 166.928 272.275 150.432 274.598C140.07 276.058 131.292 277.997 127.573 279.506C102.968 289.487 125.561 307.711 129.957 329.087Z" fill="#4C69A1"/>
</g>
<g id="Group_49">
<path id="Vector_24" d="M193.781 302.312C196.22 302.132 206.68 283.437 205.883 281.125C203.076 274.698 197.881 281.184 196.203 276.42C194.863 272.613 201.472 255.282 197.759 250.839C195.542 248.186 173.397 239.976 169.467 247.467C167.614 250.998 160.664 266.837 160.664 270.957C160.664 273.356 186.952 302.816 193.781 302.312Z" fill="#EAA27A"/>
</g>
<g id="Group_50">
<g id="Group_51">
<path id="Vector_25" d="M213.625 394.283C215.045 395.95 217.596 401.642 219.182 406.452C219.707 408.045 220.46 413.112 220.46 413.112C216.444 415.05 215.012 405.29 213.625 402.543C213.218 405.561 213.801 416.811 212.743 416.715C208.869 415.754 209.288 407.3 209.574 403.248C209.223 405.939 208.477 408.374 207.685 410.97C206.878 413.617 205.924 416.107 204.661 417.398C202.176 416.987 203.841 409.207 204.29 405.734C202.871 411.706 199.224 417.891 199.224 417.891C196.716 417.891 196.938 414.28 197.741 412.231C198.547 410.172 200.533 407.666 199.358 405.791C199.604 407.592 195.946 410.186 194.196 410.674C192.445 411.161 187.543 409.462 185.795 408.965C177.447 406.589 158.113 407.436 160.696 398.139C162.465 391.77 170.597 386.502 176.459 387.394C181.609 388.177 188.796 394.284 194.603 394.284C204.994 394.283 209.464 392.693 213.625 394.283Z" fill="#FFBB8E"/>
</g>
<g id="Group_52">
<path id="Vector_26" d="M186.499 389.453C176.033 383.528 132.448 364.398 132.068 363.437C130.612 359.754 151.34 324.994 152.644 314.739C153.948 304.483 153.751 295.504 146.414 288.221C136.655 278.533 127.57 279.506 127.57 279.506C120.794 281.88 119.003 284.114 115.537 287.474C110.627 292.233 107.794 298.683 105.08 304.958C97.0683 323.479 89.0193 342.112 84.2823 361.728C82.9873 367.092 81.9673 372.865 83.9433 378.017C85.2713 381.482 87.8523 384.333 90.7103 386.699C102.252 396.253 117.976 398.55 132.834 400.483C148.241 402.488 164.224 406.96 179.631 408.965C182.8 409.377 189.818 391.332 186.499 389.453Z" fill="white"/>
</g>
</g>
<g id="Group_53">
<path id="Vector_27" d="M150.359 275.723C150.347 279.818 153.602 283.709 155.311 287.43C158.202 293.725 161.094 300.02 163.986 306.314C167.688 301.471 171.389 296.627 175.091 291.784C180.333 297.575 186.912 302.149 194.166 305.047C197.608 300.597 201.049 296.147 204.491 291.696C205.893 295.887 207.752 299.926 210.024 303.717C212.031 293.89 213.757 282.685 207.738 274.662C204.884 270.857 200.448 268.279 195.729 267.683C193.924 273.68 197.994 279.878 197.949 286.141C197.913 291.23 195.182 295.86 192.536 300.207C189.088 298.027 185.766 295.646 182.594 293.08C181.009 291.798 179.41 290.403 178.595 288.534C177.897 286.935 177.819 285.082 176.895 283.603C175.943 282.081 174.261 281.208 172.89 280.049C167.252 275.285 163.659 266.023 163.659 260.789C159.29 260.791 150.381 267.87 150.359 275.723Z" fill="white"/>
</g>
<g id="Group_54">
<g id="Group_55">
<path id="Vector_28" d="M194.158 309.764C199.706 335.788 204.886 362.239 203.332 388.979C203.257 390.265 205.258 390.261 205.332 388.979C206.896 362.069 201.669 335.419 196.087 309.232C195.819 307.974 193.89 308.506 194.158 309.764Z" fill="white"/>
</g>
</g>
</g>
<g id="Group_56">
<g id="Group_57">
<path id="Vector_29" d="M204.665 233.288C203.999 237.423 204.218 241.923 206.517 245.424C208.816 248.925 213.639 250.971 217.4 249.128C222.236 246.76 222.703 240.119 222.113 234.767C221.741 231.389 221.156 227.871 219.11 225.157C212.282 216.103 205.764 226.456 204.665 233.288Z" fill="#7579FF"/>
</g>
<g id="Group_58">
<path id="Vector_30" d="M172.26 251.249C176.434 259.771 184.559 266.564 193.95 267.922C197.671 268.46 201.692 268.093 204.794 265.968C206.869 264.546 208.38 262.453 209.723 260.326C215.71 250.845 219.181 239.791 219.691 228.59C220.093 219.75 218.042 209.8 210.701 204.859C205.123 201.105 197.904 201.172 191.183 201.375C187.722 201.48 184.129 201.617 181.047 203.197C177.843 204.84 175.59 207.839 173.467 210.75C165.768 221.311 166.535 239.562 172.26 251.249Z" fill="#FFBB8E"/>
</g>
<g id="Group_59">
<g id="Group_60">
<path id="Vector_31" d="M193.036 254.859C195.914 257.562 200.043 258.42 203.724 256.922C204.9 256.443 204.386 254.508 203.192 254.993C200.161 256.227 196.857 255.705 194.45 253.444C193.513 252.564 192.096 253.975 193.036 254.859Z" fill="#E28E60"/>
</g>
</g>
<g id="Group_61">
<path id="Vector_32" d="M188.599 215.329C189.166 216.424 189.185 217.713 189.522 218.898C190.249 221.449 192.603 223.455 195.237 223.767C197.871 224.079 200.629 222.678 201.931 220.367C202.388 219.556 202.699 218.621 203.411 218.021C205.01 216.67 207.515 217.817 208.902 219.385C210.288 220.954 211.175 223.41 213.22 223.861C219.114 225.159 220.466 221.038 221.382 217.232C222.272 219.908 228.464 218.918 230.349 216.82C232.234 214.721 231.935 211.291 230.312 208.985C228.688 206.678 226.053 205.303 223.409 204.32C222.439 203.959 221.424 203.622 220.66 202.925C217.912 200.418 220.244 195.814 219.413 192.188C218.483 188.135 213.065 186.166 209.416 188.162C206.693 189.652 204.954 192.73 202.003 193.695C201.916 193.015 192.427 189.328 192.317 191.867C192.317 191.867 188.266 189.049 181.89 190.654C178.789 191.435 175.916 194.262 175.894 197.46C173.001 196.851 172.424 196.906 169.59 197.747C166.756 198.588 164.188 200.921 163.889 203.862C163.782 204.917 163.962 206 163.716 207.032C163.083 209.697 159.801 210.63 159.01 212.987C157.858 216.418 159.367 219.55 159.847 223.181C160.633 229.124 159.403 234.307 167.017 233.838C172.064 233.527 176.08 236.008 177.784 231.87C178.593 229.904 183.3 205.107 188.599 215.329Z" fill="#1B1C37"/>
</g>
<g id="Group_62">
<path id="Vector_33" d="M156.787 230.442C156.121 234.577 156.669 240.071 158.967 243.573C161.266 247.074 166.089 249.12 169.85 247.277C174.686 244.909 175.153 238.268 174.563 232.916C174.191 229.538 173.607 226.02 171.561 223.307C164.733 214.252 157.886 223.61 156.787 230.442Z" fill="#7579FF"/>
</g>
<g id="Group_63">
<g id="Group_64">
<path id="Vector_34" d="M167.892 223.33C168.035 214.809 169.989 205.14 177.298 199.809C182.446 196.054 192.491 192.393 202.001 193.693C202.001 193.693 199.397 191.283 196.714 190.846C188.937 189.58 181.02 191.82 174.711 196.462C166.353 202.611 163.829 213.478 163.664 223.331C163.619 226.051 167.847 226.052 167.892 223.33Z" fill="#7579FF"/>
</g>
</g>
<g id="Group_65">
<g id="Group_66">
<path id="Vector_35" d="M165.632 240.044C167.313 250.58 176.26 259.879 187.04 260.862C188.321 260.979 188.313 258.978 187.04 258.862C177.104 257.957 169.091 249.104 167.561 239.513C167.359 238.245 165.431 238.783 165.632 240.044Z" fill="#7579FF"/>
</g>
</g>
<g id="Group_67">
<path id="Vector_36" d="M195.113 259.099C195.113 261.695 193.008 263.8 190.412 263.8C187.815 263.8 185.711 261.695 185.711 259.099C185.711 256.503 187.816 254.398 190.412 254.398C193.008 254.398 195.113 256.503 195.113 259.099Z" fill="#7579FF"/>
</g>
<g id="Group_68">
<path id="Vector_37" d="M204.93 243.642C205.175 245.569 206.1 247.419 207.535 248.852C207.968 249.284 208.481 249.764 208.423 250.346C208.323 251.344 206.804 251.525 205.724 251.342C203.528 250.97 201.398 250.276 199.441 249.294C199.268 249.207 199.094 249.117 198.96 248.986C198.736 248.769 198.644 248.465 198.595 248.17C198.305 246.439 199.208 244.755 199.771 243.08C200.405 241.193 200.209 231.856 203.429 232.551C207.051 233.331 204.657 241.496 204.93 243.642Z" fill="#E28E60"/>
</g>
<g id="Group_69">
<path id="Vector_38" d="M158.705 237.087C158.741 239.221 158.969 241.594 160.56 243.017C162.381 244.647 165.673 244.086 166.852 241.947C167.42 240.916 167.515 239.699 167.588 238.524C167.777 235.462 167.888 232.354 167.225 229.358C166.671 226.858 165.16 224.151 162.621 223.827C158.584 223.313 158.664 234.704 158.705 237.087Z" fill="#737AFF"/>
</g>
<g id="Group_70">
<path id="Vector_39" d="M196.278 234.898C196.278 236.572 195.45 237.928 194.428 237.928C193.406 237.928 192.578 236.571 192.578 234.898C192.578 233.224 193.406 231.867 194.428 231.867C195.45 231.867 196.278 233.225 196.278 234.898Z" fill="#241F3F"/>
</g>
<g id="Group_71">
<path id="Vector_40" d="M211.897 238.747C212.919 238.747 213.747 237.391 213.747 235.717C213.747 234.044 212.919 232.688 211.897 232.688C210.875 232.688 210.047 234.044 210.047 235.717C210.047 237.391 210.875 238.747 211.897 238.747Z" fill="#241F3F"/>
</g>
<g id="Group_72">
<g id="Group_73">
<path id="Vector_41" d="M189.507 228.79C191.038 227.226 193.175 226.777 195.223 227.514C196.436 227.951 196.959 226.019 195.755 225.585C193.066 224.617 190.084 225.342 188.094 227.376C187.192 228.297 188.605 229.712 189.507 228.79Z" fill="#241F3F"/>
</g>
</g>
<g id="Group_74">
<g id="Group_75">
<path id="Vector_42" d="M210.817 228.285C212.353 228.435 213.746 229.004 215.003 229.89C216.057 230.633 217.058 228.9 216.012 228.163C214.457 227.067 212.703 226.469 210.817 226.285C209.536 226.16 209.545 228.161 210.817 228.285Z" fill="#241F3F"/>
</g>
</g>
</g>
</g>
</g>
<g id="Group_76">
<g id="Group_77">
<g id="Group_78">
<path id="Vector_43" d="M455.706 445.347H58.0264C53.2394 445.347 49.3594 441.467 49.3594 436.68V435.694C49.3594 430.908 53.2394 427.027 58.0264 427.027H455.706C460.492 427.027 464.373 430.907 464.373 435.694V436.68C464.372 441.467 460.492 445.347 455.706 445.347Z" fill="#B7A5EF"/>
</g>
<g id="Group_79">
<path id="Vector_44" d="M443.538 445.348H70.1875V446.042C70.1875 452.773 75.6445 458.23 82.3755 458.23H431.349C438.08 458.23 443.538 452.773 443.538 446.042V445.348Z" fill="#D2BFFF"/>
</g>
</g>
<g id="Group_80">
<g id="Group_81">
<path id="Vector_45" d="M384.878 388.979H244.791C239.34 388.979 235.092 384.253 235.67 378.833L244.281 298.181C244.779 293.519 248.713 289.982 253.402 289.982H393.489C398.94 289.982 403.188 294.708 402.61 300.128L393.999 380.78C393.501 385.443 389.567 388.979 384.878 388.979Z" fill="#8F93FF"/>
</g>
<g id="Group_82">
<path id="Vector_46" d="M390.167 388.979H250.08C244.629 388.979 240.381 384.253 240.959 378.833L249.569 298.181C250.067 293.519 254.001 289.982 258.69 289.982H398.777C404.228 289.982 408.476 294.708 407.898 300.128L399.287 380.78C398.79 385.443 394.856 388.979 390.167 388.979Z" fill="#595CCA"/>
</g>
<g id="Group_83">
<path id="Vector_47" d="M326.581 347.84H317.341C313.861 347.84 311.039 350.661 311.039 354.142V421.392H332.882V354.142C332.883 350.661 330.061 347.84 326.581 347.84Z" fill="#8F93FF"/>
</g>
<g id="Group_84">
<path id="Vector_48" d="M356.133 421.391H285.672V427.028H356.133V421.391Z" fill="#8F93FF"/>
</g>
<g id="Group_85">
<path id="Vector_49" d="M294.833 421.391H211.898V427.028H294.833V421.391Z" fill="#212245"/>
</g>
<g id="Group_86">
<path id="Vector_50" d="M178.18 414.346H170.338C165.012 414.346 160.695 418.663 160.695 423.989C160.695 425.668 162.056 427.029 163.735 427.029H184.784C186.463 427.029 187.824 425.668 187.824 423.989C187.823 418.663 183.506 414.346 178.18 414.346Z" fill="#7579FF"/>
</g>
</g>
</g>
</g>
</g>
<g id="Ideas">
<g id="thoughts">
<g id="Group_87">
<path id="Vector_51" d="M254.636 163.521C254.109 163.702 253.676 163.84 253.363 163.937C254.61 162.828 255.777 161.293 256.835 159.596C258.024 157.688 259.079 155.566 259.954 153.594L260.019 153.447L259.862 153.42C251.712 151.992 243.547 148.344 238.282 142.126C230.462 132.893 229.639 125.047 230.593 118.52C230.988 115.819 231.687 113.343 232.326 111.081C232.461 110.605 232.592 110.139 232.718 109.681C233.439 107.06 233.965 104.732 233.618 102.716C232.457 95.9552 230.093 91.144 227.928 86.7397C227.074 85.002 226.252 83.3276 225.546 81.6218C224.298 78.6034 223.41 75.4771 223.347 71.7078C223.285 67.9376 224.048 63.5166 226.113 57.9102L225.995 57.867L226.113 57.9102C229.524 48.6451 242.094 40.5215 259.251 44.2252C264.376 45.3323 267.963 44.4716 272.838 43.3017C273.556 43.1293 274.302 42.9502 275.085 42.7698C282.399 41.0847 290.324 42.7976 296.649 46.7991C302.973 50.8004 307.687 57.0823 308.594 64.5241L308.718 64.509L308.594 64.5241C309.207 69.5495 308.226 74.6112 307.244 79.6773C307.168 80.0693 307.092 80.4613 307.017 80.8533C305.971 86.303 305.067 91.7529 306.334 97.1137C306.918 99.5875 307.947 101.931 308.968 104.258C309.072 104.496 309.176 104.733 309.28 104.97C310.401 107.537 311.458 110.101 311.87 112.84C313.19 121.631 312.505 128.634 310.437 134.19C308.37 139.745 304.917 143.86 300.687 146.871C292.224 152.897 280.648 154.506 270.852 154.361L270.8 154.36L270.763 154.396C267.36 157.699 262.868 160.127 259.222 161.731C257.399 162.533 255.79 163.127 254.636 163.521Z" fill="#5F6073" stroke="#EDEEFF" stroke-width="0.25"/>
</g>
<g id="Group_88">
<g id="Group_89">
<path id="Vector_52" d="M254.325 107.171L254.364 107.14L246.452 97.3097L242.341 92.2017C238.715 87.6942 239.427 81.1007 243.934 77.473L243.934 77.473L245.669 76.076C247.51 74.5943 250.204 74.8849 251.685 76.7264L251.685 76.7264L256.967 83.2884C258.449 85.1299 258.159 87.8234 256.317 89.3051L256.317 89.3051L254.726 90.5861C253.771 91.3544 253.62 92.7509 254.388 93.7054L260.94 101.845L260.979 101.814L260.94 101.845L261.721 102.815L268.273 110.955C269.042 111.911 270.438 112.061 271.393 111.293L272.984 110.012C274.825 108.53 277.519 108.822 279 110.662L284.282 117.224C285.764 119.065 285.474 121.758 283.632 123.244L281.897 124.641C277.39 128.268 270.796 127.555 267.168 123.049L263.057 117.941L255.145 108.111L254.364 107.14L254.325 107.171Z" fill="#D2BFFF" stroke="white" stroke-width="0.1"/>
</g>
<g id="Group_90">
<path id="Vector_53" d="M278.188 102.229C278.13 102.229 278.071 102.224 278.012 102.213C277.468 102.117 277.106 101.597 277.202 101.054C277.937 96.9137 277.313 93.5807 275.346 91.1477C271.988 86.9937 265.739 86.7287 265.677 86.7267C265.125 86.7077 264.693 86.2457 264.711 85.6937C264.73 85.1417 265.242 84.7017 265.742 84.7277C266.034 84.7367 272.946 85.0137 276.89 89.8777C279.247 92.7827 280.013 96.6607 279.17 101.403C279.086 101.889 278.664 102.229 278.188 102.229Z" fill="#EDEEFF"/>
</g>
<g id="Group_91">
<path id="Vector_54" d="M284.1 102.241C284.069 102.241 284.037 102.24 284.005 102.237C283.455 102.185 283.051 101.697 283.104 101.148C284.788 83.2899 267.618 81.0779 266.885 80.9929C266.337 80.9289 265.944 80.4329 266.007 79.8849C266.072 79.3369 266.575 78.9469 267.114 79.0059C267.313 79.0289 286.965 81.5089 285.094 101.336C285.046 101.853 284.61 102.241 284.1 102.241Z" fill="#EDEEFF"/>
</g>
<g id="Group_92">
<path id="Vector_55" d="M290.708 100.828C290.158 100.828 289.712 100.385 289.708 99.8335C289.574 79.4175 270.361 74.9555 269.544 74.7755C269.005 74.6565 268.663 74.1235 268.781 73.5845C268.899 73.0455 269.436 72.7055 269.97 72.8215C270.186 72.8685 291.563 77.7845 291.707 99.8215C291.711 100.374 291.266 100.825 290.714 100.828C290.712 100.828 290.71 100.828 290.708 100.828Z" fill="#EDEEFF"/>
</g>
</g>
</g>
<g id="thoughts_2">
<g id="Group_93">
<path id="Vector_56" d="M336.526 165.663C336.552 165.617 336.546 165.56 336.512 165.52C334.497 163.178 332.777 160.58 331.44 157.833L331.327 157.888L331.44 157.833C326.174 147.02 325.892 134.404 327.514 122.461C329.709 106.313 335.401 90.3076 346.017 77.9611C355.413 67.034 370.429 57.8743 385.273 58.0816C392.362 58.1805 398.546 61.4172 404.014 65.8985C409.413 70.3234 414.102 75.9524 418.266 80.9509L418.427 81.1446C426.144 90.4077 434.546 99.6115 445.448 104.83C447.312 105.722 449.252 106.502 451.2 107.263C451.553 107.401 451.906 107.538 452.259 107.676C453.855 108.296 455.448 108.915 457.004 109.586C460.803 111.223 464.365 113.161 467.17 116.146C472.62 121.945 473.977 130.488 473.92 138.485C473.777 158.528 464.626 180.017 446.362 188.175C430.785 195.134 411.838 190.741 398.078 180.609C397.413 180.119 396.752 179.613 396.088 179.106C393.131 176.846 390.132 174.553 386.572 173.477C382.203 172.156 377.761 172.838 373.296 173.895C372.256 174.141 371.216 174.408 370.175 174.674C366.734 175.555 363.285 176.438 359.824 176.604C354.392 176.864 349.142 175.242 344.526 172.395C344.486 172.37 344.435 172.37 344.395 172.395C340.911 174.531 336.444 175.679 332.839 176.291C331.039 176.597 329.456 176.769 328.324 176.865C327.772 176.912 327.327 176.94 327.016 176.957C330.949 174.552 334.275 169.683 336.526 165.663Z" fill="#5F6073" stroke="#EDEEFF" stroke-width="0.25" stroke-linejoin="round"/>
</g>
<g id="Group_94">
<g id="Group_95">
<path id="Vector_57" d="M355.053 151.03L366.039 97.4614L439.79 112.586L428.804 166.154L355.053 151.03Z" fill="#EDEEFF" stroke="white" stroke-width="0.1" stroke-linejoin="round"/>
</g>
<g id="Group_96">
<g id="Group_97">
<path id="Vector_58" d="M371.009 104.281C370.224 104.12 369.718 103.354 369.879 102.569L371.341 95.4404C371.502 94.6554 372.269 94.1505 373.053 94.3113C373.837 94.4721 374.343 95.238 374.182 96.023L372.72 103.152C372.559 103.937 371.793 104.442 371.009 104.281Z" fill="#7579FF" stroke="white" stroke-width="0.1" stroke-linejoin="round"/>
</g>
<g id="Group_98">
<path id="Vector_59" d="M379.798 106.084C379.014 105.923 378.508 105.157 378.669 104.372L380.13 97.2431C380.291 96.4581 381.058 95.9532 381.842 96.114C382.626 96.2748 383.132 97.0407 382.971 97.8257L381.509 104.954C381.348 105.739 380.583 106.245 379.798 106.084Z" fill="#7579FF" stroke="white" stroke-width="0.1" stroke-linejoin="round"/>
</g>
<g id="Group_99">
<path id="Vector_60" d="M388.595 107.886C387.81 107.725 387.304 106.96 387.465 106.175L388.927 99.0459C389.088 98.2608 389.855 97.7559 390.639 97.9167C391.423 98.0775 391.929 98.8434 391.768 99.6285L390.306 106.757C390.145 107.542 389.379 108.047 388.595 107.886Z" fill="#7579FF" stroke="white" stroke-width="0.1" stroke-linejoin="round"/>
</g>
<g id="Group_100">
<path id="Vector_61" d="M397.384 109.689C396.599 109.528 396.093 108.762 396.254 107.977L397.716 100.849C397.877 100.064 398.644 99.5587 399.428 99.7195C400.212 99.8803 400.718 100.646 400.557 101.431L399.095 108.56C398.934 109.345 398.168 109.85 397.384 109.689Z" fill="#7579FF" stroke="white" stroke-width="0.1" stroke-linejoin="round"/>
</g>
<g id="Group_101">
<path id="Vector_62" d="M406.173 111.492C405.389 111.331 404.883 110.565 405.044 109.78L406.505 102.651C406.666 101.866 407.433 101.361 408.217 101.522C409.001 101.683 409.507 102.449 409.346 103.234L407.884 110.363C407.723 111.148 406.957 111.653 406.173 111.492Z" fill="#7579FF" stroke="white" stroke-width="0.1" stroke-linejoin="round"/>
</g>
<g id="Group_102">
<path id="Vector_63" d="M414.97 113.296C414.185 113.136 413.679 112.37 413.84 111.585L415.302 104.456C415.463 103.671 416.23 103.166 417.014 103.327C417.798 103.488 418.304 104.254 418.143 105.039L416.681 112.167C416.52 112.952 415.754 113.457 414.97 113.296Z" fill="#7579FF" stroke="white" stroke-width="0.1" stroke-linejoin="round"/>
</g>
<g id="Group_103">
<path id="Vector_64" d="M423.759 115.099C422.974 114.938 422.468 114.172 422.629 113.387L424.091 106.259C424.252 105.474 425.019 104.969 425.803 105.13C426.587 105.29 427.093 106.056 426.932 106.841L425.47 113.97C425.309 114.755 424.544 115.26 423.759 115.099Z" fill="#7579FF" stroke="white" stroke-width="0.1" stroke-linejoin="round"/>
</g>
<g id="Group_104">
<path id="Vector_65" d="M432.548 116.902C431.764 116.741 431.258 115.975 431.419 115.19L432.88 108.061C433.041 107.276 433.808 106.772 434.592 106.932C435.376 107.093 435.882 107.859 435.721 108.644L434.259 115.773C434.098 116.558 433.332 117.063 432.548 116.902Z" fill="#7579FF" stroke="white" stroke-width="0.1" stroke-linejoin="round"/>
</g>
</g>
<g id="Group_105">
<g id="Group_106">
<path id="Vector_66" d="M383.044 121.445L384.562 114.041L391.966 115.56L390.448 122.964L383.044 121.445Z" fill="#D2BFFF" stroke="white" stroke-width="0.1" stroke-linejoin="round"/>
</g>
<g id="Group_107">
<path id="Vector_67" d="M394.802 123.857L396.32 116.454L403.724 117.972L402.206 125.376L394.802 123.857Z" fill="#D2BFFF" stroke="white" stroke-width="0.1" stroke-linejoin="round"/>
</g>
<g id="Group_108">
<path id="Vector_68" d="M406.567 126.27L408.086 118.866L415.49 120.384L413.971 127.788L406.567 126.27Z" fill="#D2BFFF" stroke="white" stroke-width="0.1" stroke-linejoin="round"/>
</g>
<g id="Group_109">
<path id="Vector_69" d="M418.325 128.682L419.844 121.278L427.248 122.796L425.729 130.2L418.325 128.682Z" fill="#7579FF" stroke="white" stroke-width="0.1" stroke-linejoin="round"/>
</g>
</g>
<g id="Group_110">
<g id="Group_111">
<path id="Vector_70" d="M369.067 129.85L370.586 122.446L377.99 123.964L376.471 131.368L369.067 129.85Z" fill="#7579FF" stroke="white" stroke-width="0.1" stroke-linejoin="round"/>
</g>
<g id="Group_112">
<path id="Vector_71" d="M380.825 132.262L382.344 124.858L389.748 126.376L388.229 133.78L380.825 132.262Z" fill="#D2BFFF" stroke="white" stroke-width="0.1" stroke-linejoin="round"/>
</g>
<g id="Group_113">
<path id="Vector_72" d="M392.591 134.674L394.109 127.27L401.513 128.788L399.995 136.192L392.591 134.674Z" fill="#D2BFFF" stroke="white" stroke-width="0.1" stroke-linejoin="round"/>
</g>
<g id="Group_114">
<path id="Vector_73" d="M404.349 137.086L405.867 129.682L413.271 131.2L411.753 138.604L404.349 137.086Z" fill="#D2BFFF" stroke="white" stroke-width="0.1" stroke-linejoin="round"/>
</g>
<g id="Group_115">
<path id="Vector_74" d="M416.114 139.498L417.633 132.094L425.037 133.613L423.518 141.016L416.114 139.498Z" fill="#7579FF" stroke="white" stroke-width="0.1" stroke-linejoin="round"/>
</g>
</g>
<g id="Group_116">
<g id="Group_117">
<path id="Vector_75" d="M366.849 140.666L368.367 133.262L375.771 134.781L374.253 142.184L366.849 140.666Z" fill="#7579FF" stroke="white" stroke-width="0.1" stroke-linejoin="round"/>
</g>
<g id="Group_118">
<path id="Vector_76" d="M378.606 143.078L380.125 135.674L387.529 137.193L386.01 144.597L378.606 143.078Z" fill="#D2BFFF" stroke="white" stroke-width="0.1" stroke-linejoin="round"/>
</g>
<g id="Group_119">
<path id="Vector_77" d="M390.372 145.49L391.89 138.086L399.294 139.605L397.776 147.009L390.372 145.49Z" fill="#D2BFFF" stroke="white" stroke-width="0.1" stroke-linejoin="round"/>
</g>
<g id="Group_120">
<path id="Vector_78" d="M402.13 147.902L403.648 140.498L411.052 142.017L409.534 149.421L402.13 147.902Z" fill="#D2BFFF" stroke="white" stroke-width="0.1" stroke-linejoin="round"/>
</g>
</g>
</g>
</g>
<g id="thoughts_3">
<g id="Group_121">
<path id="Vector_79" d="M79.6504 179.677C79.6103 179.653 79.5599 179.653 79.5199 179.677C72.1782 184.18 65.8636 187.44 58.3506 187.062C51.8288 186.733 46.3227 185.143 41.6547 181.83C36.9862 178.517 33.145 173.474 29.9668 166.223C24.4927 153.732 22.3478 142.387 27.7746 130.74L27.6613 130.687L27.7746 130.74C31.068 123.671 35.0665 119.295 39.52 116.475C43.9755 113.653 48.8956 112.383 54.0439 111.539C56.0589 111.208 58.1098 110.944 60.1808 110.676C68.6789 109.579 77.5167 108.438 85.6158 102.541C96.0561 94.9397 105.925 92.7212 114.541 94.0351C123.158 95.3493 130.537 100.2 135.989 106.765C141.441 113.331 144.962 121.606 145.864 129.758C146.767 137.909 145.05 145.927 140.043 151.99C136.972 155.709 134.221 157.946 131.505 159.365C128.79 160.785 126.103 161.391 123.153 161.835C122.222 161.976 121.266 162.1 120.274 162.228C114.978 162.915 108.692 163.731 100.08 167.821C96.8168 169.371 93.8337 170.99 91.0515 172.606C91.0055 172.632 90.9814 172.685 90.9916 172.738C91.9272 177.552 93.8619 181.024 95.5644 183.292C96.4156 184.426 97.2086 185.26 97.7897 185.81C98.062 186.068 98.2879 186.264 98.4513 186.4C91.9124 186.245 84.8886 182.876 79.6504 179.677Z" fill="#5F6073" stroke="#EDEEFF" stroke-width="0.25" stroke-linejoin="round"/>
</g>
<g id="Group_122">
<g id="Group_123">
<path id="Vector_80" d="M107.375 116.132L107.423 116.118L107.375 116.132L115.21 143.976C115.546 145.174 115.29 146.386 114.626 147.338C114.117 148.052 113.371 148.609 112.468 148.863L112.482 148.911L112.468 148.863L62.1163 163.031C61.2144 163.285 60.2893 163.211 59.4809 162.855L59.4805 162.855C58.4208 162.402 57.5667 161.488 57.2289 160.291L49.3939 132.447C49.0572 131.249 49.3099 130.023 49.9775 129.084C50.486 128.371 51.2365 127.826 52.1384 127.572L102.49 113.404L102.477 113.356L102.49 113.404C103.392 113.151 104.32 113.237 105.123 113.567C106.186 114.033 107.038 114.933 107.375 116.132Z" fill="#EDEEFF" stroke="white" stroke-width="0.1"/>
</g>
<g id="Group_124">
<path id="Vector_81" d="M90.7475 135.794L90.7169 135.842L90.7677 135.866L114.591 147.385C114.083 148.076 113.35 148.614 112.468 148.862L109.968 149.566L88.5873 139.233L88.5474 139.214L88.5235 139.251L85.3498 144.185C85.3498 144.185 85.3497 144.185 85.3497 144.185C85.0691 144.608 84.67 144.898 84.213 145.027L84.2129 145.027C83.7676 145.153 83.2632 145.116 82.8174 144.898L82.8172 144.898L77.5232 142.346L77.4834 142.327L77.4594 142.364L64.6195 162.323L59.5598 162.84L73.8565 140.625L73.8871 140.578L73.8363 140.553L50.013 129.034C50.5207 128.345 51.2575 127.819 52.139 127.57C52.139 127.57 52.139 127.57 52.139 127.57L54.6388 126.868L82.9157 140.54L82.9556 140.56L82.9795 140.522L99.9903 114.106L102.49 113.402C103.371 113.154 104.277 113.232 105.068 113.543L90.7475 135.794Z" fill="#BDA6F3" stroke="white" stroke-width="0.1"/>
</g>
</g>
</g>
<g id="thoughts_4">
<g id="Group_125">
<path id="Vector_82" d="M209.477 96.9686C207.371 93.4606 203.849 90.5616 203.314 86.5056C203.055 84.5426 203.067 82.4326 203.847 80.6126C208.702 69.2936 205.237 56.5046 195.112 48.9266C187.062 42.9026 176.229 41.4836 167.345 45.5666C153.894 51.7486 146.183 63.6576 152.859 82.7556C154.727 88.0996 157.219 93.4276 157.234 99.0896C157.245 103.459 154.146 114.181 163.398 123.979C168.973 129.883 176.01 132.325 183.333 131.897C184.229 134.593 185.123 139.284 184.125 146.179C184.125 146.179 193.042 138.713 193.741 129.499C215.502 122 212.722 102.373 209.477 96.9686Z" fill="#5F6073"/>
</g>
<g id="Group_126">
<g id="Group_127">
<path id="Vector_83" d="M187.506 106.753L187.506 106.753C187.88 108.661 186.638 110.512 184.73 110.887C182.822 111.262 180.972 110.019 180.597 108.111C180.222 106.204 181.465 104.353 183.373 103.978C185.281 103.603 187.132 104.845 187.506 106.753Z" fill="#B7A5EF" stroke="white" stroke-width="0.1"/>
</g>
<g id="Group_128">
<path id="Vector_84" d="M184.6 82.2471L184.601 82.2465C185.038 81.1954 185.147 80.1082 184.927 78.9888C184.621 77.4333 183.81 76.2071 182.493 75.3128C181.176 74.4177 179.586 74.1548 177.73 74.5193C175.94 74.8711 174.553 75.743 173.574 77.1376C172.984 77.9759 172.576 79.0053 172.347 80.2246C172.05 81.803 170.854 82.9225 169.415 83.001C167.121 83.1259 165.228 80.6352 165.838 78.1624C166.2 76.6968 166.829 75.296 167.725 73.9621C169.606 71.1607 172.451 69.3848 176.264 68.6357C180.276 67.8473 183.696 68.4072 186.528 70.3117C189.363 72.2182 191.087 74.7437 191.704 77.8906C192.047 79.6316 191.936 81.3641 191.373 83.0896C190.81 84.8143 189.365 87.302 187.035 90.5539C185.828 92.2375 185.124 93.5449 184.931 94.473L184.931 94.473C184.844 94.8936 184.824 95.4397 184.871 96.1115C184.993 97.8519 183.93 99.3581 182.425 99.6538C180.599 100.013 178.803 98.4914 178.617 96.3797L178.617 96.3797C178.548 95.6014 178.495 94.8174 178.48 94.1391C178.465 93.4592 178.489 92.8904 178.572 92.5398C178.956 90.9101 179.981 88.955 181.655 86.6745L181.615 86.6449L181.655 86.6745C182.493 85.5323 183.157 84.5925 183.648 83.8554C184.137 83.1192 184.456 82.5824 184.6 82.2471Z" fill="#B7A5EF" stroke="white" stroke-width="0.1"/>
</g>
</g>
</g>
</g>
</g>
</g>
</g>
<defs>
<clipPath id="clip0_236_2">
<rect width="500" height="500" fill="white"/>
</clipPath>
</defs>
</svg>
