<svg width="512" height="512" viewBox="0 0 512 512" fill="none" xmlns="http://www.w3.org/2000/svg">
<g clip-path="url(#clip0_227_86)">
<path d="M256 512C397.385 512 512 397.385 512 256C512 114.615 397.385 0 256 0C114.615 0 0 114.615 0 256C0 397.385 114.615 512 256 512Z" fill="#EDEEFF"/>
<path d="M76 304V128.364C76 123.364 79.22 120 84 120H412C416.784 120 420 123.36 420 128.364V304H76Z" fill="#1B1C37"/>
<path d="M76 304V336C76 340.78 79.22 344 84 344H412C416.784 344 420 340.78 420 336V304H76Z" fill="#1B1C37"/>
<path d="M404 140H92V288H404V140Z" fill="#7579FF"/>
<path d="M292 344H204V380H292V344Z" fill="#1B1C37"/>
<path d="M320 388C320 383.6 316.4 380 312 380H184C179.6 380 176 383.6 176 388C176 392.4 179.6 396 184 396H312C316.4 396 320 392.4 320 388Z" fill="#1B1C37"/>
<path d="M248 332C252.418 332 256 328.418 256 324C256 319.582 252.418 316 248 316C243.582 316 240 319.582 240 324C240 328.418 243.582 332 248 332Z" fill="#5F6073"/>
</g>
<defs>
<clipPath id="clip0_227_86">
<rect width="512" height="512" fill="white"/>
</clipPath>
</defs>
</svg>
