<svg width="43" height="38" viewBox="0 0 43 38" fill="none" xmlns="http://www.w3.org/2000/svg">
<path fill-rule="evenodd" clip-rule="evenodd" d="M27.4417 34.9846C29.004 35.1439 30.5481 35.3152 32.1142 35.4288C32.4511 35.4545 32.7423 35.2035 32.7667 34.8687C32.7924 34.5319 32.5393 34.2394 32.2046 34.215C30.6472 34.1007 29.1161 33.9313 27.5647 33.7727C27.2294 33.7395 26.9308 33.9835 26.8967 34.3155C26.8635 34.6508 27.1064 34.9514 27.4417 34.9846Z" fill="white"/>
<path fill-rule="evenodd" clip-rule="evenodd" d="M22.1308 23.1323C26.1853 20.2712 30.0926 17.207 34.0834 14.2614C34.3542 14.0604 34.4109 13.6796 34.212 13.41C34.011 13.1392 33.6314 13.0805 33.3586 13.2802C29.3757 16.222 25.4763 19.2823 21.4288 22.1361C21.1529 22.3314 21.0886 22.7106 21.2817 22.9853C21.4769 23.2612 21.8562 23.3254 22.1308 23.1323Z" fill="white"/>
<path fill-rule="evenodd" clip-rule="evenodd" d="M7.2554 13.1935C8.75035 9.27394 10.1379 5.30641 11.6766 1.40362C11.798 1.09107 11.6445 0.738068 11.3332 0.614591C11.0198 0.489895 10.6655 0.645449 10.5421 0.956776C9.00304 4.86501 7.61303 8.83677 6.11777 12.7618C5.99851 13.0756 6.15526 13.4277 6.46902 13.547C6.7849 13.6675 7.13493 13.5094 7.2554 13.1935Z" fill="white"/>
</svg>
