<svg width="1383" height="793" viewBox="0 0 1383 793" fill="none" xmlns="http://www.w3.org/2000/svg">
<g filter="url(#filter0_d_16_221)">
<rect x="88.0002" y="317" width="1198.96" height="363" rx="60" fill="white" shape-rendering="crispEdges"/>
<path d="M225.924 614L220.38 604.208H218.004V614H212.964V588.872H222.396C224.34 588.872 225.996 589.22 227.364 589.916C228.732 590.588 229.752 591.512 230.424 592.688C231.12 593.84 231.468 595.136 231.468 596.576C231.468 598.232 230.988 599.732 230.028 601.076C229.068 602.396 227.64 603.308 225.744 603.812L231.756 614H225.924ZM218.004 600.428H222.216C223.584 600.428 224.604 600.104 225.276 599.456C225.948 598.784 226.284 597.86 226.284 596.684C226.284 595.532 225.948 594.644 225.276 594.02C224.604 593.372 223.584 593.048 222.216 593.048H218.004V600.428ZM254.567 603.596C254.567 604.316 254.519 604.964 254.423 605.54H239.843C239.963 606.98 240.467 608.108 241.355 608.924C242.243 609.74 243.335 610.148 244.631 610.148C246.503 610.148 247.835 609.344 248.627 607.736H254.063C253.487 609.656 252.383 611.24 250.751 612.488C249.119 613.712 247.115 614.324 244.739 614.324C242.819 614.324 241.091 613.904 239.555 613.064C238.043 612.2 236.855 610.988 235.991 609.428C235.151 607.868 234.731 606.068 234.731 604.028C234.731 601.964 235.151 600.152 235.991 598.592C236.831 597.032 238.007 595.832 239.519 594.992C241.031 594.152 242.771 593.732 244.739 593.732C246.635 593.732 248.327 594.14 249.815 594.956C251.327 595.772 252.491 596.936 253.307 598.448C254.147 599.936 254.567 601.652 254.567 603.596ZM249.347 602.156C249.323 600.86 248.855 599.828 247.943 599.06C247.031 598.268 245.915 597.872 244.595 597.872C243.347 597.872 242.291 598.256 241.427 599.024C240.587 599.768 240.071 600.812 239.879 602.156H249.347ZM265.877 614.324C264.245 614.324 262.781 614.036 261.485 613.46C260.189 612.86 259.157 612.056 258.389 611.048C257.645 610.04 257.237 608.924 257.165 607.7H262.241C262.337 608.468 262.709 609.104 263.357 609.608C264.029 610.112 264.857 610.364 265.841 610.364C266.801 610.364 267.545 610.172 268.073 609.788C268.625 609.404 268.901 608.912 268.901 608.312C268.901 607.664 268.565 607.184 267.893 606.872C267.245 606.536 266.201 606.176 264.761 605.792C263.273 605.432 262.049 605.06 261.089 604.676C260.153 604.292 259.337 603.704 258.641 602.912C257.969 602.12 257.633 601.052 257.633 599.708C257.633 598.604 257.945 597.596 258.569 596.684C259.217 595.772 260.129 595.052 261.305 594.524C262.505 593.996 263.909 593.732 265.517 593.732C267.893 593.732 269.789 594.332 271.205 595.532C272.621 596.708 273.401 598.304 273.545 600.32H268.721C268.649 599.528 268.313 598.904 267.713 598.448C267.137 597.968 266.357 597.728 265.373 597.728C264.461 597.728 263.753 597.896 263.249 598.232C262.769 598.568 262.529 599.036 262.529 599.636C262.529 600.308 262.865 600.824 263.537 601.184C264.209 601.52 265.253 601.868 266.669 602.228C268.109 602.588 269.297 602.96 270.233 603.344C271.169 603.728 271.973 604.328 272.645 605.144C273.341 605.936 273.701 606.992 273.725 608.312C273.725 609.464 273.401 610.496 272.753 611.408C272.129 612.32 271.217 613.04 270.017 613.568C268.841 614.072 267.461 614.324 265.877 614.324ZM282.903 596.936C283.551 596.024 284.439 595.268 285.567 594.668C286.719 594.044 288.027 593.732 289.491 593.732C291.195 593.732 292.731 594.152 294.099 594.992C295.491 595.832 296.583 597.032 297.375 598.592C298.191 600.128 298.599 601.916 298.599 603.956C298.599 605.996 298.191 607.808 297.375 609.392C296.583 610.952 295.491 612.164 294.099 613.028C292.731 613.892 291.195 614.324 289.491 614.324C288.027 614.324 286.731 614.024 285.603 613.424C284.499 612.824 283.599 612.068 282.903 611.156V623.504H277.863V594.056H282.903V596.936ZM293.451 603.956C293.451 602.756 293.199 601.724 292.695 600.86C292.215 599.972 291.567 599.3 290.751 598.844C289.959 598.388 289.095 598.16 288.159 598.16C287.247 598.16 286.383 598.4 285.567 598.88C284.775 599.336 284.127 600.008 283.623 600.896C283.143 601.784 282.903 602.828 282.903 604.028C282.903 605.228 283.143 606.272 283.623 607.16C284.127 608.048 284.775 608.732 285.567 609.212C286.383 609.668 287.247 609.896 288.159 609.896C289.095 609.896 289.959 609.656 290.751 609.176C291.567 608.696 292.215 608.012 292.695 607.124C293.199 606.236 293.451 605.18 293.451 603.956ZM311.117 614.324C309.197 614.324 307.469 613.904 305.933 613.064C304.397 612.2 303.185 610.988 302.297 609.428C301.433 607.868 301.001 606.068 301.001 604.028C301.001 601.988 301.445 600.188 302.333 598.628C303.245 597.068 304.481 595.868 306.041 595.028C307.601 594.164 309.341 593.732 311.261 593.732C313.181 593.732 314.921 594.164 316.481 595.028C318.041 595.868 319.265 597.068 320.153 598.628C321.065 600.188 321.521 601.988 321.521 604.028C321.521 606.068 321.053 607.868 320.117 609.428C319.205 610.988 317.957 612.2 316.373 613.064C314.813 613.904 313.061 614.324 311.117 614.324ZM311.117 609.932C312.029 609.932 312.881 609.716 313.673 609.284C314.489 608.828 315.137 608.156 315.617 607.268C316.097 606.38 316.337 605.3 316.337 604.028C316.337 602.132 315.833 600.68 314.825 599.672C313.841 598.64 312.629 598.124 311.189 598.124C309.749 598.124 308.537 598.64 307.553 599.672C306.593 600.68 306.113 602.132 306.113 604.028C306.113 605.924 306.581 607.388 307.517 608.42C308.477 609.428 309.677 609.932 311.117 609.932ZM336.27 593.768C338.646 593.768 340.566 594.524 342.03 596.036C343.494 597.524 344.226 599.612 344.226 602.3V614H339.186V602.984C339.186 601.4 338.79 600.188 337.998 599.348C337.206 598.484 336.126 598.052 334.758 598.052C333.366 598.052 332.262 598.484 331.446 599.348C330.654 600.188 330.258 601.4 330.258 602.984V614H325.218V594.056H330.258V596.54C330.93 595.676 331.782 595.004 332.814 594.524C333.87 594.02 335.022 593.768 336.27 593.768ZM356.651 614.324C355.019 614.324 353.555 614.036 352.259 613.46C350.963 612.86 349.931 612.056 349.163 611.048C348.419 610.04 348.011 608.924 347.939 607.7H353.015C353.111 608.468 353.483 609.104 354.131 609.608C354.803 610.112 355.631 610.364 356.615 610.364C357.575 610.364 358.319 610.172 358.847 609.788C359.399 609.404 359.675 608.912 359.675 608.312C359.675 607.664 359.339 607.184 358.667 606.872C358.019 606.536 356.975 606.176 355.535 605.792C354.047 605.432 352.823 605.06 351.863 604.676C350.927 604.292 350.111 603.704 349.415 602.912C348.743 602.12 348.407 601.052 348.407 599.708C348.407 598.604 348.719 597.596 349.343 596.684C349.991 595.772 350.903 595.052 352.079 594.524C353.279 593.996 354.683 593.732 356.291 593.732C358.667 593.732 360.563 594.332 361.979 595.532C363.395 596.708 364.175 598.304 364.319 600.32H359.495C359.423 599.528 359.087 598.904 358.487 598.448C357.911 597.968 357.131 597.728 356.147 597.728C355.235 597.728 354.527 597.896 354.023 598.232C353.543 598.568 353.303 599.036 353.303 599.636C353.303 600.308 353.639 600.824 354.311 601.184C354.983 601.52 356.027 601.868 357.443 602.228C358.883 602.588 360.071 602.96 361.007 603.344C361.943 603.728 362.747 604.328 363.419 605.144C364.115 605.936 364.475 606.992 364.499 608.312C364.499 609.464 364.175 610.496 363.527 611.408C362.903 612.32 361.991 613.04 360.791 613.568C359.615 614.072 358.235 614.324 356.651 614.324ZM371.192 591.68C370.304 591.68 369.56 591.404 368.96 590.852C368.384 590.276 368.096 589.568 368.096 588.728C368.096 587.888 368.384 587.192 368.96 586.64C369.56 586.064 370.304 585.776 371.192 585.776C372.08 585.776 372.812 586.064 373.388 586.64C373.988 587.192 374.288 587.888 374.288 588.728C374.288 589.568 373.988 590.276 373.388 590.852C372.812 591.404 372.08 591.68 371.192 591.68ZM373.676 594.056V614H368.636V594.056H373.676ZM383.696 596.972C384.344 596.012 385.232 595.232 386.36 594.632C387.512 594.032 388.82 593.732 390.284 593.732C391.988 593.732 393.524 594.152 394.892 594.992C396.284 595.832 397.376 597.032 398.168 598.592C398.984 600.128 399.392 601.916 399.392 603.956C399.392 605.996 398.984 607.808 398.168 609.392C397.376 610.952 396.284 612.164 394.892 613.028C393.524 613.892 391.988 614.324 390.284 614.324C388.796 614.324 387.488 614.036 386.36 613.46C385.256 612.86 384.368 612.092 383.696 611.156V614H378.656V587.36H383.696V596.972ZM394.244 603.956C394.244 602.756 393.992 601.724 393.488 600.86C393.008 599.972 392.36 599.3 391.544 598.844C390.752 598.388 389.888 598.16 388.952 598.16C388.04 598.16 387.176 598.4 386.36 598.88C385.568 599.336 384.92 600.008 384.416 600.896C383.936 601.784 383.696 602.828 383.696 604.028C383.696 605.228 383.936 606.272 384.416 607.16C384.92 608.048 385.568 608.732 386.36 609.212C387.176 609.668 388.04 609.896 388.952 609.896C389.888 609.896 390.752 609.656 391.544 609.176C392.36 608.696 393.008 608.012 393.488 607.124C393.992 606.236 394.244 605.18 394.244 603.956ZM405.61 591.68C404.722 591.68 403.978 591.404 403.378 590.852C402.802 590.276 402.514 589.568 402.514 588.728C402.514 587.888 402.802 587.192 403.378 586.64C403.978 586.064 404.722 585.776 405.61 585.776C406.498 585.776 407.23 586.064 407.806 586.64C408.406 587.192 408.706 587.888 408.706 588.728C408.706 589.568 408.406 590.276 407.806 590.852C407.23 591.404 406.498 591.68 405.61 591.68ZM408.094 594.056V614H403.054V594.056H408.094ZM418.113 587.36V614H413.073V587.36H418.113ZM425.649 591.68C424.761 591.68 424.017 591.404 423.417 590.852C422.841 590.276 422.553 589.568 422.553 588.728C422.553 587.888 422.841 587.192 423.417 586.64C424.017 586.064 424.761 585.776 425.649 585.776C426.537 585.776 427.269 586.064 427.845 586.64C428.445 587.192 428.745 587.888 428.745 588.728C428.745 589.568 428.445 590.276 427.845 590.852C427.269 591.404 426.537 591.68 425.649 591.68ZM428.133 594.056V614H423.093V594.056H428.133ZM438.981 598.196V607.844C438.981 608.516 439.137 609.008 439.449 609.32C439.785 609.608 440.337 609.752 441.105 609.752H443.445V614H440.277C436.029 614 433.905 611.936 433.905 607.808V598.196H431.529V594.056H433.905V589.124H438.981V594.056H443.445V598.196H438.981ZM466.15 594.056L453.802 623.432H448.438L452.758 613.496L444.766 594.056H450.418L455.566 607.988L460.786 594.056H466.15Z" fill="#5F6073"/>
<path d="M261.208 514.456V504.28H278.936V551H267.544V514.456H261.208ZM286.423 527C286.423 519.661 287.831 513.88 290.647 509.656C293.505 505.432 298.092 503.32 304.407 503.32C310.721 503.32 315.287 505.432 318.103 509.656C320.961 513.88 322.391 519.661 322.391 527C322.391 534.424 320.961 540.248 318.103 544.472C315.287 548.696 310.721 550.808 304.407 550.808C298.092 550.808 293.505 548.696 290.647 544.472C287.831 540.248 286.423 534.424 286.423 527ZM311.639 527C311.639 522.691 311.169 519.384 310.231 517.08C309.292 514.733 307.351 513.56 304.407 513.56C301.463 513.56 299.521 514.733 298.583 517.08C297.644 519.384 297.175 522.691 297.175 527C297.175 529.901 297.345 532.312 297.687 534.232C298.028 536.109 298.711 537.645 299.735 538.84C300.801 539.992 302.359 540.568 304.407 540.568C306.455 540.568 307.991 539.992 309.015 538.84C310.081 537.645 310.785 536.109 311.127 534.232C311.468 532.312 311.639 529.901 311.639 527ZM328.173 527C328.173 519.661 329.581 513.88 332.397 509.656C335.255 505.432 339.842 503.32 346.157 503.32C352.471 503.32 357.037 505.432 359.853 509.656C362.711 513.88 364.141 519.661 364.141 527C364.141 534.424 362.711 540.248 359.853 544.472C357.037 548.696 352.471 550.808 346.157 550.808C339.842 550.808 335.255 548.696 332.397 544.472C329.581 540.248 328.173 534.424 328.173 527ZM353.389 527C353.389 522.691 352.919 519.384 351.981 517.08C351.042 514.733 349.101 513.56 346.157 513.56C343.213 513.56 341.271 514.733 340.333 517.08C339.394 519.384 338.925 522.691 338.925 527C338.925 529.901 339.095 532.312 339.437 534.232C339.778 536.109 340.461 537.645 341.485 538.84C342.551 539.992 344.109 540.568 346.157 540.568C348.205 540.568 349.741 539.992 350.765 538.84C351.831 537.645 352.535 536.109 352.877 534.232C353.218 532.312 353.389 529.901 353.389 527ZM369.027 516.056C369.027 512.6 370.008 509.933 371.971 508.056C373.976 506.179 376.557 505.24 379.715 505.24C382.872 505.24 385.432 506.179 387.395 508.056C389.357 509.933 390.339 512.6 390.339 516.056C390.339 519.512 389.357 522.179 387.395 524.056C385.432 525.933 382.872 526.872 379.715 526.872C376.557 526.872 373.976 525.933 371.971 524.056C370.008 522.179 369.027 519.512 369.027 516.056ZM412.483 505.944L387.843 551H377.283L401.923 505.944H412.483ZM379.651 511.64C377.603 511.64 376.579 513.112 376.579 516.056C376.579 518.957 377.603 520.408 379.651 520.408C380.632 520.408 381.4 520.045 381.955 519.32C382.509 518.595 382.787 517.507 382.787 516.056C382.787 513.112 381.741 511.64 379.651 511.64ZM399.491 540.888C399.491 537.432 400.472 534.765 402.435 532.888C404.397 531.011 406.957 530.072 410.115 530.072C413.272 530.072 415.832 531.011 417.795 532.888C419.757 534.765 420.739 537.432 420.739 540.888C420.739 544.344 419.757 547.011 417.795 548.888C415.832 550.765 413.272 551.704 410.115 551.704C406.957 551.704 404.397 550.765 402.435 548.888C400.472 547.011 399.491 544.344 399.491 540.888ZM410.051 536.472C409.069 536.472 408.301 536.835 407.747 537.56C407.235 538.285 406.979 539.395 406.979 540.888C406.979 543.789 408.003 545.24 410.051 545.24C411.032 545.24 411.8 544.877 412.355 544.152C412.909 543.427 413.187 542.339 413.187 540.888C413.187 539.437 412.909 538.349 412.355 537.624C411.8 536.856 411.032 536.472 410.051 536.472Z" fill="#1B1C37"/>
<path opacity="0.4" d="M365.147 372H311.813C304.436 372 298.48 377.911 298.48 385.2V433.689C298.48 440.978 304.436 446.889 311.813 446.889H315.191C318.747 446.889 322.125 448.267 324.613 450.756L332.213 458.267C335.68 461.689 341.325 461.689 344.791 458.267L352.391 450.756C354.88 448.267 358.302 446.889 361.813 446.889H365.147C372.525 446.889 378.48 440.978 378.48 433.689V385.2C378.48 377.911 372.525 372 365.147 372Z" fill="url(#paint0_linear_16_221)"/>
<path d="M383.959 447.811L375.847 449.728C374.028 450.171 372.602 451.547 372.208 453.367L370.488 460.594C369.553 464.527 364.538 465.757 361.933 462.659L347.232 445.746C346.052 444.369 346.691 442.206 348.461 441.763C357.163 439.649 364.981 434.782 370.733 427.849C371.668 426.718 373.339 426.571 374.372 427.603L385.287 438.518C389.023 442.255 387.696 446.926 383.959 447.811Z" fill="url(#paint1_linear_16_221)"/>
<path d="M292.755 447.811L300.868 449.728C302.687 450.171 304.113 451.547 304.506 453.367L306.227 460.594C307.161 464.527 312.176 465.757 314.782 462.659L329.483 445.746C330.663 444.369 330.024 442.206 328.254 441.763C319.551 439.649 311.734 434.782 305.981 427.849C305.047 426.718 303.375 426.571 302.343 427.603L291.428 438.518C287.691 442.255 289.019 446.926 292.755 447.811Z" fill="url(#paint2_linear_16_221)"/>
<path d="M338.48 366.833C319.453 366.833 304.063 382.222 304.063 401.25C304.063 408.379 306.178 414.918 309.816 420.376C315.126 428.242 323.533 433.798 333.318 435.224C334.989 435.519 336.71 435.667 338.48 435.667C340.25 435.667 341.971 435.519 343.643 435.224C353.427 433.798 361.834 428.242 367.144 420.376C370.783 414.918 372.897 408.379 372.897 401.25C372.897 382.222 357.508 366.833 338.48 366.833ZM353.525 400.168L349.444 404.249C348.756 404.937 348.363 406.265 348.608 407.248L349.788 412.312C350.723 416.295 348.608 417.868 345.068 415.754L340.152 412.853C339.267 412.312 337.792 412.312 336.907 412.853L331.99 415.754C328.45 417.819 326.336 416.295 327.27 412.312L328.45 407.248C328.647 406.314 328.303 404.937 327.614 404.249L323.435 400.168C321.026 397.759 321.813 395.35 325.156 394.809L330.417 393.924C331.302 393.777 332.334 392.99 332.728 392.203L335.628 386.402C337.202 383.255 339.758 383.255 341.332 386.402L344.233 392.203C344.626 392.99 345.658 393.777 346.593 393.924L351.853 394.809C355.148 395.35 355.934 397.759 353.525 400.168Z" fill="url(#paint3_linear_16_221)"/>
<path d="M997.288 596.648C997.288 597.992 996.964 599.252 996.316 600.428C995.692 601.604 994.696 602.552 993.328 603.272C991.984 603.992 990.28 604.352 988.216 604.352H984.004V614H978.964V588.872H988.216C990.16 588.872 991.816 589.208 993.184 589.88C994.552 590.552 995.572 591.476 996.244 592.652C996.94 593.828 997.288 595.16 997.288 596.648ZM988 600.284C989.392 600.284 990.424 599.972 991.096 599.348C991.768 598.7 992.104 597.8 992.104 596.648C992.104 594.2 990.736 592.976 988 592.976H984.004V600.284H988ZM1019.69 594.056V614H1014.62V611.48C1013.97 612.344 1013.12 613.028 1012.06 613.532C1011.03 614.012 1009.9 614.252 1008.68 614.252C1007.12 614.252 1005.74 613.928 1004.54 613.28C1003.34 612.608 1002.39 611.636 1001.69 610.364C1001.02 609.068 1000.69 607.532 1000.69 605.756V594.056H1005.73V605.036C1005.73 606.62 1006.12 607.844 1006.91 608.708C1007.71 609.548 1008.79 609.968 1010.15 609.968C1011.55 609.968 1012.64 609.548 1013.43 608.708C1014.22 607.844 1014.62 606.62 1014.62 605.036V594.056H1019.69ZM1035.72 593.768C1038.1 593.768 1040.02 594.524 1041.48 596.036C1042.94 597.524 1043.68 599.612 1043.68 602.3V614H1038.64V602.984C1038.64 601.4 1038.24 600.188 1037.45 599.348C1036.66 598.484 1035.58 598.052 1034.21 598.052C1032.82 598.052 1031.71 598.484 1030.9 599.348C1030.1 600.188 1029.71 601.4 1029.71 602.984V614H1024.67V594.056H1029.71V596.54C1030.38 595.676 1031.23 595.004 1032.26 594.524C1033.32 594.02 1034.47 593.768 1035.72 593.768ZM1054.34 598.196V607.844C1054.34 608.516 1054.49 609.008 1054.8 609.32C1055.14 609.608 1055.69 609.752 1056.46 609.752H1058.8V614H1055.63C1051.38 614 1049.26 611.936 1049.26 607.808V598.196H1046.88V594.056H1049.26V589.124H1054.34V594.056H1058.8V598.196H1054.34ZM1081.25 594.056V614H1076.18V611.48C1075.53 612.344 1074.68 613.028 1073.62 613.532C1072.59 614.012 1071.46 614.252 1070.24 614.252C1068.68 614.252 1067.3 613.928 1066.1 613.28C1064.9 612.608 1063.95 611.636 1063.25 610.364C1062.58 609.068 1062.25 607.532 1062.25 605.756V594.056H1067.29V605.036C1067.29 606.62 1067.68 607.844 1068.47 608.708C1069.27 609.548 1070.35 609.968 1071.71 609.968C1073.11 609.968 1074.2 609.548 1074.99 608.708C1075.78 607.844 1076.18 606.62 1076.18 605.036V594.056H1081.25ZM1084.93 603.956C1084.93 601.94 1085.33 600.152 1086.12 598.592C1086.93 597.032 1088.03 595.832 1089.39 594.992C1090.79 594.152 1092.33 593.732 1094.04 593.732C1095.53 593.732 1096.82 594.032 1097.93 594.632C1099.05 595.232 1099.95 595.988 1100.63 596.9V594.056H1105.7V614H1100.63V611.084C1099.98 612.02 1099.08 612.8 1097.93 613.424C1096.8 614.024 1095.49 614.324 1094 614.324C1092.32 614.324 1090.79 613.892 1089.39 613.028C1088.03 612.164 1086.93 610.952 1086.12 609.392C1085.33 607.808 1084.93 605.996 1084.93 603.956ZM1100.63 604.028C1100.63 602.804 1100.39 601.76 1099.91 600.896C1099.43 600.008 1098.78 599.336 1097.96 598.88C1097.15 598.4 1096.27 598.16 1095.33 598.16C1094.4 598.16 1093.53 598.388 1092.74 598.844C1091.95 599.3 1091.3 599.972 1090.8 600.86C1090.32 601.724 1090.08 602.756 1090.08 603.956C1090.08 605.156 1090.32 606.212 1090.8 607.124C1091.3 608.012 1091.95 608.696 1092.74 609.176C1093.56 609.656 1094.42 609.896 1095.33 609.896C1096.27 609.896 1097.15 609.668 1097.96 609.212C1098.78 608.732 1099.43 608.06 1099.91 607.196C1100.39 606.308 1100.63 605.252 1100.63 604.028ZM1115.66 587.36V614H1110.62V587.36H1115.66ZM1123.2 591.68C1122.31 591.68 1121.57 591.404 1120.97 590.852C1120.39 590.276 1120.1 589.568 1120.1 588.728C1120.1 587.888 1120.39 587.192 1120.97 586.64C1121.57 586.064 1122.31 585.776 1123.2 585.776C1124.09 585.776 1124.82 586.064 1125.4 586.64C1126 587.192 1126.3 587.888 1126.3 588.728C1126.3 589.568 1126 590.276 1125.4 590.852C1124.82 591.404 1124.09 591.68 1123.2 591.68ZM1125.68 594.056V614H1120.64V594.056H1125.68ZM1136.53 598.196V607.844C1136.53 608.516 1136.69 609.008 1137 609.32C1137.34 609.608 1137.89 609.752 1138.66 609.752H1141V614H1137.83C1133.58 614 1131.46 611.936 1131.46 607.808V598.196H1129.08V594.056H1131.46V589.124H1136.53V594.056H1141V598.196H1136.53ZM1163.7 594.056L1151.35 623.432H1145.99L1150.31 613.496L1142.32 594.056H1147.97L1153.12 607.988L1158.34 594.056H1163.7Z" fill="#5F6073"/>
<path d="M993.208 514.456V504.28H1010.94V551H999.544V514.456H993.208ZM1018.42 527C1018.42 519.661 1019.83 513.88 1022.65 509.656C1025.51 505.432 1030.09 503.32 1036.41 503.32C1042.72 503.32 1047.29 505.432 1050.1 509.656C1052.96 513.88 1054.39 519.661 1054.39 527C1054.39 534.424 1052.96 540.248 1050.1 544.472C1047.29 548.696 1042.72 550.808 1036.41 550.808C1030.09 550.808 1025.51 548.696 1022.65 544.472C1019.83 540.248 1018.42 534.424 1018.42 527ZM1043.64 527C1043.64 522.691 1043.17 519.384 1042.23 517.08C1041.29 514.733 1039.35 513.56 1036.41 513.56C1033.46 513.56 1031.52 514.733 1030.58 517.08C1029.64 519.384 1029.17 522.691 1029.17 527C1029.17 529.901 1029.35 532.312 1029.69 534.232C1030.03 536.109 1030.71 537.645 1031.73 538.84C1032.8 539.992 1034.36 540.568 1036.41 540.568C1038.45 540.568 1039.99 539.992 1041.01 538.84C1042.08 537.645 1042.79 536.109 1043.13 534.232C1043.47 532.312 1043.64 529.901 1043.64 527ZM1060.17 527C1060.17 519.661 1061.58 513.88 1064.4 509.656C1067.26 505.432 1071.84 503.32 1078.16 503.32C1084.47 503.32 1089.04 505.432 1091.85 509.656C1094.71 513.88 1096.14 519.661 1096.14 527C1096.14 534.424 1094.71 540.248 1091.85 544.472C1089.04 548.696 1084.47 550.808 1078.16 550.808C1071.84 550.808 1067.26 548.696 1064.4 544.472C1061.58 540.248 1060.17 534.424 1060.17 527ZM1085.39 527C1085.39 522.691 1084.92 519.384 1083.98 517.08C1083.04 514.733 1081.1 513.56 1078.16 513.56C1075.21 513.56 1073.27 514.733 1072.33 517.08C1071.39 519.384 1070.92 522.691 1070.92 527C1070.92 529.901 1071.1 532.312 1071.44 534.232C1071.78 536.109 1072.46 537.645 1073.48 538.84C1074.55 539.992 1076.11 540.568 1078.16 540.568C1080.2 540.568 1081.74 539.992 1082.76 538.84C1083.83 537.645 1084.54 536.109 1084.88 534.232C1085.22 532.312 1085.39 529.901 1085.39 527ZM1101.03 516.056C1101.03 512.6 1102.01 509.933 1103.97 508.056C1105.98 506.179 1108.56 505.24 1111.71 505.24C1114.87 505.24 1117.43 506.179 1119.39 508.056C1121.36 509.933 1122.34 512.6 1122.34 516.056C1122.34 519.512 1121.36 522.179 1119.39 524.056C1117.43 525.933 1114.87 526.872 1111.71 526.872C1108.56 526.872 1105.98 525.933 1103.97 524.056C1102.01 522.179 1101.03 519.512 1101.03 516.056ZM1144.48 505.944L1119.84 551H1109.28L1133.92 505.944H1144.48ZM1111.65 511.64C1109.6 511.64 1108.58 513.112 1108.58 516.056C1108.58 518.957 1109.6 520.408 1111.65 520.408C1112.63 520.408 1113.4 520.045 1113.95 519.32C1114.51 518.595 1114.79 517.507 1114.79 516.056C1114.79 513.112 1113.74 511.64 1111.65 511.64ZM1131.49 540.888C1131.49 537.432 1132.47 534.765 1134.43 532.888C1136.4 531.011 1138.96 530.072 1142.11 530.072C1145.27 530.072 1147.83 531.011 1149.79 532.888C1151.76 534.765 1152.74 537.432 1152.74 540.888C1152.74 544.344 1151.76 547.011 1149.79 548.888C1147.83 550.765 1145.27 551.704 1142.11 551.704C1138.96 551.704 1136.4 550.765 1134.43 548.888C1132.47 547.011 1131.49 544.344 1131.49 540.888ZM1142.05 536.472C1141.07 536.472 1140.3 536.835 1139.75 537.56C1139.23 538.285 1138.98 539.395 1138.98 540.888C1138.98 543.789 1140 545.24 1142.05 545.24C1143.03 545.24 1143.8 544.877 1144.35 544.152C1144.91 543.427 1145.19 542.339 1145.19 540.888C1145.19 539.437 1144.91 538.349 1144.35 537.624C1143.8 536.856 1143.03 536.472 1142.05 536.472Z" fill="#1B1C37"/>
<path opacity="0.4" d="M1097.15 372H1043.81C1036.44 372 1030.48 377.911 1030.48 385.2V433.689C1030.48 440.978 1036.44 446.889 1043.81 446.889H1047.19C1050.75 446.889 1054.12 448.267 1056.61 450.756L1064.21 458.267C1067.68 461.689 1073.32 461.689 1076.79 458.267L1084.39 450.756C1086.88 448.267 1090.3 446.889 1093.81 446.889H1097.15C1104.52 446.889 1110.48 440.978 1110.48 433.689V385.2C1110.48 377.911 1104.52 372 1097.15 372Z" fill="url(#paint4_linear_16_221)"/>
<path d="M1093.83 374.503V366.833C1093.83 364.817 1092.16 363.146 1090.15 363.146C1088.13 363.146 1086.46 364.817 1086.46 366.833V374.208H1054.5V366.833C1054.5 364.817 1052.83 363.146 1050.81 363.146C1048.8 363.146 1047.13 364.817 1047.13 366.833V374.503C1033.85 375.732 1027.41 383.648 1026.43 395.399C1026.33 396.825 1027.51 398.005 1028.89 398.005H1112.08C1113.5 398.005 1114.68 396.776 1114.53 395.399C1113.55 383.648 1107.11 375.732 1093.83 374.503Z" fill="url(#paint5_linear_16_221)"/>
<path d="M1104.9 430.75C1094.03 430.75 1085.23 439.551 1085.23 450.417C1085.23 454.104 1086.26 457.595 1088.08 460.545C1091.47 466.248 1097.72 470.083 1104.9 470.083C1112.08 470.083 1118.32 466.248 1121.71 460.545C1123.53 457.595 1124.56 454.104 1124.56 450.417C1124.56 439.551 1115.76 430.75 1104.9 430.75ZM1115.07 448.302L1104.6 457.988C1103.91 458.628 1102.98 458.972 1102.09 458.972C1101.16 458.972 1100.23 458.628 1099.49 457.89L1094.62 453.023C1093.2 451.597 1093.2 449.237 1094.62 447.811C1096.05 446.385 1098.41 446.385 1099.83 447.811L1102.19 450.171L1110.06 442.894C1111.53 441.517 1113.89 441.616 1115.27 443.091C1116.65 444.566 1116.55 446.877 1115.07 448.302Z" fill="url(#paint6_linear_16_221)"/>
<path d="M1109.81 405.38H1031.15C1028.44 405.38 1026.23 407.592 1026.23 410.296V440.583C1026.23 455.333 1033.61 465.166 1050.81 465.166H1075.05C1078.45 465.166 1080.81 461.872 1079.72 458.676C1078.74 455.825 1077.9 452.678 1077.9 450.416C1077.9 435.519 1090.05 423.375 1104.95 423.375C1106.37 423.375 1107.8 423.473 1109.17 423.719C1112.12 424.161 1114.78 421.851 1114.78 418.901V410.346C1114.73 407.592 1112.52 405.38 1109.81 405.38ZM1056.76 446.532C1055.83 447.417 1054.55 447.958 1053.27 447.958C1051.99 447.958 1050.72 447.417 1049.78 446.532C1048.9 445.598 1048.36 444.32 1048.36 443.041C1048.36 441.763 1048.9 440.485 1049.78 439.551C1050.27 439.108 1050.76 438.764 1051.4 438.518C1053.22 437.731 1055.39 438.174 1056.76 439.551C1057.65 440.485 1058.19 441.763 1058.19 443.041C1058.19 444.32 1057.65 445.598 1056.76 446.532ZM1056.76 429.324C1056.52 429.521 1056.27 429.717 1056.03 429.914C1055.73 430.111 1055.44 430.258 1055.14 430.356C1054.85 430.504 1054.55 430.602 1054.26 430.651C1053.91 430.701 1053.57 430.75 1053.27 430.75C1051.99 430.75 1050.72 430.209 1049.78 429.324C1048.9 428.39 1048.36 427.111 1048.36 425.833C1048.36 424.555 1048.9 423.276 1049.78 422.342C1050.91 421.211 1052.63 420.671 1054.26 421.015C1054.55 421.064 1054.85 421.162 1055.14 421.31C1055.44 421.408 1055.73 421.556 1056.03 421.752C1056.27 421.949 1056.52 422.146 1056.76 422.342C1057.65 423.276 1058.19 424.555 1058.19 425.833C1058.19 427.111 1057.65 428.39 1056.76 429.324ZM1073.97 429.324C1073.04 430.209 1071.76 430.75 1070.48 430.75C1069.2 430.75 1067.92 430.209 1066.99 429.324C1066.1 428.39 1065.56 427.111 1065.56 425.833C1065.56 424.555 1066.1 423.276 1066.99 422.342C1068.86 420.523 1072.15 420.523 1073.97 422.342C1074.86 423.276 1075.4 424.555 1075.4 425.833C1075.4 427.111 1074.86 428.39 1073.97 429.324Z" fill="url(#paint7_linear_16_221)"/>
</g>
<g filter="url(#filter1_d_16_221)">
<rect x="525" y="171" width="323.948" height="443" rx="60" fill="url(#paint8_linear_16_221)" shape-rendering="crispEdges"/>
<path d="M586.234 475.4C586.234 472.928 586.786 470.72 587.89 468.776C589.018 466.808 590.542 465.284 592.462 464.204C594.406 463.1 596.578 462.548 598.978 462.548C601.786 462.548 604.246 463.268 606.358 464.708C608.47 466.148 609.946 468.14 610.786 470.684H604.99C604.414 469.484 603.598 468.584 602.542 467.984C601.51 467.384 600.31 467.084 598.942 467.084C597.478 467.084 596.17 467.432 595.018 468.128C593.89 468.8 593.002 469.76 592.354 471.008C591.73 472.256 591.418 473.72 591.418 475.4C591.418 477.056 591.73 478.52 592.354 479.792C593.002 481.04 593.89 482.012 595.018 482.708C596.17 483.38 597.478 483.716 598.942 483.716C600.31 483.716 601.51 483.416 602.542 482.816C603.598 482.192 604.414 481.28 604.99 480.08H610.786C609.946 482.648 608.47 484.652 606.358 486.092C604.27 487.508 601.81 488.216 598.978 488.216C596.578 488.216 594.406 487.676 592.462 486.596C590.542 485.492 589.018 483.968 587.89 482.024C586.786 480.08 586.234 477.872 586.234 475.4ZM623.947 488.324C622.027 488.324 620.299 487.904 618.763 487.064C617.227 486.2 616.015 484.988 615.127 483.428C614.263 481.868 613.831 480.068 613.831 478.028C613.831 475.988 614.275 474.188 615.163 472.628C616.075 471.068 617.311 469.868 618.871 469.028C620.431 468.164 622.171 467.732 624.091 467.732C626.011 467.732 627.751 468.164 629.311 469.028C630.871 469.868 632.095 471.068 632.983 472.628C633.895 474.188 634.351 475.988 634.351 478.028C634.351 480.068 633.883 481.868 632.947 483.428C632.035 484.988 630.787 486.2 629.203 487.064C627.643 487.904 625.891 488.324 623.947 488.324ZM623.947 483.932C624.859 483.932 625.711 483.716 626.503 483.284C627.319 482.828 627.967 482.156 628.447 481.268C628.927 480.38 629.167 479.3 629.167 478.028C629.167 476.132 628.663 474.68 627.655 473.672C626.671 472.64 625.459 472.124 624.019 472.124C622.579 472.124 621.367 472.64 620.383 473.672C619.423 474.68 618.943 476.132 618.943 478.028C618.943 479.924 619.411 481.388 620.347 482.42C621.307 483.428 622.507 483.932 623.947 483.932ZM643.088 461.36V488H638.048V461.36H643.088ZM656.924 488.324C655.004 488.324 653.276 487.904 651.74 487.064C650.204 486.2 648.992 484.988 648.104 483.428C647.24 481.868 646.808 480.068 646.808 478.028C646.808 475.988 647.252 474.188 648.14 472.628C649.052 471.068 650.288 469.868 651.848 469.028C653.408 468.164 655.148 467.732 657.068 467.732C658.988 467.732 660.728 468.164 662.288 469.028C663.848 469.868 665.072 471.068 665.96 472.628C666.872 474.188 667.328 475.988 667.328 478.028C667.328 480.068 666.86 481.868 665.924 483.428C665.012 484.988 663.764 486.2 662.18 487.064C660.62 487.904 658.868 488.324 656.924 488.324ZM656.924 483.932C657.836 483.932 658.688 483.716 659.48 483.284C660.296 482.828 660.944 482.156 661.424 481.268C661.904 480.38 662.144 479.3 662.144 478.028C662.144 476.132 661.64 474.68 660.632 473.672C659.648 472.64 658.436 472.124 656.996 472.124C655.556 472.124 654.344 472.64 653.36 473.672C652.4 474.68 651.92 476.132 651.92 478.028C651.92 479.924 652.388 481.388 653.324 482.42C654.284 483.428 655.484 483.932 656.924 483.932ZM695.793 467.768C698.241 467.768 700.209 468.524 701.697 470.036C703.209 471.524 703.965 473.612 703.965 476.3V488H698.925V476.984C698.925 475.424 698.529 474.236 697.737 473.42C696.945 472.58 695.865 472.16 694.497 472.16C693.129 472.16 692.037 472.58 691.221 473.42C690.429 474.236 690.033 475.424 690.033 476.984V488H684.993V476.984C684.993 475.424 684.597 474.236 683.805 473.42C683.013 472.58 681.933 472.16 680.565 472.16C679.173 472.16 678.069 472.58 677.253 473.42C676.461 474.236 676.065 475.424 676.065 476.984V488H671.025V468.056H676.065V470.468C676.713 469.628 677.541 468.968 678.549 468.488C679.581 468.008 680.709 467.768 681.933 467.768C683.493 467.768 684.885 468.104 686.109 468.776C687.333 469.424 688.281 470.36 688.953 471.584C689.601 470.432 690.537 469.508 691.761 468.812C693.009 468.116 694.353 467.768 695.793 467.768ZM713.787 470.972C714.435 470.012 715.323 469.232 716.451 468.632C717.603 468.032 718.911 467.732 720.375 467.732C722.079 467.732 723.615 468.152 724.983 468.992C726.375 469.832 727.467 471.032 728.259 472.592C729.075 474.128 729.483 475.916 729.483 477.956C729.483 479.996 729.075 481.808 728.259 483.392C727.467 484.952 726.375 486.164 724.983 487.028C723.615 487.892 722.079 488.324 720.375 488.324C718.887 488.324 717.579 488.036 716.451 487.46C715.347 486.86 714.459 486.092 713.787 485.156V488H708.747V461.36H713.787V470.972ZM724.335 477.956C724.335 476.756 724.083 475.724 723.579 474.86C723.099 473.972 722.451 473.3 721.635 472.844C720.843 472.388 719.979 472.16 719.043 472.16C718.131 472.16 717.267 472.4 716.451 472.88C715.659 473.336 715.011 474.008 714.507 474.896C714.027 475.784 713.787 476.828 713.787 478.028C713.787 479.228 714.027 480.272 714.507 481.16C715.011 482.048 715.659 482.732 716.451 483.212C717.267 483.668 718.131 483.896 719.043 483.896C719.979 483.896 720.843 483.656 721.635 483.176C722.451 482.696 723.099 482.012 723.579 481.124C724.083 480.236 724.335 479.18 724.335 477.956ZM735.702 465.68C734.814 465.68 734.07 465.404 733.47 464.852C732.894 464.276 732.606 463.568 732.606 462.728C732.606 461.888 732.894 461.192 733.47 460.64C734.07 460.064 734.814 459.776 735.702 459.776C736.59 459.776 737.322 460.064 737.898 460.64C738.498 461.192 738.798 461.888 738.798 462.728C738.798 463.568 738.498 464.276 737.898 464.852C737.322 465.404 736.59 465.68 735.702 465.68ZM738.186 468.056V488H733.146V468.056H738.186ZM741.869 477.956C741.869 475.94 742.265 474.152 743.057 472.592C743.873 471.032 744.965 469.832 746.333 468.992C747.725 468.152 749.273 467.732 750.977 467.732C752.465 467.732 753.761 468.032 754.865 468.632C755.993 469.232 756.893 469.988 757.565 470.9V468.056H762.641V488H757.565V485.084C756.917 486.02 756.017 486.8 754.865 487.424C753.737 488.024 752.429 488.324 750.941 488.324C749.261 488.324 747.725 487.892 746.333 487.028C744.965 486.164 743.873 484.952 743.057 483.392C742.265 481.808 741.869 479.996 741.869 477.956ZM757.565 478.028C757.565 476.804 757.325 475.76 756.845 474.896C756.365 474.008 755.717 473.336 754.901 472.88C754.085 472.4 753.209 472.16 752.273 472.16C751.337 472.16 750.473 472.388 749.681 472.844C748.889 473.3 748.241 473.972 747.737 474.86C747.257 475.724 747.017 476.756 747.017 477.956C747.017 479.156 747.257 480.212 747.737 481.124C748.241 482.012 748.889 482.696 749.681 483.176C750.497 483.656 751.361 483.896 752.273 483.896C753.209 483.896 754.085 483.668 754.901 483.212C755.717 482.732 756.365 482.06 756.845 481.196C757.325 480.308 757.565 479.252 757.565 478.028ZM778.616 467.768C780.992 467.768 782.912 468.524 784.376 470.036C785.84 471.524 786.572 473.612 786.572 476.3V488H781.532V476.984C781.532 475.4 781.136 474.188 780.344 473.348C779.552 472.484 778.472 472.052 777.104 472.052C775.712 472.052 774.608 472.484 773.792 473.348C773 474.188 772.604 475.4 772.604 476.984V488H767.564V468.056H772.604V470.54C773.276 469.676 774.128 469.004 775.16 468.524C776.216 468.02 777.368 467.768 778.616 467.768Z" fill="#EDEEFF"/>
<path d="M609.702 388.456V378.28H627.43V425H616.038V388.456H609.702ZM634.917 401C634.917 393.661 636.325 387.88 639.141 383.656C641.999 379.432 646.586 377.32 652.901 377.32C659.215 377.32 663.781 379.432 666.597 383.656C669.455 387.88 670.885 393.661 670.885 401C670.885 408.424 669.455 414.248 666.597 418.472C663.781 422.696 659.215 424.808 652.901 424.808C646.586 424.808 641.999 422.696 639.141 418.472C636.325 414.248 634.917 408.424 634.917 401ZM660.133 401C660.133 396.691 659.663 393.384 658.725 391.08C657.786 388.733 655.845 387.56 652.901 387.56C649.957 387.56 648.015 388.733 647.077 391.08C646.138 393.384 645.669 396.691 645.669 401C645.669 403.901 645.839 406.312 646.181 408.232C646.522 410.109 647.205 411.645 648.229 412.84C649.295 413.992 650.853 414.568 652.901 414.568C654.949 414.568 656.485 413.992 657.509 412.84C658.575 411.645 659.279 410.109 659.621 408.232C659.962 406.312 660.133 403.901 660.133 401ZM676.667 401C676.667 393.661 678.075 387.88 680.891 383.656C683.749 379.432 688.336 377.32 694.651 377.32C700.965 377.32 705.531 379.432 708.347 383.656C711.205 387.88 712.635 393.661 712.635 401C712.635 408.424 711.205 414.248 708.347 418.472C705.531 422.696 700.965 424.808 694.651 424.808C688.336 424.808 683.749 422.696 680.891 418.472C678.075 414.248 676.667 408.424 676.667 401ZM701.883 401C701.883 396.691 701.413 393.384 700.475 391.08C699.536 388.733 697.595 387.56 694.651 387.56C691.707 387.56 689.765 388.733 688.827 391.08C687.888 393.384 687.419 396.691 687.419 401C687.419 403.901 687.589 406.312 687.931 408.232C688.272 410.109 688.955 411.645 689.979 412.84C691.045 413.992 692.603 414.568 694.651 414.568C696.699 414.568 698.235 413.992 699.259 412.84C700.325 411.645 701.029 410.109 701.371 408.232C701.712 406.312 701.883 403.901 701.883 401ZM717.521 390.056C717.521 386.6 718.502 383.933 720.465 382.056C722.47 380.179 725.051 379.24 728.209 379.24C731.366 379.24 733.926 380.179 735.889 382.056C737.851 383.933 738.833 386.6 738.833 390.056C738.833 393.512 737.851 396.179 735.889 398.056C733.926 399.933 731.366 400.872 728.209 400.872C725.051 400.872 722.47 399.933 720.465 398.056C718.502 396.179 717.521 393.512 717.521 390.056ZM760.977 379.944L736.337 425H725.777L750.417 379.944H760.977ZM728.145 385.64C726.097 385.64 725.073 387.112 725.073 390.056C725.073 392.957 726.097 394.408 728.145 394.408C729.126 394.408 729.894 394.045 730.449 393.32C731.003 392.595 731.281 391.507 731.281 390.056C731.281 387.112 730.235 385.64 728.145 385.64ZM747.985 414.888C747.985 411.432 748.966 408.765 750.929 406.888C752.891 405.011 755.451 404.072 758.609 404.072C761.766 404.072 764.326 405.011 766.289 406.888C768.251 408.765 769.233 411.432 769.233 414.888C769.233 418.344 768.251 421.011 766.289 422.888C764.326 424.765 761.766 425.704 758.609 425.704C755.451 425.704 752.891 424.765 750.929 422.888C748.966 421.011 747.985 418.344 747.985 414.888ZM758.545 410.472C757.563 410.472 756.795 410.835 756.241 411.56C755.729 412.285 755.473 413.395 755.473 414.888C755.473 417.789 756.497 419.24 758.545 419.24C759.526 419.24 760.294 418.877 760.849 418.152C761.403 417.427 761.681 416.339 761.681 414.888C761.681 413.437 761.403 412.349 760.849 411.624C760.294 410.856 759.526 410.472 758.545 410.472Z" fill="white"/>
<path opacity="0.4" d="M713.641 246H660.308C652.93 246 646.974 251.911 646.974 259.2V307.689C646.974 314.978 652.93 320.889 660.308 320.889H663.685C667.241 320.889 670.619 322.267 673.108 324.756L680.708 332.267C684.174 335.689 689.819 335.689 693.285 332.267L700.885 324.756C703.374 322.267 706.797 320.889 710.308 320.889H713.641C721.019 320.889 726.974 314.978 726.974 307.689V259.2C726.974 251.911 721.019 246 713.641 246Z" fill="url(#paint9_linear_16_221)"/>
<path d="M732.453 321.811L724.341 323.728C722.522 324.171 721.096 325.547 720.703 327.367L718.982 334.594C718.048 338.527 713.033 339.757 710.427 336.659L695.726 319.746C694.546 318.369 695.185 316.206 696.955 315.763C705.658 313.649 713.475 308.782 719.228 301.849C720.162 300.718 721.833 300.571 722.866 301.603L733.781 312.518C737.518 316.255 736.19 320.926 732.453 321.811Z" fill="url(#paint10_linear_16_221)"/>
<path d="M641.25 321.811L649.362 323.728C651.181 324.171 652.607 325.547 653 327.367L654.721 334.594C655.655 338.527 660.67 339.757 663.276 336.659L677.977 319.746C679.157 318.369 678.518 316.206 676.748 315.763C668.045 313.649 660.228 308.782 654.475 301.849C653.541 300.718 651.87 300.571 650.837 301.603L639.922 312.518C636.185 316.255 637.513 320.926 641.25 321.811Z" fill="url(#paint11_linear_16_221)"/>
<path d="M686.974 240.833C667.947 240.833 652.558 256.223 652.558 275.25C652.558 282.379 654.672 288.918 658.31 294.376C663.62 302.243 672.028 307.798 681.812 309.224C683.483 309.519 685.204 309.667 686.974 309.667C688.744 309.667 690.465 309.519 692.137 309.224C701.921 307.798 710.328 302.243 715.638 294.376C719.277 288.918 721.391 282.379 721.391 275.25C721.391 256.223 706.002 240.833 686.974 240.833ZM702.019 274.168L697.938 278.249C697.25 278.938 696.857 280.265 697.103 281.248L698.283 286.313C699.217 290.295 697.103 291.868 693.563 289.754L688.646 286.853C687.761 286.313 686.286 286.313 685.401 286.853L680.484 289.754C676.944 291.819 674.83 290.295 675.764 286.313L676.944 281.248C677.141 280.314 676.797 278.938 676.108 278.249L671.929 274.168C669.52 271.759 670.307 269.35 673.65 268.809L678.911 267.924C679.796 267.777 680.828 266.99 681.222 266.203L684.123 260.402C685.696 257.255 688.253 257.255 689.826 260.402L692.727 266.203C693.12 266.99 694.153 267.777 695.087 267.924L700.348 268.809C703.642 269.35 704.428 271.759 702.019 274.168Z" fill="url(#paint12_linear_16_221)"/>
</g>
<mask id="mask0_16_221" style="mask-type:alpha" maskUnits="userSpaceOnUse" x="525" y="171" width="325" height="223">
<path d="M525 291C525 234.431 525 206.147 542.574 188.574C560.147 171 588.432 171 645 171H729C785.569 171 813.853 171 831.427 188.574C849 206.147 849 234.431 849 291V336C849 363.341 849 377.012 840.506 385.506C832.012 394 818.342 394 791 394H583C555.659 394 541.988 394 533.494 385.506C525 377.012 525 363.341 525 336V291Z" fill="#C4C4C4"/>
</mask>
<g mask="url(#mask0_16_221)">
<path d="M155.205 384.691C218.393 309.433 386.169 182.82 551.772 278.431C717.376 374.042 861.675 253.72 913.124 181.607C968.461 113.034 1117.29 -2.08692 1269.88 86.0142" stroke="#F92323" stroke-width="70" stroke-linecap="round" stroke-linejoin="round"/>
<path d="M133.636 326.05C196.901 250.7 364.883 123.931 530.689 219.66C696.495 315.388 840.971 194.918 892.483 122.717C947.889 54.06 1096.9 -61.202 1249.68 27.0071" stroke="#4E6AFF" stroke-width="70" stroke-linecap="round" stroke-linejoin="round"/>
<path d="M132.119 276.677C195.307 201.419 363.083 74.8058 528.687 170.417C694.29 266.028 838.589 145.706 890.038 73.593C945.376 5.01988 1094.2 -110.101 1246.8 -22" stroke="#F9D423" stroke-width="70" stroke-linecap="round" stroke-linejoin="round"/>
</g>
<defs>
<filter id="filter0_d_16_221" x="0.000244141" y="229" width="1382.96" height="547" filterUnits="userSpaceOnUse" color-interpolation-filters="sRGB">
<feFlood flood-opacity="0" result="BackgroundImageFix"/>
<feColorMatrix in="SourceAlpha" type="matrix" values="0 0 0 0 0 0 0 0 0 0 0 0 0 0 0 0 0 0 127 0" result="hardAlpha"/>
<feOffset dx="4" dy="4"/>
<feGaussianBlur stdDeviation="46"/>
<feComposite in2="hardAlpha" operator="out"/>
<feColorMatrix type="matrix" values="0 0 0 0 0.458824 0 0 0 0 0.47451 0 0 0 0 1 0 0 0 0.18 0"/>
<feBlend mode="normal" in2="BackgroundImageFix" result="effect1_dropShadow_16_221"/>
<feBlend mode="normal" in="SourceGraphic" in2="effect1_dropShadow_16_221" result="shape"/>
</filter>
<filter id="filter1_d_16_221" x="390" y="0" width="673.948" height="793" filterUnits="userSpaceOnUse" color-interpolation-filters="sRGB">
<feFlood flood-opacity="0" result="BackgroundImageFix"/>
<feColorMatrix in="SourceAlpha" type="matrix" values="0 0 0 0 0 0 0 0 0 0 0 0 0 0 0 0 0 0 127 0" result="hardAlpha"/>
<feOffset dx="40" dy="4"/>
<feGaussianBlur stdDeviation="87.5"/>
<feComposite in2="hardAlpha" operator="out"/>
<feColorMatrix type="matrix" values="0 0 0 0 0.458824 0 0 0 0 0.47451 0 0 0 0 1 0 0 0 0.3 0"/>
<feBlend mode="normal" in2="BackgroundImageFix" result="effect1_dropShadow_16_221"/>
<feBlend mode="normal" in="SourceGraphic" in2="effect1_dropShadow_16_221" result="shape"/>
</filter>
<linearGradient id="paint0_linear_16_221" x1="298.48" y1="416.417" x2="378.48" y2="416.417" gradientUnits="userSpaceOnUse">
<stop stop-color="#B224EF"/>
<stop offset="1" stop-color="#7579FF"/>
</linearGradient>
<linearGradient id="paint1_linear_16_221" x1="346.632" y1="445.657" x2="387.512" y2="445.657" gradientUnits="userSpaceOnUse">
<stop stop-color="#B224EF"/>
<stop offset="1" stop-color="#7579FF"/>
</linearGradient>
<linearGradient id="paint2_linear_16_221" x1="289.202" y1="445.657" x2="330.083" y2="445.657" gradientUnits="userSpaceOnUse">
<stop stop-color="#B224EF"/>
<stop offset="1" stop-color="#7579FF"/>
</linearGradient>
<linearGradient id="paint3_linear_16_221" x1="304.063" y1="401.25" x2="372.897" y2="401.25" gradientUnits="userSpaceOnUse">
<stop stop-color="#B224EF"/>
<stop offset="1" stop-color="#7579FF"/>
</linearGradient>
<linearGradient id="paint4_linear_16_221" x1="1030.48" y1="416.417" x2="1110.48" y2="416.417" gradientUnits="userSpaceOnUse">
<stop stop-color="#B224EF"/>
<stop offset="1" stop-color="#7579FF"/>
</linearGradient>
<linearGradient id="paint5_linear_16_221" x1="1026.42" y1="380.575" x2="1114.55" y2="380.575" gradientUnits="userSpaceOnUse">
<stop stop-color="#B224EF"/>
<stop offset="1" stop-color="#7579FF"/>
</linearGradient>
<linearGradient id="paint6_linear_16_221" x1="1085.23" y1="450.417" x2="1124.56" y2="450.417" gradientUnits="userSpaceOnUse">
<stop stop-color="#B224EF"/>
<stop offset="1" stop-color="#7579FF"/>
</linearGradient>
<linearGradient id="paint7_linear_16_221" x1="1026.23" y1="435.273" x2="1114.78" y2="435.273" gradientUnits="userSpaceOnUse">
<stop stop-color="#B224EF"/>
<stop offset="1" stop-color="#7579FF"/>
</linearGradient>
<linearGradient id="paint8_linear_16_221" x1="525" y1="392.5" x2="848.948" y2="392.5" gradientUnits="userSpaceOnUse">
<stop stop-color="#B224EF"/>
<stop offset="1" stop-color="#7579FF"/>
</linearGradient>
<linearGradient id="paint9_linear_16_221" x1="646.974" y1="290.417" x2="726.974" y2="290.417" gradientUnits="userSpaceOnUse">
<stop stop-color="#B224EF"/>
<stop offset="1" stop-color="#7579FF"/>
</linearGradient>
<linearGradient id="paint10_linear_16_221" x1="695.126" y1="319.657" x2="736.006" y2="319.657" gradientUnits="userSpaceOnUse">
<stop stop-color="#B224EF"/>
<stop offset="1" stop-color="#7579FF"/>
</linearGradient>
<linearGradient id="paint11_linear_16_221" x1="637.697" y1="319.657" x2="678.577" y2="319.657" gradientUnits="userSpaceOnUse">
<stop stop-color="#B224EF"/>
<stop offset="1" stop-color="#7579FF"/>
</linearGradient>
<linearGradient id="paint12_linear_16_221" x1="652.558" y1="275.25" x2="721.391" y2="275.25" gradientUnits="userSpaceOnUse">
<stop stop-color="#B224EF"/>
<stop offset="1" stop-color="#7579FF"/>
</linearGradient>
</defs>
</svg>
