<svg width="75" height="68" viewBox="0 0 75 68" fill="none" xmlns="http://www.w3.org/2000/svg">
<g clip-path="url(#clip0_251_9)">
<path fill-rule="evenodd" clip-rule="evenodd" d="M5.70258 22.4259C7.49858 16.0259 8.40458 9.32534 9.23458 2.82534C9.40858 1.42534 8.43758 0.125535 7.06958 0.0255347C5.70058 -0.174466 4.44858 0.82612 4.27458 2.12612C3.47558 8.42612 2.62059 14.9255 0.891588 21.0255C0.516588 22.3255 1.28858 23.7261 2.61658 24.1261C3.94358 24.5261 5.32658 23.7259 5.70258 22.4259Z" fill="#EDEEFF"/>
<path fill-rule="evenodd" clip-rule="evenodd" d="M31.1662 41.8251C41.6772 31.5251 50.8352 19.9251 61.6282 9.8251C62.6362 8.9251 62.6902 7.3251 61.7492 6.3251C60.8072 5.3251 59.2232 5.22549 58.2152 6.22549C47.3912 16.3255 38.2032 27.9255 27.6612 38.2255C26.6772 39.2255 26.6632 40.8251 27.6312 41.8251C28.5982 42.7251 30.1822 42.8251 31.1662 41.8251Z" fill="#EDEEFF"/>
<path fill-rule="evenodd" clip-rule="evenodd" d="M71.5911 61.1255C65.5751 61.4255 59.5591 61.725 53.5421 62.025C52.1641 62.025 51.1001 63.2255 51.1671 64.6255C51.2351 66.0255 52.4081 67.025 53.7871 67.025C59.8131 66.725 65.8381 66.4255 71.8631 66.1255C73.2411 66.0255 74.2981 64.8253 74.2231 63.4253C74.1481 62.1253 72.9681 61.0255 71.5911 61.1255Z" fill="#EDEEFF"/>
</g>
<defs>
<clipPath id="clip0_251_9">
<rect width="75" height="68" fill="white"/>
</clipPath>
</defs>
</svg>
