<svg width="99" height="87" viewBox="0 0 99 87" fill="none" xmlns="http://www.w3.org/2000/svg">
<path fill-rule="evenodd" clip-rule="evenodd" d="M63.7013 80.9407C67.3158 81.3092 70.8883 81.7054 74.5118 81.9684C75.2911 82.0278 75.9648 81.447 76.0214 80.6726C76.0808 79.8933 75.4952 79.2166 74.7208 79.16C71.1176 78.8958 67.5753 78.5038 63.9859 78.1369C63.2101 78.06 62.5195 78.6246 62.4405 79.3927C62.3637 80.1684 62.9255 80.8638 63.7013 80.9407Z" fill="white"/>
<path fill-rule="evenodd" clip-rule="evenodd" d="M51.4142 53.5191C60.7946 46.8997 69.8347 39.8104 79.0678 32.9952C79.6942 32.5303 79.8254 31.6492 79.3653 31.0255C78.9003 30.3991 78.0221 30.2631 77.3908 30.7252C68.176 37.5314 59.1543 44.6117 49.79 51.2144C49.1518 51.666 49.003 52.5435 49.4497 53.1789C49.9013 53.8172 50.7788 53.9658 51.4142 53.5191Z" fill="white"/>
<path fill-rule="evenodd" clip-rule="evenodd" d="M16.9984 30.5247C20.4572 21.4562 23.6675 12.2769 27.2274 3.24738C27.5082 2.52428 27.1532 1.70756 26.4329 1.42188C25.7077 1.13338 24.8882 1.49327 24.6025 2.21356C21.0418 11.2557 17.8259 20.4448 14.3664 29.5258C14.0905 30.2517 14.4531 31.0665 15.1791 31.3424C15.9099 31.6212 16.7197 31.2555 16.9984 30.5247Z" fill="white"/>
</svg>
