<svg width="2500" height="2500" viewBox="0 0 2500 2500" fill="none" xmlns="http://www.w3.org/2000/svg">
<path d="M1250 2450C1912.74 2450 2450 1912.74 2450 1250C2450 587.258 1912.74 50 1250 50C587.258 50 50 587.258 50 1250C50 1912.74 587.258 2450 1250 2450Z" fill="#EDEEFF"/>
<path d="M1850 1250H1716.67V1783.33C1716.67 1801.01 1709.64 1817.97 1697.14 1830.47C1684.64 1842.98 1667.68 1850 1650 1850H850C832.319 1850 815.362 1842.98 802.86 1830.47C790.357 1817.97 783.333 1801.01 783.333 1783.33V1250H650L1250 650L1850 1250Z" fill="#7579FF"/>
<path d="M1516.67 916.667V716.667C1516.67 698.986 1523.69 682.029 1536.19 669.526C1548.7 657.024 1565.65 650 1583.33 650H1650C1667.68 650 1684.64 657.024 1697.14 669.526C1709.64 682.029 1716.67 698.986 1716.67 716.667V1116.67" fill="#5F6073"/>
<path d="M1516.67 916.667V716.667C1516.67 698.986 1523.69 682.029 1536.19 669.526C1548.7 657.024 1565.65 650 1583.33 650H1650C1667.68 650 1684.64 657.024 1697.14 669.526C1709.64 682.029 1716.67 698.986 1716.67 716.667V1116.67" stroke="#1B1C37" stroke-width="66.6667" stroke-linecap="round" stroke-linejoin="round"/>
<path d="M1850 1250H1716.67V1783.33C1716.67 1801.01 1709.64 1817.97 1697.14 1830.47C1684.64 1842.98 1667.68 1850 1650 1850H850C832.319 1850 815.362 1842.98 802.86 1830.47C790.357 1817.97 783.333 1801.01 783.333 1783.33V1250H650L1250 650L1850 1250Z" stroke="#1B1C37" stroke-width="66.6667" stroke-linecap="round" stroke-linejoin="round"/>
</svg>
