<svg width="2500" height="2500" viewBox="0 0 2500 2500" fill="none" xmlns="http://www.w3.org/2000/svg">
<path d="M1250 2450C1912.74 2450 2450 1912.74 2450 1250C2450 587.258 1912.74 50 1250 50C587.258 50 50 587.258 50 1250C50 1912.74 587.258 2450 1250 2450Z" fill="#EDEEFF"/>
<path d="M631.338 1090C622.075 711.18 764.668 588.666 1186 631.333L1863.33 1308.67C1890 1506 1868.67 1708.67 1740.67 1799.33C1612.67 1890 1433.54 1873.33 978.001 1879.33C768.421 1863.34 658.885 1799.33 631.341 1602C631.335 1570 631.329 1527.33 631.338 1506V1090Z" fill="#EDEEFF"/>
<path d="M1186 578H1052.67C719.333 578 586 711.333 586 1044.67V1444.67C586 1778 719.333 1911.33 1052.67 1911.33H1452.67C1786 1911.33 1919.33 1778 1919.33 1444.67V1311.33" stroke="#1B1C37" stroke-width="70" stroke-linecap="round" stroke-linejoin="round"/>
<path d="M1908.67 682.015C1826.67 886.681 1620.67 1165.35 1448.67 1303.35L1343.33 1387.35C1330 1397.35 1316.67 1405.35 1301.33 1411.35C1301.33 1401.35 1300.67 1391.35 1299.33 1380.68C1293.33 1336.02 1273.33 1294.02 1237.33 1258.68C1200.67 1222.02 1156.67 1201.35 1111.33 1195.35C1100.67 1194.68 1090 1194.02 1079.33 1194.68C1085.33 1178.02 1094 1162.68 1105.33 1150.02L1189.33 1044.68C1327.33 872.681 1606.67 665.348 1810.67 583.348C1842 571.348 1872.67 580.681 1892 600.015C1912 620.015 1921.33 650.681 1908.67 682.015Z" fill="#5F6073" stroke="#1B1C37" stroke-width="60" stroke-linecap="round" stroke-linejoin="round"/>
<path d="M1302 1416C1302 1474.67 1279.33 1530.67 1237.33 1573.33C1204.66 1606 1160.66 1628.67 1108 1635.33L976.664 1649.33C905.33 1657.33 843.997 1596.67 851.997 1524L865.997 1392.67C878.664 1276 975.997 1201.33 1080 1199.33C1090.66 1198.67 1101.33 1199.33 1112 1200C1157.33 1206 1201.33 1226.67 1238 1263.33C1274 1299.33 1294 1340.67 1300 1385.33C1301.33 1396 1302 1406.67 1302 1416Z" fill="#7579FF" stroke="#1B1C37" stroke-width="60" stroke-linecap="round" stroke-linejoin="round"/>
<path d="M1504.95 1247.81C1504.95 1108.48 1392.29 995.143 1252.29 995.143" stroke="#1B1C37" stroke-width="60" stroke-linecap="round" stroke-linejoin="round"/>
</svg>
