<svg width="497" height="497" viewBox="0 0 497 497" fill="none" xmlns="http://www.w3.org/2000/svg">
<g clip-path="url(#clip0_290_2)">
<path d="M496.2 248.1C496.2 111.1 385.1 0 248.1 0C111.1 0 0 111.1 0 248.1C0 385.1 111.1 496.2 248.1 496.2C385.1 496.2 496.2 385.1 496.2 248.1Z" fill="#EDEEFF"/>
<path d="M326.002 422.9C326.002 398.3 291.002 378.4 247.802 378.4C204.602 378.4 169.602 398.3 169.602 422.9H326.002Z" fill="#1B1C37"/>
<path d="M301.598 257.201V142.301H193.898V257.201C193.898 257.501 193.898 257.801 193.898 258.101C193.898 287.801 217.998 312.001 247.798 312.001C277.498 312.001 301.698 287.901 301.698 258.101C301.598 257.801 301.598 257.501 301.598 257.201Z" fill="#1B1C37"/>
<path d="M247.798 142.301H193.898V257.201C193.898 257.501 193.898 257.801 193.898 258.101C193.898 287.801 217.998 312.001 247.798 312.001V142.301Z" fill="#1B1C37"/>
<path d="M262.403 340.801H233.203V381.901H262.403V340.801Z" fill="#1B1C37"/>
<path d="M177.797 191.199C177.797 191.199 177.797 273.499 177.797 273.899C177.797 312.599 209.097 343.899 247.797 343.899C286.497 343.899 317.797 312.599 317.797 273.899C317.797 273.499 317.797 191.199 317.797 191.199" stroke="#1B1C37" stroke-width="9.649" stroke-miterlimit="10"/>
<path d="M301.597 127.099C301.597 97.2992 277.497 73.1992 247.697 73.1992C217.897 73.1992 193.797 97.2992 193.797 127.099V185.699H301.497V127.699C301.597 127.499 301.597 127.299 301.597 127.099Z" fill="#5F6073"/>
<path d="M247.798 73.3008C217.998 73.3008 193.898 97.4008 193.898 127.201V185.801H247.798V73.3008Z" fill="#5F6073"/>
<path d="M327.603 184.801H168.203V197.801H327.603V184.801Z" fill="#1B1C37"/>
<path d="M302.4 177.801H193.5C192.1 177.801 191 178.901 191 180.301V201.701C191 203.101 192.1 204.201 193.5 204.201H302.4C303.8 204.201 304.9 203.101 304.9 201.701V180.301C304.9 178.901 303.7 177.801 302.4 177.801Z" fill="#7579FF"/>
<path d="M302.4 223.801H193.5C192.1 223.801 191 224.901 191 226.301V247.701C191 249.101 192.1 250.201 193.5 250.201H302.4C303.8 250.201 304.9 249.101 304.9 247.701V226.301C304.9 224.901 303.7 223.801 302.4 223.801Z" fill="#7579FF"/>
<path d="M191 180.301V201.701C191 203.101 192.1 204.201 193.5 204.201H247.8V177.801H193.5C192.1 177.801 191 178.901 191 180.301Z" fill="#7579FF"/>
<path d="M191 226.301V247.701C191 249.101 192.1 250.201 193.5 250.201H247.8V223.801H193.5C192.1 223.801 191 224.901 191 226.301Z" fill="#7579FF"/>
<path d="M334.705 180.9H330.205C328.905 180.9 327.805 182 327.805 183.3V199.3C327.805 200.6 328.905 201.7 330.205 201.7H334.705C336.005 201.7 337.105 200.6 337.105 199.3V183.3C337.105 182 336.005 180.9 334.705 180.9Z" fill="#7579FF"/>
<path d="M166.002 180.9H161.502C160.202 180.9 159.102 182 159.102 183.3V199.3C159.102 200.6 160.202 201.7 161.502 201.7H166.002C167.302 201.7 168.402 200.6 168.402 199.3V183.3C168.402 182 167.302 180.9 166.002 180.9Z" fill="#7579FF"/>
<path d="M222.495 169.901C225.422 169.901 227.795 167.528 227.795 164.601C227.795 161.674 225.422 159.301 222.495 159.301C219.568 159.301 217.195 161.674 217.195 164.601C217.195 167.528 219.568 169.901 222.495 169.901Z" fill="#EDEEFF"/>
<path d="M205.698 169.901C208.626 169.901 210.998 167.528 210.998 164.601C210.998 161.674 208.626 159.301 205.698 159.301C202.771 159.301 200.398 161.674 200.398 164.601C200.398 167.528 202.771 169.901 205.698 169.901Z" fill="#EDEEFF"/>
<path d="M239.3 169.901C242.227 169.901 244.6 167.528 244.6 164.601C244.6 161.674 242.227 159.301 239.3 159.301C236.373 159.301 234 161.674 234 164.601C234 167.528 236.373 169.901 239.3 169.901Z" fill="#EDEEFF"/>
<path d="M256.097 169.901C259.024 169.901 261.397 167.528 261.397 164.601C261.397 161.674 259.024 159.301 256.097 159.301C253.17 159.301 250.797 161.674 250.797 164.601C250.797 167.528 253.17 169.901 256.097 169.901Z" fill="#EDEEFF"/>
<path d="M272.894 169.901C275.821 169.901 278.194 167.528 278.194 164.601C278.194 161.674 275.821 159.301 272.894 159.301C269.967 159.301 267.594 161.674 267.594 164.601C267.594 167.528 269.967 169.901 272.894 169.901Z" fill="#EDEEFF"/>
<path d="M289.698 169.901C292.626 169.901 294.998 167.528 294.998 164.601C294.998 161.674 292.626 159.301 289.698 159.301C286.771 159.301 284.398 161.674 284.398 164.601C284.398 167.528 286.771 169.901 289.698 169.901Z" fill="#EDEEFF"/>
<path d="M222.495 154.799C225.422 154.799 227.795 152.426 227.795 149.499C227.795 146.572 225.422 144.199 222.495 144.199C219.568 144.199 217.195 146.572 217.195 149.499C217.195 152.426 219.568 154.799 222.495 154.799Z" fill="#EDEEFF"/>
<path d="M205.698 154.799C208.626 154.799 210.998 152.426 210.998 149.499C210.998 146.572 208.626 144.199 205.698 144.199C202.771 144.199 200.398 146.572 200.398 149.499C200.398 152.426 202.771 154.799 205.698 154.799Z" fill="#EDEEFF"/>
<path d="M239.3 154.799C242.227 154.799 244.6 152.426 244.6 149.499C244.6 146.572 242.227 144.199 239.3 144.199C236.373 144.199 234 146.572 234 149.499C234 152.426 236.373 154.799 239.3 154.799Z" fill="#EDEEFF"/>
<path d="M256.097 154.799C259.024 154.799 261.397 152.426 261.397 149.499C261.397 146.572 259.024 144.199 256.097 144.199C253.17 144.199 250.797 146.572 250.797 149.499C250.797 152.426 253.17 154.799 256.097 154.799Z" fill="#EDEEFF"/>
<path d="M272.894 154.799C275.821 154.799 278.194 152.426 278.194 149.499C278.194 146.572 275.821 144.199 272.894 144.199C269.967 144.199 267.594 146.572 267.594 149.499C267.594 152.426 269.967 154.799 272.894 154.799Z" fill="#EDEEFF"/>
<path d="M289.698 154.799C292.626 154.799 294.998 152.426 294.998 149.499C294.998 146.572 292.626 144.199 289.698 144.199C286.771 144.199 284.398 146.572 284.398 149.499C284.398 152.426 286.771 154.799 289.698 154.799Z" fill="#EDEEFF"/>
<path d="M222.495 139.7C225.422 139.7 227.795 137.327 227.795 134.4C227.795 131.472 225.422 129.1 222.495 129.1C219.568 129.1 217.195 131.472 217.195 134.4C217.195 137.327 219.568 139.7 222.495 139.7Z" fill="#EDEEFF"/>
<path d="M205.698 139.7C208.626 139.7 210.998 137.327 210.998 134.4C210.998 131.472 208.626 129.1 205.698 129.1C202.771 129.1 200.398 131.472 200.398 134.4C200.398 137.327 202.771 139.7 205.698 139.7Z" fill="#EDEEFF"/>
<path d="M239.3 139.7C242.227 139.7 244.6 137.327 244.6 134.4C244.6 131.472 242.227 129.1 239.3 129.1C236.373 129.1 234 131.472 234 134.4C234 137.327 236.373 139.7 239.3 139.7Z" fill="#EDEEFF"/>
<path d="M256.097 139.7C259.024 139.7 261.397 137.327 261.397 134.4C261.397 131.472 259.024 129.1 256.097 129.1C253.17 129.1 250.797 131.472 250.797 134.4C250.797 137.327 253.17 139.7 256.097 139.7Z" fill="#EDEEFF"/>
<path d="M272.894 139.7C275.821 139.7 278.194 137.327 278.194 134.4C278.194 131.472 275.821 129.1 272.894 129.1C269.967 129.1 267.594 131.472 267.594 134.4C267.594 137.327 269.967 139.7 272.894 139.7Z" fill="#EDEEFF"/>
<path d="M289.698 139.7C292.626 139.7 294.998 137.327 294.998 134.4C294.998 131.472 292.626 129.1 289.698 129.1C286.771 129.1 284.398 131.472 284.398 134.4C284.398 137.327 286.771 139.7 289.698 139.7Z" fill="#EDEEFF"/>
<path d="M222.495 124.6C225.422 124.6 227.795 122.227 227.795 119.3C227.795 116.373 225.422 114 222.495 114C219.568 114 217.195 116.373 217.195 119.3C217.195 122.227 219.568 124.6 222.495 124.6Z" fill="#EDEEFF"/>
<path d="M205.698 124.6C208.626 124.6 210.998 122.227 210.998 119.3C210.998 116.373 208.626 114 205.698 114C202.771 114 200.398 116.373 200.398 119.3C200.398 122.227 202.771 124.6 205.698 124.6Z" fill="#EDEEFF"/>
<path d="M239.3 124.6C242.227 124.6 244.6 122.227 244.6 119.3C244.6 116.373 242.227 114 239.3 114C236.373 114 234 116.373 234 119.3C234 122.227 236.373 124.6 239.3 124.6Z" fill="#EDEEFF"/>
<path d="M256.097 124.6C259.024 124.6 261.397 122.227 261.397 119.3C261.397 116.373 259.024 114 256.097 114C253.17 114 250.797 116.373 250.797 119.3C250.797 122.227 253.17 124.6 256.097 124.6Z" fill="#EDEEFF"/>
<path d="M272.894 124.6C275.821 124.6 278.194 122.227 278.194 119.3C278.194 116.373 275.821 114 272.894 114C269.967 114 267.594 116.373 267.594 119.3C267.594 122.227 269.967 124.6 272.894 124.6Z" fill="#EDEEFF"/>
<path d="M289.698 124.6C292.626 124.6 294.998 122.227 294.998 119.3C294.998 116.373 292.626 114 289.698 114C286.771 114 284.398 116.373 284.398 119.3C284.398 122.227 286.771 124.6 289.698 124.6Z" fill="#EDEEFF"/>
<path d="M222.503 109.5C225.43 109.5 227.803 107.127 227.803 104.2C227.803 101.273 225.43 98.9004 222.503 98.9004C219.576 98.9004 217.203 101.273 217.203 104.2C217.203 107.127 219.576 109.5 222.503 109.5Z" fill="#EDEEFF"/>
<path d="M239.3 109.5C242.227 109.5 244.6 107.127 244.6 104.2C244.6 101.273 242.227 98.9004 239.3 98.9004C236.373 98.9004 234 101.273 234 104.2C234 107.127 236.373 109.5 239.3 109.5Z" fill="#EDEEFF"/>
<path d="M256.097 109.5C259.024 109.5 261.397 107.127 261.397 104.2C261.397 101.273 259.024 98.9004 256.097 98.9004C253.17 98.9004 250.797 101.273 250.797 104.2C250.797 107.127 253.17 109.5 256.097 109.5Z" fill="#EDEEFF"/>
<path d="M272.894 109.5C275.821 109.5 278.194 107.127 278.194 104.2C278.194 101.273 275.821 98.9004 272.894 98.9004C269.967 98.9004 267.594 101.273 267.594 104.2C267.594 107.127 269.967 109.5 272.894 109.5Z" fill="#EDEEFF"/>
<path d="M239.3 94.2992C242.227 94.2992 244.6 91.9263 244.6 88.9992C244.6 86.0721 242.227 83.6992 239.3 83.6992C236.373 83.6992 234 86.0721 234 88.9992C234 91.9263 236.373 94.2992 239.3 94.2992Z" fill="#EDEEFF"/>
<path d="M256.097 94.2992C259.024 94.2992 261.397 91.9263 261.397 88.9992C261.397 86.0721 259.024 83.6992 256.097 83.6992C253.17 83.6992 250.797 86.0721 250.797 88.9992C250.797 91.9263 253.17 94.2992 256.097 94.2992Z" fill="#EDEEFF"/>
</g>
<defs>
<clipPath id="clip0_290_2">
<rect width="496.2" height="496.2" fill="white"/>
</clipPath>
</defs>
</svg>
