<svg width="32" height="32" viewBox="0 0 32 32" fill="none" xmlns="http://www.w3.org/2000/svg">
<path d="M19 23V27C19 28.1 18.1 29 17 29H7C5.9 29 5 28.1 5 27V5C5 3.9 5.9 3 7 3H17C18.1 3 19 3.9 19 5V7" fill="#EDEEFF"/>
<path d="M19 23V27C19 28.1 18.1 29 17 29H7C5.9 29 5 28.1 5 27V5C5 3.9 5.9 3 7 3H17C18.1 3 19 3.9 19 5V7" stroke="#1B1C37" stroke-width="2" stroke-miterlimit="10" stroke-linecap="round" stroke-linejoin="round"/>
<path d="M5 7H19" stroke="#1B1C37" stroke-width="2" stroke-miterlimit="10" stroke-linecap="round" stroke-linejoin="round"/>
<path d="M5 23H19" stroke="#1B1C37" stroke-width="2" stroke-miterlimit="10" stroke-linecap="round" stroke-linejoin="round"/>
<path d="M11 26H13" stroke="#1B1C37" stroke-width="2" stroke-miterlimit="10" stroke-linecap="round" stroke-linejoin="round"/>
<path d="M14 12L11 15L14 18" stroke="#5F6073" stroke-width="2" stroke-miterlimit="10" stroke-linecap="round" stroke-linejoin="round"/>
<path d="M24 12L27 15L24 18" stroke="#5F6073" stroke-width="2" stroke-miterlimit="10" stroke-linecap="round" stroke-linejoin="round"/>
<path d="M21 11L17 19" stroke="#7579FF" stroke-width="2" stroke-miterlimit="10" stroke-linecap="round" stroke-linejoin="round"/>
</svg>
