<svg width="800" height="800" viewBox="0 0 800 800" fill="none" xmlns="http://www.w3.org/2000/svg">
<g clip-path="url(#clip0_227_106)">
<path d="M400 800C620.914 800 800 620.914 800 400C800 179.086 620.914 0 400 0C179.086 0 0 179.086 0 400C0 620.914 179.086 800 400 800Z" fill="#EDEEFF"/>
<path d="M600.144 209.532C533.706 202.088 466.856 198.325 400 198.338C333.144 198.325 266.287 202.088 199.85 209.532C186.119 211.082 175 223.657 175 237.425C175 401.857 175 566.282 175 730.719C239.113 774.419 316.556 800 400 800C483.45 800 560.887 774.419 625 730.719C625 566.282 625 401.857 625 237.425C625 223.657 613.881 211.082 600.144 209.532Z" fill="#1B1C37"/>
<path d="M187.5 738.831C249.081 777.525 321.9 800 400 800C478.1 800 550.912 777.525 612.5 738.831V268.75H187.5V738.831Z" fill="#676BE3"/>
<path d="M200 746.35C258.85 780.406 327.119 800 400 800C472.881 800 541.15 780.406 600 746.35V281.25H200V746.35Z" fill="#7579FF"/>
<path d="M437.207 231.25H362.207C358.751 231.25 355.957 228.456 355.957 225C355.957 221.544 358.751 218.75 362.207 218.75H437.207C440.663 218.75 443.457 221.544 443.457 225C443.457 228.456 440.663 231.25 437.207 231.25Z" fill="#EDEEFF" fill-opacity="0.8"/>
<path d="M331.25 231.25C334.702 231.25 337.5 228.452 337.5 225C337.5 221.548 334.702 218.75 331.25 218.75C327.798 218.75 325 221.548 325 225C325 228.452 327.798 231.25 331.25 231.25Z" fill="#5F6073"/>
<path d="M456.25 231.25C459.702 231.25 462.5 228.452 462.5 225C462.5 221.548 459.702 218.75 456.25 218.75C452.798 218.75 450 221.548 450 225C450 228.452 452.798 231.25 456.25 231.25Z" fill="#5F6073"/>
<path d="M475 231.25C478.452 231.25 481.25 228.452 481.25 225C481.25 221.548 478.452 218.75 475 218.75C471.548 218.75 468.75 221.548 468.75 225C468.75 228.452 471.548 231.25 475 231.25Z" fill="#5F6073"/>
<path d="M518.75 231.25C522.202 231.25 525 228.452 525 225C525 221.548 522.202 218.75 518.75 218.75C515.298 218.75 512.5 221.548 512.5 225C512.5 228.452 515.298 231.25 518.75 231.25Z" fill="#5F6073"/>
<path d="M625 368.75C621.544 368.75 618.75 365.956 618.75 362.5V318.75C618.75 315.294 621.544 312.5 625 312.5C628.456 312.5 631.25 315.294 631.25 318.75V362.5C631.25 365.956 628.456 368.75 625 368.75Z" fill="#5F6073"/>
<path d="M175.25 400C171.794 400 169 397.206 169 393.75V306.25C169 302.794 171.794 300 175.25 300C178.706 300 181.5 302.794 181.5 306.25V393.75C181.5 397.206 178.706 400 175.25 400Z" fill="#5F6073" fill-opacity="0.431373"/>
</g>
<defs>
<clipPath id="clip0_227_106">
<rect width="800" height="800" fill="white"/>
</clipPath>
</defs>
</svg>
