<svg width="474" height="474" viewBox="0 0 474 474" fill="none" xmlns="http://www.w3.org/2000/svg">
<g clip-path="url(#clip0_255_2)">
<path d="M236.827 473.654C367.623 473.654 473.654 367.623 473.654 236.827C473.654 106.031 367.623 0 236.827 0C106.031 0 0 106.031 0 236.827C0 367.623 106.031 473.654 236.827 473.654Z" fill="#EDEEFF"/>
<path d="M327.6 374.75C327.6 396.511 316.527 407.591 294.763 407.58L183.118 407.591C161.354 407.591 150.281 396.511 150.281 374.75V105.486C150.281 83.7333 161.354 72.6562 183.118 72.6562H294.763C316.527 72.6562 327.6 83.7333 327.6 105.486V374.75Z" fill="#1B1C37"/>
<path d="M252.563 384.6C252.563 391.855 246.677 397.741 239.422 397.741C232.163 397.741 226.289 391.859 226.289 384.6C226.289 377.341 232.168 371.482 239.422 371.482C246.677 371.482 252.563 377.342 252.563 384.6Z" fill="#101123"/>
<path d="M241.369 389.726H237.491C236.642 389.726 235.842 389.393 235.24 388.787C234.634 388.181 234.305 387.377 234.313 386.525V382.67C234.313 380.912 235.738 379.484 237.492 379.484H241.37C243.124 379.484 244.556 380.913 244.556 382.67V386.533C244.551 388.29 243.123 389.726 241.369 389.726ZM237.491 381.35C236.769 381.35 236.182 381.937 236.182 382.666V386.529C236.175 386.888 236.313 387.217 236.563 387.468C236.81 387.715 237.139 387.857 237.49 387.857H241.368C242.09 387.857 242.684 387.262 242.684 386.533V382.67C242.684 381.945 242.093 381.354 241.368 381.354H237.49L237.491 381.35Z" fill="#5F6073"/>
<path d="M259.743 97.2771C259.743 99.3941 258.019 101.106 255.91 101.106H221.981C219.864 101.106 218.148 99.3931 218.148 97.2771C218.148 95.1641 219.864 93.4551 221.981 93.4551H255.906C258.019 93.4511 259.743 95.1601 259.743 97.2771Z" fill="#5F6073"/>
<path d="M318.564 114.521H158.484V359.164H318.564V114.521Z" fill="#7579FF"/>
</g>
<defs>
<clipPath id="clip0_255_2">
<rect width="473.654" height="473.654" fill="white"/>
</clipPath>
</defs>
</svg>
