<svg width="800" height="800" viewBox="0 0 800 800" fill="none" xmlns="http://www.w3.org/2000/svg">
<path d="M695 190H53L54 655.5H525C560.254 555.502 596.726 519.683 695 494.5V190Z" fill="#EDEEFF"/>
<path d="M538.936 671.286C534.791 668.763 531.179 665.382 528.308 661.284C526.982 659.394 525.862 657.396 524.934 655.331H53.8793V191.033H693.268V494.203C706.918 495.436 718.371 504.401 723.18 516.677C727.438 514.344 732.183 512.901 737.171 512.461C740.544 512.168 743.896 512.378 747.146 513.02V75.3668C747.146 50.6084 727.007 30.4661 702.251 30.4661H44.8988C20.1424 30.4661 0 50.6084 0 75.3668V664.313C0 689.071 20.1424 709.212 44.8988 709.212H534.844C531.021 701.47 530.114 692.729 532.364 684.32C533.661 679.483 535.905 675.071 538.936 671.286ZM643.963 105.863C643.963 96.7074 651.385 89.2833 660.541 89.2833H677.119C686.277 89.2833 693.697 96.7055 693.697 105.863V124.653C693.697 133.809 686.275 141.231 677.119 141.231H660.541C651.383 141.231 643.963 133.809 643.963 124.653V105.863ZM566.874 105.863C566.874 96.7074 574.296 89.2833 583.452 89.2833H600.032C609.19 89.2833 616.61 96.7055 616.61 105.863V124.653C616.61 133.809 609.188 141.231 600.032 141.231H583.452C574.296 141.231 566.874 133.809 566.874 124.653V105.863ZM489.783 105.863C489.783 96.7074 497.207 89.2833 506.361 89.2833H522.939C532.097 89.2833 539.519 96.7055 539.519 105.863V124.653C539.519 133.809 532.097 141.231 522.939 141.231H506.361C497.207 141.231 489.783 133.809 489.783 124.653V105.863Z" fill="#1B1C37"/>
<path d="M799.893 639.667L794.911 611.415C794.239 607.61 790.613 605.069 786.805 605.74L761.681 610.167C758.665 603.09 754.813 596.46 750.241 590.392L766.651 570.831C767.844 569.414 768.425 567.575 768.265 565.725C768.101 563.876 767.209 562.169 765.788 560.974L743.815 542.533C742.394 541.34 740.552 540.761 738.704 540.923C736.854 541.085 735.147 541.975 733.954 543.396L717.559 562.942C710.829 559.513 703.629 556.869 696.087 555.124V529.611C696.087 525.747 692.953 522.612 689.09 522.612H660.399C656.538 522.612 653.402 525.747 653.402 529.611V555.124C645.856 556.867 638.664 559.513 631.93 562.942L615.531 543.398C613.047 540.437 608.635 540.053 605.672 542.535L583.697 560.974C582.276 562.169 581.386 563.876 581.223 565.725C581.063 567.575 581.642 569.416 582.834 570.837L599.246 590.394C594.682 596.46 590.822 603.093 587.807 610.169L562.682 605.74C558.884 605.071 555.251 607.61 554.576 611.415L549.596 639.667C549.274 641.494 549.692 643.372 550.753 644.895C551.822 646.417 553.439 647.451 555.268 647.773L580.411 652.204C580.821 659.994 582.177 667.531 584.36 674.707L562.261 687.462C560.653 688.385 559.482 689.917 559 691.708C558.52 693.501 558.773 695.409 559.699 697.017L574.042 721.861C574.966 723.469 576.498 724.641 578.289 725.121C578.885 725.281 579.493 725.359 580.1 725.359C581.318 725.359 582.524 725.043 583.598 724.422L605.714 711.652C610.915 717.225 616.786 722.162 623.203 726.338L614.47 750.329C613.837 752.074 613.919 753.998 614.704 755.68C615.489 757.363 616.908 758.664 618.652 759.296L645.605 769.105C646.378 769.387 647.19 769.532 647.999 769.532C649.009 769.532 650.024 769.313 650.96 768.875C652.642 768.092 653.939 766.671 654.574 764.926L663.305 740.935C667.048 741.388 670.858 741.623 674.724 741.623C678.589 741.623 682.399 741.385 686.143 740.935L694.876 764.926C695.508 766.671 696.811 768.092 698.489 768.875C699.423 769.311 700.435 769.532 701.45 769.532C702.258 769.532 703.069 769.391 703.843 769.105L730.8 759.296C732.539 758.664 733.96 757.359 734.743 755.68C735.528 753.998 735.612 752.074 734.977 750.329L726.244 726.342C732.655 722.166 738.526 717.225 743.733 711.656L765.849 724.426C766.922 725.043 768.129 725.363 769.347 725.363C769.953 725.363 770.566 725.281 771.159 725.125C772.951 724.645 774.479 723.469 775.405 721.865L789.748 697.017C790.674 695.413 790.927 693.501 790.447 691.708C789.965 689.921 788.794 688.389 787.186 687.462L765.091 674.711C767.274 667.533 768.627 659.996 769.036 652.208L794.179 647.775C796.008 647.453 797.631 646.419 798.694 644.896C799.798 643.372 800.215 641.494 799.893 639.667ZM674.746 684.562C653.495 684.562 636.264 667.331 636.264 646.078C636.264 624.825 653.497 607.595 674.746 607.595C695.999 607.595 713.231 624.825 713.231 646.078C713.231 667.331 695.999 684.562 674.746 684.562Z" fill="#1B1C37"/>
<path d="M313.756 448.403C313.756 439.35 308.45 431.035 300.237 427.221L225.072 392.297L300.239 357.369C308.45 353.551 313.756 345.238 313.756 336.189V335.581C313.756 327.56 309.719 320.197 302.963 315.894C299.226 313.507 294.872 312.244 290.378 312.244C286.991 312.244 283.591 312.989 280.548 314.402L160.38 370.284C152.171 374.101 146.869 382.415 146.869 391.462V393.133C146.869 402.169 152.169 410.477 160.382 414.314L280.562 470.201C283.669 471.639 286.978 472.369 290.396 472.369C294.85 472.369 299.189 471.104 302.963 468.704C309.723 464.383 313.758 457.026 313.758 449.015L313.756 448.403Z" fill="#5F6073"/>
<path d="M432.322 255.303C427.938 249.302 420.888 245.72 413.46 245.72H412.861C402.662 245.72 393.719 252.245 390.612 261.944L311.437 507.264C309.183 514.347 310.452 522.149 314.83 528.148C319.214 534.145 326.264 537.728 333.692 537.728H334.292C344.488 537.728 353.425 531.202 356.528 521.505L435.694 276.204C437.968 269.126 436.707 261.313 432.322 255.303Z" fill="#7579FF"/>
<path d="M586.764 370.282L466.594 314.4C463.561 312.991 460.167 312.246 456.779 312.246C452.287 312.246 447.932 313.505 444.196 315.888C437.429 320.199 433.393 327.561 433.393 335.581V336.189C433.393 345.23 438.694 353.546 446.913 357.379L522.076 392.299L446.911 427.221C438.698 431.035 433.393 439.35 433.393 448.403V449.015C433.393 457.026 437.429 464.381 444.192 468.706C447.953 471.102 452.297 472.369 456.756 472.369C460.17 472.369 463.476 471.639 466.604 470.195L586.78 414.308C594.985 410.481 600.283 402.171 600.283 393.135V391.464C600.277 382.415 594.975 374.101 586.764 370.282Z" fill="#5F6073"/>
</svg>
