<svg width="800" height="800" viewBox="0 0 800 800" fill="none" xmlns="http://www.w3.org/2000/svg">
<g clip-path="url(#clip0_221_10)">
<path d="M400 800C620.914 800 800 620.914 800 400C800 179.086 620.914 0 400 0C179.086 0 0 179.086 0 400C0 620.914 179.086 800 400 800Z" fill="#EDEEFF"/>
<path d="M182.269 537.373L442.633 797.737C632.219 777.648 782.253 625.128 798.511 434.425L714.254 350.169L698.767 342.761L616.158 260.786L182.269 537.373Z" fill="#EDEEFF"/>
<path d="M594.386 549.045H205.611C189.495 549.045 176.428 535.981 176.428 519.866V280.134C176.428 264.019 189.492 250.952 205.611 250.952H594.386C610.502 250.952 623.566 264.016 623.566 280.134V519.866C623.569 535.981 610.505 549.045 594.386 549.045Z" fill="#1B1C37"/>
<path d="M594.386 250.955H399.1V549.047H594.386C610.502 549.047 623.566 535.983 623.566 519.867V280.137C623.569 264.019 610.505 250.955 594.386 250.955Z" fill="#1B1C37"/>
<path d="M400 499.358C441.158 499.358 474.523 465.993 474.523 424.834C474.523 383.676 441.158 350.311 400 350.311C358.842 350.311 325.477 383.676 325.477 424.834C325.477 465.993 358.842 499.358 400 499.358Z" fill="#7579FF"/>
<path d="M400 350.319C399.698 350.319 399.401 350.338 399.103 350.341V499.341C399.401 499.344 399.698 499.366 400 499.366C441.158 499.366 474.523 466 474.523 424.842C474.523 383.684 441.158 350.319 400 350.319Z" fill="#7579FF"/>
<path d="M386.502 392.528L431.563 418.542C436.411 421.341 436.411 428.339 431.563 431.137L386.502 457.152C381.653 459.95 375.592 456.452 375.592 450.855V398.822C375.595 393.228 381.653 389.73 386.502 392.528Z" fill="#1B1C37"/>
<path d="M431.564 418.542L399.103 399.8V449.877L431.564 431.134C436.412 428.339 436.412 421.342 431.564 418.542Z" fill="#1B1C37"/>
<path d="M623.569 288.216H176.431V325.477H623.569V288.216Z" fill="#5F6073"/>
<path d="M623.569 288.216H399.111V325.477H623.569V288.216Z" fill="#5F6073"/>
<path d="M500.711 599.214L459.194 602.147L462.116 560.628L681.006 341.681C688.005 334.683 699.35 334.681 706.345 341.676L719.599 354.93C726.597 361.925 726.597 373.27 719.599 380.272L500.711 599.214Z" fill="#5F6073"/>
<path d="M713.875 349.202L461.061 602.014L500.708 599.213L719.599 380.269C726.597 373.27 726.597 361.925 719.599 354.927L713.875 349.202Z" fill="#5F6073"/>
</g>
<defs>
<clipPath id="clip0_221_10">
<rect width="800" height="800" fill="white"/>
</clipPath>
</defs>
</svg>
