<svg width="2500" height="2500" viewBox="0 0 2500 2500" fill="none" xmlns="http://www.w3.org/2000/svg">
<path d="M1250 2450C1912.74 2450 2450 1912.74 2450 1250C2450 587.258 1912.74 50 1250 50C587.258 50 50 587.258 50 1250C50 1912.74 587.258 2450 1250 2450Z" fill="#EDEEFF"/>
<path d="M1840 830H556L558 1761H1500C1570.51 1561 1643.45 1489.37 1840 1439V830Z" fill="#EDEEFF"/>
<path d="M1527.87 1792.57C1519.58 1787.53 1512.36 1780.76 1506.62 1772.57C1503.96 1768.79 1501.72 1764.79 1499.87 1760.66H557.759V832.066H1836.54V1438.41C1863.84 1440.87 1886.74 1458.8 1896.36 1483.35C1904.88 1478.69 1914.37 1475.8 1924.34 1474.92C1931.09 1474.34 1937.79 1474.75 1944.29 1476.04V600.733C1944.29 551.216 1904.01 510.932 1854.5 510.932H539.798C490.285 510.932 450 551.216 450 600.733V1778.63C450 1828.14 490.285 1868.42 539.798 1868.42H1519.69C1512.04 1852.94 1510.23 1835.46 1514.73 1818.64C1517.32 1808.97 1521.81 1800.14 1527.87 1792.57ZM1737.93 661.726C1737.93 643.414 1752.77 628.566 1771.08 628.566H1804.24C1822.55 628.566 1837.39 643.411 1837.39 661.726V699.305C1837.39 717.617 1822.55 732.461 1804.24 732.461H1771.08C1752.77 732.461 1737.93 717.617 1737.93 699.305V661.726ZM1583.75 661.726C1583.75 643.414 1598.59 628.566 1616.9 628.566H1650.06C1668.38 628.566 1683.22 643.411 1683.22 661.726V699.305C1683.22 717.617 1668.38 732.461 1650.06 732.461H1616.9C1598.59 732.461 1583.75 717.617 1583.75 699.305V661.726ZM1429.57 661.726C1429.57 643.414 1444.41 628.566 1462.72 628.566H1495.88C1514.19 628.566 1529.04 643.411 1529.04 661.726V699.305C1529.04 717.617 1514.19 732.461 1495.88 732.461H1462.72C1444.41 732.461 1429.57 717.617 1429.57 699.305V661.726Z" fill="#1B1C37"/>
<path d="M2049.79 1729.33L2039.82 1672.83C2038.48 1665.22 2031.23 1660.14 2023.61 1661.48L1973.36 1670.33C1967.33 1656.18 1959.63 1642.92 1950.48 1630.78L1983.3 1591.66C1985.69 1588.83 1986.85 1585.15 1986.53 1581.45C1986.2 1577.75 1984.42 1574.34 1981.58 1571.95L1937.63 1535.07C1934.79 1532.68 1931.11 1531.52 1927.41 1531.85C1923.71 1532.17 1920.3 1533.95 1917.91 1536.79L1885.12 1575.88C1871.66 1569.03 1857.26 1563.74 1842.18 1560.25V1509.22C1842.18 1501.49 1835.91 1495.22 1828.18 1495.22H1770.8C1763.08 1495.22 1756.81 1501.49 1756.81 1509.22V1560.25C1741.71 1563.73 1727.33 1569.03 1713.86 1575.88L1681.06 1536.8C1676.1 1530.87 1667.27 1530.1 1661.35 1535.07L1617.4 1571.95C1614.55 1574.34 1612.77 1577.75 1612.45 1581.45C1612.13 1585.15 1613.29 1588.83 1615.67 1591.67L1648.49 1630.79C1639.37 1642.92 1631.65 1656.19 1625.61 1670.34L1575.37 1661.48C1567.77 1660.14 1560.5 1665.22 1559.15 1672.83L1549.19 1729.33C1548.55 1732.99 1549.39 1736.74 1551.51 1739.79C1553.65 1742.83 1556.88 1744.9 1560.54 1745.55L1610.82 1754.41C1611.64 1769.99 1614.36 1785.06 1618.72 1799.41L1574.52 1824.92C1571.31 1826.77 1568.97 1829.83 1568 1833.42C1567.04 1837 1567.55 1840.82 1569.4 1844.03L1598.09 1893.72C1599.93 1896.94 1603 1899.28 1606.58 1900.24C1607.77 1900.56 1608.99 1900.72 1610.2 1900.72C1612.64 1900.72 1615.05 1900.09 1617.2 1898.84L1661.43 1873.3C1671.83 1884.45 1683.57 1894.32 1696.41 1902.68L1678.94 1950.66C1677.68 1954.15 1677.84 1958 1679.41 1961.36C1680.98 1964.72 1683.82 1967.33 1687.31 1968.59L1741.21 1988.21C1742.76 1988.77 1744.38 1989.06 1746 1989.06C1748.02 1989.06 1750.05 1988.63 1751.92 1987.75C1755.29 1986.18 1757.88 1983.34 1759.15 1979.85L1776.61 1931.87C1784.1 1932.78 1791.72 1933.25 1799.45 1933.25C1807.18 1933.25 1814.8 1932.77 1822.29 1931.87L1839.75 1979.85C1841.02 1983.34 1843.62 1986.18 1846.98 1987.75C1848.85 1988.62 1850.87 1989.06 1852.9 1989.06C1854.52 1989.06 1856.14 1988.78 1857.69 1988.21L1911.6 1968.59C1915.08 1967.33 1917.92 1964.72 1919.49 1961.36C1921.06 1958 1921.23 1954.15 1919.96 1950.66L1902.49 1902.68C1915.31 1894.33 1927.05 1884.45 1937.47 1873.31L1981.7 1898.85C1983.85 1900.09 1986.26 1900.73 1988.7 1900.73C1989.91 1900.73 1991.13 1900.56 1992.32 1900.25C1995.9 1899.29 1998.96 1896.94 2000.81 1893.73L2029.5 1844.03C2031.35 1840.83 2031.86 1837 2030.9 1833.42C2029.93 1829.84 2027.59 1826.78 2024.37 1824.92L1980.18 1799.42C1984.55 1785.06 1987.26 1769.99 1988.07 1754.42L2038.36 1745.55C2042.02 1744.91 2045.26 1742.84 2047.39 1739.79C2049.6 1736.74 2050.43 1732.99 2049.79 1729.33ZM1799.49 1819.12C1756.99 1819.12 1722.53 1784.66 1722.53 1742.15C1722.53 1699.65 1757 1665.19 1799.49 1665.19C1842 1665.19 1876.46 1699.65 1876.46 1742.15C1876.46 1784.66 1842 1819.12 1799.49 1819.12Z" fill="#1B1C37"/>
<path d="M1077.51 1346.81C1077.51 1328.7 1066.9 1312.07 1050.48 1304.44L900.147 1234.59L1050.48 1164.74C1066.9 1157.1 1077.51 1140.48 1077.51 1122.38V1121.16C1077.51 1105.12 1069.44 1090.39 1055.93 1081.79C1048.45 1077.01 1039.75 1074.49 1030.76 1074.49C1023.98 1074.49 1017.18 1075.98 1011.1 1078.8L770.762 1190.57C754.344 1198.2 743.74 1214.83 743.74 1232.92V1236.27C743.74 1254.34 754.34 1270.95 770.766 1278.63L1011.13 1390.4C1017.34 1393.28 1023.96 1394.74 1030.79 1394.74C1039.7 1394.74 1048.38 1392.21 1055.93 1387.41C1069.45 1378.77 1077.52 1364.05 1077.52 1348.03L1077.51 1346.81Z" fill="#5F6073"/>
<path d="M1314.65 960.605C1305.88 948.604 1291.78 941.44 1276.92 941.44H1275.72C1255.33 941.44 1237.44 954.49 1231.23 973.888L1072.88 1464.53C1068.37 1478.69 1070.91 1494.3 1079.66 1506.3C1088.43 1518.29 1102.53 1525.46 1117.39 1525.46H1118.59C1138.98 1525.46 1156.85 1512.4 1163.06 1493.01L1321.39 1002.41C1325.94 988.252 1323.42 972.626 1314.65 960.605Z" fill="#7579FF"/>
<path d="M1623.53 1190.56L1383.19 1078.8C1377.12 1075.98 1370.33 1074.49 1363.56 1074.49C1354.58 1074.49 1345.87 1077.01 1338.39 1081.78C1324.86 1090.4 1316.79 1105.12 1316.79 1121.16V1122.38C1316.79 1140.46 1327.39 1157.09 1343.83 1164.76L1494.15 1234.6L1343.82 1304.44C1327.4 1312.07 1316.79 1328.7 1316.79 1346.81V1348.03C1316.79 1364.05 1324.86 1378.76 1338.39 1387.41C1345.91 1392.2 1354.6 1394.74 1363.51 1394.74C1370.34 1394.74 1376.95 1393.28 1383.21 1390.39L1623.56 1278.62C1639.97 1270.96 1650.57 1254.34 1650.57 1236.27V1232.93C1650.56 1214.83 1639.95 1198.2 1623.53 1190.56Z" fill="#5F6073"/>
</svg>
