<svg width="500" height="500" viewBox="0 0 500 500" fill="none" xmlns="http://www.w3.org/2000/svg">
<path d="M465.57 297.54C454.095 297.54 445.078 288.524 445.078 277.049C445.078 170.491 358.193 82.7863 250.816 82.7863C144.259 82.7863 56.5539 169.672 56.5539 277.049C56.5539 288.524 47.5375 297.54 36.0621 297.54C24.5867 297.54 15.5703 288.524 15.5703 277.049C15.5703 147.54 121.308 41.8027 250.816 41.8027C380.324 41.8027 486.062 147.54 486.062 277.049C486.062 288.524 477.046 297.54 465.57 297.54Z" fill="#7D8B8C"/>
<path d="M250.818 81.9668C131.966 81.9668 32.7853 171.311 18.0312 286.065C21.3099 292.623 28.687 297.541 36.8837 297.541C48.3591 297.541 57.3755 288.524 57.3755 277.049C57.3755 170.491 144.261 82.7865 251.638 82.7865C358.195 82.7865 445.9 169.672 445.9 277.049C445.9 288.524 454.916 297.541 466.392 297.541C474.589 297.541 481.146 292.623 485.244 286.065C468.851 170.491 369.671 81.9668 250.818 81.9668Z" fill="#536060"/>
<path d="M423.773 409.017C423.773 429.509 440.987 446.722 461.478 446.722H462.298C482.79 446.722 500.003 429.509 500.003 409.017V326.23C500.003 305.738 482.79 288.525 462.298 288.525H461.478C440.987 288.525 423.773 305.738 423.773 326.23V409.017Z" fill="#1B1C37"/>
<path d="M423.773 326.23V409.017C423.773 429.509 440.987 446.722 461.478 446.722H462.298C482.79 446.722 500.003 429.509 500.003 409.017V326.23" fill="#1B1C37" fill-opacity="0.32549"/>
<path d="M377.047 423.77C377.047 442.622 392.621 458.196 411.473 458.196H443.44C462.293 458.196 477.867 442.622 477.867 423.77V290.983C477.867 272.13 462.293 256.557 443.44 256.557H411.473C392.621 256.557 377.047 272.13 377.047 290.983V423.77Z" fill="#7579FF"/>
<path d="M443.44 256.557H411.473C392.621 256.557 377.047 272.13 377.047 290.983V423.77C377.047 442.622 392.621 458.196 411.473 458.196H443.44C462.293 458.196 477.867 442.622 477.867 423.77" fill="#7579FF"/>
<path d="M443.44 256.557H411.473C392.621 256.557 377.047 272.13 377.047 290.983V423.77C377.047 442.622 392.621 458.196 411.473 458.196H443.44" fill="#394444"/>
<path d="M443.44 256.557H402.457C383.604 256.557 377.047 272.13 377.047 290.983V423.77C377.047 442.622 392.621 458.196 411.473 458.196" fill="#2B3535"/>
<path d="M76.2295 409.017C76.2295 429.509 59.0164 446.722 38.5246 446.722H37.7049C17.2131 446.722 0 429.509 0 409.017V326.23C0 305.738 17.2131 288.525 37.7049 288.525H38.5246C59.0164 288.525 76.2295 305.738 76.2295 326.23V409.017Z" fill="#1B1C37"/>
<path d="M76.2295 326.23V409.017C76.2295 429.509 59.0164 446.722 38.5246 446.722H37.7049C17.2131 446.722 0 429.509 0 409.017V326.23" fill="#1B1C37"/>
<path d="M122.952 423.77C122.952 442.622 107.379 458.196 88.5263 458.196H56.559C37.7066 458.196 22.1328 442.622 22.1328 423.77V290.983C22.1328 272.13 37.7066 256.557 56.559 256.557H88.5263C107.379 256.557 122.952 272.13 122.952 290.983V423.77Z" fill="#7579FF"/>
<path d="M56.559 256.557H88.5263C107.379 256.557 122.952 272.13 122.952 290.983V423.77C122.952 442.622 107.379 458.196 88.5263 458.196H56.559C37.7066 458.196 22.1328 442.622 22.1328 423.77" fill="#7579FF"/>
<path d="M56.5547 256.557H88.5219C107.374 256.557 122.948 272.13 122.948 290.983V423.77C122.948 442.622 107.374 458.196 88.5219 458.196H56.5547" fill="#394444"/>
<path d="M56.5547 256.557H97.5383C116.391 256.557 122.948 272.13 122.948 290.983V423.77C122.948 442.622 107.374 458.196 88.5219 458.196" fill="#2B3535"/>
</svg>
